# 3ds Max Wavefront OBJ Exporter v0.99 - (c)2007 guruware
# File Created: 03.05.2022 20:17:53

mtllib boStaff.mtl

#
# object boStaff
#

v  -2.0000 0.0505 0.0742
v  -2.0000 -0.0495 -0.0258
v  -2.0000 -0.0495 0.0742
v  -2.0000 0.0505 -0.0258
v  -1.7000 -0.0495 0.0742
v  -1.7000 -0.1495 -0.1258
v  -1.7000 -0.1495 0.1742
v  -1.7000 -0.0495 -0.0258
v  -1.7000 0.0505 0.0742
v  -1.7000 0.0505 -0.0258
v  -1.7000 0.1505 0.1742
v  -1.7000 0.1505 -0.1258
v  0.9000 -0.0495 0.0742
v  0.9000 -0.1495 -0.1258
v  0.9000 -0.1495 0.1742
v  0.9000 -0.0495 -0.0258
v  0.9000 0.0505 0.0742
v  0.9000 0.0505 -0.0258
v  0.9000 0.1505 0.1742
v  0.9000 0.1505 -0.1258
v  -0.9000 -0.1495 0.1742
v  -0.9000 -0.1495 -0.1258
v  -0.9000 -0.0495 0.0742
v  -0.9000 -0.0495 -0.0258
v  -0.9000 0.0505 0.0742
v  -0.9000 0.0505 -0.0258
v  -0.9000 0.1505 0.1742
v  -0.9000 0.1505 -0.1258
v  1.7000 -0.1495 0.1742
v  1.7000 -0.1495 -0.1258
v  1.7000 -0.0495 0.0742
v  1.7000 -0.0495 -0.0258
v  1.7000 0.0505 0.0742
v  1.7000 0.0505 -0.0258
v  1.7000 0.1505 0.1742
v  1.7000 0.1505 -0.1258
v  2.0000 -0.0495 0.0742
v  2.0000 -0.0495 -0.0258
v  2.0000 -0.0191 0.0693
v  2.0000 0.0505 0.0742
v  2.0000 0.0505 -0.0258
v  -1.0584 0.0726 0.1742
# 42 vertices

vn -1.0000 0.0000 -0.0000
vn 1.0000 0.0000 -0.0000
vn 0.0000 0.0000 1.0000
vn 0.0000 0.0000 -1.0000
vn 0.0000 -1.0000 -0.0000
vn 0.0000 1.0000 -0.0000
# 6 vertex normals

vt 0.3066 0.5000 0.0000
vt 0.8262 0.5000 0.0000
# 2 texture coords

o boStaff
g boStaff
usemtl boStaff_palette
s 1
f 1/1/1 2/1/1 3/1/1 
f 4/1/1 2/1/1 1/1/1 
f 5/2/1 6/2/1 7/2/1 
f 8/2/1 6/2/1 5/2/1 
f 9/2/1 5/2/1 7/2/1 
f 10/2/1 6/2/1 8/2/1 
f 11/2/1 9/2/1 7/2/1 
f 11/2/1 10/2/1 9/2/1 
f 12/2/1 6/2/1 10/2/1 
f 12/2/1 10/2/1 11/2/1 
f 13/2/1 14/2/1 15/2/1 
f 16/2/1 14/2/1 13/2/1 
f 17/2/1 13/2/1 15/2/1 
f 18/2/1 14/2/1 16/2/1 
f 19/2/1 17/2/1 15/2/1 
f 19/2/1 18/2/1 17/2/1 
f 20/2/1 14/2/1 18/2/1 
f 20/2/1 18/2/1 19/2/1 
f 21/2/2 22/2/2 23/2/2 
f 23/2/2 22/2/2 24/2/2 
f 21/2/2 23/2/2 25/2/2 
f 24/2/2 22/2/2 26/2/2 
f 21/2/2 25/2/2 27/2/2 
f 25/2/2 26/2/2 27/2/2 
f 26/2/2 22/2/2 28/2/2 
f 27/2/2 26/2/2 28/2/2 
f 29/2/2 30/2/2 31/2/2 
f 31/2/2 30/2/2 32/2/2 
f 29/2/2 31/2/2 33/2/2 
f 32/2/2 30/2/2 34/2/2 
f 29/2/2 33/2/2 35/2/2 
f 33/2/2 34/2/2 35/2/2 
f 34/2/2 30/2/2 36/2/2 
f 35/2/2 34/2/2 36/2/2 
f 37/1/2 38/1/2 39/1/2 
f 40/1/2 38/1/2 41/1/2 
f 21/2/3 11/2/3 7/2/3 
f 27/2/3 11/2/3 42/2/3 
f 29/2/3 19/2/3 15/2/3 
f 35/2/3 19/2/3 29/2/3 
f 5/1/3 1/1/3 3/1/3 
f 9/1/3 1/1/3 5/1/3 
f 13/1/3 25/1/3 23/1/3 
f 17/1/3 25/1/3 13/1/3 
f 37/1/3 33/1/3 31/1/3 
f 40/1/3 33/1/3 37/1/3 
f 2/1/4 4/1/4 8/1/4 
f 8/1/4 4/1/4 10/1/4 
f 24/1/4 26/1/4 16/1/4 
f 16/1/4 26/1/4 18/1/4 
f 32/1/4 34/1/4 38/1/4 
f 38/1/4 34/1/4 41/1/4 
f 6/2/4 12/2/4 22/2/4 
f 22/2/4 12/2/4 28/2/4 
f 14/2/4 20/2/4 30/2/4 
f 30/2/4 20/2/4 36/2/4 
f 6/2/5 21/2/5 7/2/5 
f 22/2/5 21/2/5 6/2/5 
f 14/2/5 29/2/5 15/2/5 
f 30/2/5 29/2/5 14/2/5 
f 2/1/5 5/1/5 3/1/5 
f 8/1/5 5/1/5 2/1/5 
f 24/1/5 13/1/5 23/1/5 
f 16/1/5 13/1/5 24/1/5 
f 32/1/5 37/1/5 31/1/5 
f 38/1/5 37/1/5 32/1/5 
f 1/1/6 9/1/6 4/1/6 
f 4/1/6 9/1/6 10/1/6 
f 25/1/6 17/1/6 26/1/6 
f 26/1/6 17/1/6 18/1/6 
f 33/1/6 40/1/6 34/1/6 
f 34/1/6 40/1/6 41/1/6 
f 11/2/6 27/2/6 12/2/6 
f 12/2/6 27/2/6 28/2/6 
f 19/2/6 35/2/6 20/2/6 
f 20/2/6 35/2/6 36/2/6 
f 42/2/3 11/2/3 21/2/3 
f 27/2/3 42/2/3 21/2/3 
f 39/1/2 38/1/2 40/1/2 
f 37/1/2 39/1/2 40/1/2 
# 80 faces

