# 3ds Max Wavefront OBJ Exporter v0.99 - (c)2007 guruware
# File Created: 16.04.2022 17:21:46

mtllib Bluebird.mtl

#
# object Bluebird
#

v  -0.2467 -0.3082 0.2298
v  -0.2467 -0.5082 -0.3702
v  -0.2467 -0.5082 0.2298
v  -0.2467 0.0918 0.3298
v  -0.2467 -0.3082 0.3298
v  -0.2467 0.0918 -0.3702
v  -0.2467 0.2918 0.2298
v  -0.2467 0.2918 0.1298
v  -0.2467 0.3918 0.2298
v  -0.2467 0.3918 0.1298
v  -0.2467 0.4918 0.3298
v  -0.2467 0.4918 -0.3702
v  -0.1467 -0.5082 -0.3702
v  -0.1467 -0.8082 -0.4702
v  -0.1467 -0.8082 -0.3702
v  -0.1467 -0.1082 -0.3702
v  -0.1467 -0.1082 -0.4702
v  -0.0467 -0.8082 -0.4702
v  -0.0467 -1.0082 -0.5702
v  -0.0467 -1.0082 -0.4702
v  -0.0467 -0.2082 -0.4702
v  -0.0467 -0.2082 -0.5702
v  -0.0467 0.3918 0.4298
v  -0.0467 0.1918 0.3298
v  -0.0467 0.1918 0.4298
v  -0.0467 0.3918 0.3298
v  -0.0467 0.5918 0.3298
v  -0.0467 0.4918 -0.3702
v  -0.0467 0.4918 0.3298
v  -0.0467 0.5918 -0.3702
v  0.1533 -1.0082 -0.4702
v  0.1533 -1.0082 -0.5702
v  0.1533 -0.8082 -0.4702
v  0.1533 -0.2082 -0.4702
v  0.1533 -0.2082 -0.5702
v  0.1533 0.1918 0.4298
v  0.1533 0.1918 0.3298
v  0.1533 0.3918 0.4298
v  0.1533 0.3918 0.3298
v  0.1533 0.4918 0.3298
v  0.1533 0.4918 -0.3702
v  0.1533 0.5918 0.3298
v  0.1533 0.5918 -0.3702
v  0.2533 -0.8082 -0.3702
v  0.2533 -0.8082 -0.4702
v  0.2533 -0.5082 -0.3702
v  0.2533 -0.1082 -0.3702
v  0.2533 -0.1082 -0.4702
v  0.3533 -0.5082 0.2298
v  0.3533 -0.5082 -0.3702
v  0.3533 -0.3082 0.2298
v  0.3533 -0.3082 0.3298
v  0.3533 0.0918 0.3298
v  0.3533 0.0918 -0.3702
v  0.3533 0.2918 0.2298
v  0.3533 0.2918 0.1298
v  0.3533 0.3918 0.2298
v  0.3533 0.3918 0.1298
v  0.3533 0.4918 0.3298
v  0.3533 0.4918 -0.3702
# 60 vertices

vn -1.0000 0.0000 -0.0000
vn 1.0000 0.0000 -0.0000
vn 0.0000 0.0000 1.0000
vn 0.0000 0.0000 -1.0000
vn 0.0000 -1.0000 -0.0000
vn 0.0000 1.0000 -0.0000
# 6 vertex normals

vt 0.9590 0.5000 0.0000
vt 0.8262 0.5000 0.0000
vt 0.9512 0.5000 0.0000
vt 0.8301 0.5000 0.0000
vt 0.8340 0.5000 0.0000
# 5 texture coords

o Bluebird
g Bluebird
usemtl Bluebird_palette
s 1
f 1/1/1 2/1/1 3/1/1 
f 4/1/1 1/1/1 5/1/1 
f 6/1/1 2/1/1 1/1/1 
f 6/1/1 1/1/1 4/1/1 
f 7/2/1 6/2/1 4/2/1 
f 8/2/1 6/2/1 7/2/1 
f 9/2/1 7/2/1 4/2/1 
f 9/3/1 8/3/1 7/3/1 
f 10/2/1 6/2/1 8/2/1 
f 10/3/1 8/3/1 9/3/1 
f 11/2/1 9/2/1 4/2/1 
f 11/2/1 10/2/1 9/2/1 
f 12/2/1 6/2/1 10/2/1 
f 12/2/1 10/2/1 11/2/1 
f 13/4/1 14/4/1 15/4/1 
f 16/4/1 14/4/1 13/4/1 
f 17/4/1 14/4/1 16/4/1 
f 18/5/1 19/5/1 20/5/1 
f 21/5/1 19/5/1 18/5/1 
f 22/5/1 19/5/1 21/5/1 
f 23/3/1 24/3/1 25/3/1 
f 26/3/1 24/3/1 23/3/1 
f 27/2/1 28/2/1 29/2/1 
f 30/2/1 28/2/1 27/2/1 
f 31/5/2 32/5/2 33/5/2 
f 33/5/2 32/5/2 34/5/2 
f 34/5/2 32/5/2 35/5/2 
f 36/3/2 37/3/2 38/3/2 
f 38/3/2 37/3/2 39/3/2 
f 40/2/2 41/2/2 42/2/2 
f 42/2/2 41/2/2 43/2/2 
f 44/4/2 45/4/2 46/4/2 
f 46/4/2 45/4/2 47/4/2 
f 47/4/2 45/4/2 48/4/2 
f 49/1/2 50/1/2 51/1/2 
f 52/1/2 51/1/2 53/1/2 
f 51/1/2 50/1/2 54/1/2 
f 53/1/2 51/1/2 54/1/2 
f 53/2/2 54/2/2 55/2/2 
f 55/2/2 54/2/2 56/2/2 
f 53/2/2 55/2/2 57/2/2 
f 55/3/2 56/3/2 57/3/2 
f 56/2/2 54/2/2 58/2/2 
f 57/3/2 56/3/2 58/3/2 
f 53/2/2 57/2/2 59/2/2 
f 57/2/2 58/2/2 59/2/2 
f 58/2/2 54/2/2 60/2/2 
f 59/2/2 58/2/2 60/2/2 
f 36/3/3 23/3/3 25/3/3 
f 38/3/3 23/3/3 36/3/3 
f 24/2/3 11/2/3 4/2/3 
f 26/2/3 11/2/3 24/2/3 
f 29/2/3 11/2/3 26/2/3 
f 37/2/3 24/2/3 4/2/3 
f 39/2/3 27/2/3 29/2/3 
f 39/2/3 29/2/3 26/2/3 
f 40/2/3 27/2/3 39/2/3 
f 42/2/3 27/2/3 40/2/3 
f 52/1/3 4/1/3 5/1/3 
f 53/2/3 37/2/3 4/2/3 
f 53/1/3 4/1/3 52/1/3 
f 53/2/3 39/2/3 37/2/3 
f 53/2/3 40/2/3 39/2/3 
f 59/2/3 40/2/3 53/2/3 
f 49/1/3 1/1/3 3/1/3 
f 51/1/3 1/1/3 49/1/3 
f 44/4/3 13/4/3 15/4/3 
f 46/4/3 13/4/3 44/4/3 
f 31/5/3 18/5/3 20/5/3 
f 33/5/3 18/5/3 31/5/3 
f 2/1/4 6/1/4 13/1/4 
f 13/1/4 6/1/4 16/1/4 
f 6/2/4 12/2/4 28/2/4 
f 6/2/4 28/2/4 41/2/4 
f 28/2/4 30/2/4 41/2/4 
f 41/2/4 30/2/4 43/2/4 
f 16/1/4 6/1/4 47/1/4 
f 46/1/4 47/1/4 50/1/4 
f 6/2/4 41/2/4 54/2/4 
f 50/1/4 47/1/4 54/1/4 
f 47/1/4 6/1/4 54/1/4 
f 54/2/4 41/2/4 60/2/4 
f 14/4/4 17/4/4 18/4/4 
f 18/4/4 17/4/4 21/4/4 
f 21/4/4 17/4/4 34/4/4 
f 33/4/4 34/4/4 45/4/4 
f 34/4/4 17/4/4 48/4/4 
f 45/4/4 34/4/4 48/4/4 
f 19/5/4 22/5/4 32/5/4 
f 32/5/4 22/5/4 35/5/4 
f 19/5/5 31/5/5 20/5/5 
f 32/5/5 31/5/5 19/5/5 
f 14/4/5 44/4/5 15/4/5 
f 18/4/5 44/4/5 14/4/5 
f 33/4/5 44/4/5 18/4/5 
f 45/4/5 44/4/5 33/4/5 
f 2/1/5 49/1/5 3/1/5 
f 13/1/5 49/1/5 2/1/5 
f 46/1/5 49/1/5 13/1/5 
f 50/1/5 49/1/5 46/1/5 
f 1/1/5 52/1/5 5/1/5 
f 51/1/5 52/1/5 1/1/5 
f 24/3/5 36/3/5 25/3/5 
f 37/3/5 36/3/5 24/3/5 
f 21/5/6 34/5/6 22/5/6 
f 22/5/6 34/5/6 35/5/6 
f 16/4/6 47/4/6 17/4/6 
f 17/4/6 47/4/6 48/4/6 
f 23/3/6 38/3/6 26/3/6 
f 26/3/6 38/3/6 39/3/6 
f 11/2/6 29/2/6 12/2/6 
f 12/2/6 29/2/6 28/2/6 
f 40/2/6 59/2/6 41/2/6 
f 41/2/6 59/2/6 60/2/6 
f 27/2/6 42/2/6 30/2/6 
f 30/2/6 42/2/6 43/2/6 
# 116 faces

