# 3ds Max Wavefront OBJ Exporter v0.99 - (c)2007 guruware
# File Created: 16.04.2022 17:22:48

mtllib Bluebird_wings.mtl

#
# object Bluebird_wings
#

v  -0.7296 -0.0238 -0.0674
v  -0.7296 -0.1238 -0.4674
v  -0.7296 -0.1238 -0.0674
v  -0.7296 -0.0238 -0.4674
v  -0.6296 -0.1238 -0.0674
v  -0.6296 -0.2238 -0.3674
v  -0.6296 -0.2238 0.0326
v  -0.6296 -0.1238 -0.3674
v  -0.6296 -0.0238 -0.0674
v  -0.6296 0.0762 0.0326
v  -0.6296 -0.0238 -0.3674
v  -0.6296 0.0762 -0.3674
v  -0.5296 -0.2238 0.0326
v  -0.5296 -0.3238 -0.2674
v  -0.5296 -0.3238 0.1326
v  -0.5296 -0.2238 -0.2674
v  -0.5296 0.0762 0.0326
v  -0.5296 0.1762 0.1326
v  -0.5296 0.0762 -0.2674
v  -0.5296 0.1762 -0.2674
v  -0.4296 0.1762 0.1326
v  -0.4296 -0.3238 0.1326
v  -0.4296 -0.3238 0.2326
v  -0.4296 0.2762 0.2326
v  -0.4296 0.1762 -0.1674
v  -0.4296 0.2762 -0.1674
v  -0.3296 0.2762 0.2326
v  -0.3296 -0.3238 0.2326
v  -0.3296 -0.3238 0.3326
v  -0.3296 0.3762 0.3326
v  -0.3296 0.2762 -0.1674
v  -0.3296 0.3762 -0.1674
v  0.3704 0.3762 0.3326
v  0.3704 -0.3238 -0.1674
v  0.3704 -0.3238 0.3326
v  0.3704 0.3762 -0.1674
v  0.5704 0.1762 -0.1674
v  0.5704 -0.3238 -0.2674
v  0.5704 -0.3238 -0.1674
v  0.5704 0.1762 -0.2674
v  0.6704 0.0762 -0.2674
v  0.6704 -0.2238 -0.3674
v  0.6704 -0.2238 -0.2674
v  0.6704 0.0762 -0.3674
v  0.7704 -0.0238 -0.3674
v  0.7704 -0.1238 -0.4674
v  0.7704 -0.1238 -0.3674
v  0.7704 -0.0238 -0.4674
v  -0.6296 -0.1238 -0.4674
v  -0.6296 -0.0238 -0.4674
v  -0.5296 -0.2238 -0.3674
v  -0.5296 0.0762 -0.3674
v  -0.4296 -0.3238 -0.1674
v  -0.4296 -0.3238 -0.2674
v  -0.4296 0.1762 -0.2674
v  -0.2296 -0.3238 0.3326
v  -0.2296 -0.3238 -0.1674
v  -0.2296 0.3762 0.3326
v  -0.2296 0.3762 -0.1674
v  0.4704 -0.3238 0.3326
v  0.4704 -0.3238 0.2326
v  0.4704 0.2762 0.2326
v  0.4704 0.3762 0.3326
v  0.4704 0.2762 -0.1674
v  0.4704 0.3762 -0.1674
v  0.5704 -0.3238 0.2326
v  0.5704 -0.3238 0.1326
v  0.5704 0.1762 0.1326
v  0.5704 0.2762 0.2326
v  0.5704 0.2762 -0.1674
v  0.6704 -0.3238 0.1326
v  0.6704 -0.3238 -0.2674
v  0.6704 -0.2238 0.0326
v  0.6704 0.0762 0.0326
v  0.6704 0.1762 0.1326
v  0.6704 0.1762 -0.2674
v  0.7704 -0.2238 0.0326
v  0.7704 -0.2238 -0.3674
v  0.7704 -0.1238 -0.0674
v  0.7704 -0.0238 -0.0674
v  0.7704 0.0762 0.0326
v  0.7704 0.0762 -0.3674
v  0.8704 -0.1238 -0.0674
v  0.8704 -0.1238 -0.4674
v  0.8704 -0.0238 -0.0674
v  0.8704 -0.0238 -0.4674
v  -0.3296 -0.3238 -0.1674
v  0.4704 -0.3238 -0.1674
# 88 vertices

vn -1.0000 0.0000 -0.0000
vn 1.0000 0.0000 -0.0000
vn 0.0000 0.0000 1.0000
vn 0.0000 0.0000 -1.0000
vn 0.0000 -1.0000 -0.0000
vn 0.0000 1.0000 -0.0000
# 6 vertex normals

vt 0.9434 0.5000 0.0000
vt 0.8301 0.5000 0.0000
vt 0.8340 0.5000 0.0000
# 3 texture coords

o Bluebird_wings
g Bluebird_wings
usemtl Bluebird_wings_palette
s 1
f 1/1/1 2/1/1 3/1/1 
f 4/1/1 2/1/1 1/1/1 
f 5/2/1 6/2/1 7/2/1 
f 8/2/1 6/2/1 5/2/1 
f 9/2/1 5/2/1 7/2/1 
f 10/2/1 9/2/1 7/2/1 
f 10/2/1 11/2/1 9/2/1 
f 12/2/1 11/2/1 10/2/1 
f 13/3/1 14/3/1 15/3/1 
f 16/3/1 14/3/1 13/3/1 
f 17/3/1 13/3/1 15/3/1 
f 18/3/1 17/3/1 15/3/1 
f 18/3/1 19/3/1 17/3/1 
f 20/3/1 19/3/1 18/3/1 
f 21/2/1 22/2/1 23/2/1 
f 24/2/1 21/2/1 23/2/1 
f 24/2/1 25/2/1 21/2/1 
f 26/2/1 25/2/1 24/2/1 
f 27/3/1 28/3/1 29/3/1 
f 30/3/1 27/3/1 29/3/1 
f 30/3/1 31/3/1 27/3/1 
f 32/3/1 31/3/1 30/3/1 
f 33/3/1 34/3/1 35/3/1 
f 36/3/1 34/3/1 33/3/1 
f 37/3/1 38/3/1 39/3/1 
f 40/3/1 38/3/1 37/3/1 
f 41/2/1 42/2/1 43/2/1 
f 44/2/1 42/2/1 41/2/1 
f 45/1/1 46/1/1 47/1/1 
f 48/1/1 46/1/1 45/1/1 
f 8/1/2 49/1/2 11/1/2 
f 11/1/2 49/1/2 50/1/2 
f 16/2/2 51/2/2 19/2/2 
f 19/2/2 51/2/2 52/2/2 
f 53/3/2 54/3/2 25/3/2 
f 25/3/2 54/3/2 55/3/2 
f 56/3/2 57/3/2 58/3/2 
f 58/3/2 57/3/2 59/3/2 
f 60/3/2 61/3/2 62/3/2 
f 60/3/2 62/3/2 63/3/2 
f 62/3/2 64/3/2 63/3/2 
f 63/3/2 64/3/2 65/3/2 
f 66/2/2 67/2/2 68/2/2 
f 66/2/2 68/2/2 69/2/2 
f 68/2/2 37/2/2 69/2/2 
f 69/2/2 37/2/2 70/2/2 
f 71/3/2 72/3/2 73/3/2 
f 73/3/2 72/3/2 43/3/2 
f 71/3/2 73/3/2 74/3/2 
f 71/3/2 74/3/2 75/3/2 
f 74/3/2 41/3/2 75/3/2 
f 75/3/2 41/3/2 76/3/2 
f 77/2/2 78/2/2 79/2/2 
f 79/2/2 78/2/2 47/2/2 
f 77/2/2 79/2/2 80/2/2 
f 77/2/2 80/2/2 81/2/2 
f 80/2/2 45/2/2 81/2/2 
f 81/2/2 45/2/2 82/2/2 
f 83/1/2 84/1/2 85/1/2 
f 85/1/2 84/1/2 86/1/2 
f 56/3/3 30/3/3 29/3/3 
f 58/3/3 30/3/3 56/3/3 
f 60/3/3 33/3/3 35/3/3 
f 63/3/3 33/3/3 60/3/3 
f 28/2/3 24/2/3 23/2/3 
f 27/2/3 24/2/3 28/2/3 
f 66/2/3 62/2/3 61/2/3 
f 69/2/3 62/2/3 66/2/3 
f 22/3/3 18/3/3 15/3/3 
f 21/3/3 18/3/3 22/3/3 
f 71/3/3 68/3/3 67/3/3 
f 75/3/3 68/3/3 71/3/3 
f 13/2/3 10/2/3 7/2/3 
f 17/2/3 10/2/3 13/2/3 
f 77/2/3 74/2/3 73/2/3 
f 81/2/3 74/2/3 77/2/3 
f 5/1/3 1/1/3 3/1/3 
f 9/1/3 1/1/3 5/1/3 
f 83/1/3 80/1/3 79/1/3 
f 85/1/3 80/1/3 83/1/3 
f 53/2/4 25/2/4 87/2/4 
f 25/2/4 26/2/4 87/2/4 
f 87/2/4 26/2/4 31/2/4 
f 87/3/4 31/3/4 57/3/4 
f 31/3/4 32/3/4 57/3/4 
f 57/3/4 32/3/4 59/3/4 
f 34/3/4 36/3/4 88/3/4 
f 88/3/4 36/3/4 64/3/4 
f 64/3/4 36/3/4 65/3/4 
f 88/2/4 64/2/4 39/2/4 
f 39/2/4 64/2/4 37/2/4 
f 37/2/4 64/2/4 70/2/4 
f 14/3/4 16/3/4 54/3/4 
f 19/3/4 20/3/4 54/3/4 
f 16/3/4 19/3/4 54/3/4 
f 54/3/4 20/3/4 55/3/4 
f 38/3/4 40/3/4 72/3/4 
f 72/3/4 40/3/4 43/3/4 
f 43/3/4 40/3/4 41/3/4 
f 41/3/4 40/3/4 76/3/4 
f 6/2/4 8/2/4 51/2/4 
f 11/2/4 12/2/4 51/2/4 
f 8/2/4 11/2/4 51/2/4 
f 51/2/4 12/2/4 52/2/4 
f 42/2/4 44/2/4 78/2/4 
f 78/2/4 44/2/4 47/2/4 
f 47/2/4 44/2/4 45/2/4 
f 45/2/4 44/2/4 82/2/4 
f 2/1/4 4/1/4 49/1/4 
f 49/1/4 4/1/4 50/1/4 
f 46/1/4 48/1/4 84/1/4 
f 84/1/4 48/1/4 86/1/4 
f 28/3/5 56/3/5 29/3/5 
f 61/3/5 60/3/5 35/3/5 
f 22/2/5 28/2/5 23/2/5 
f 67/2/5 66/2/5 61/2/5 
f 53/3/5 22/3/5 15/3/5 
f 53/2/5 28/2/5 22/2/5 
f 87/3/5 56/3/5 28/3/5 
f 87/2/5 28/2/5 53/2/5 
f 57/3/5 56/3/5 87/3/5 
f 34/3/5 61/3/5 35/3/5 
f 88/2/5 67/2/5 61/2/5 
f 88/3/5 61/3/5 34/3/5 
f 39/3/5 71/3/5 67/3/5 
f 39/2/5 67/2/5 88/2/5 
f 14/3/5 53/3/5 15/3/5 
f 54/3/5 53/3/5 14/3/5 
f 38/3/5 71/3/5 39/3/5 
f 72/3/5 71/3/5 38/3/5 
f 16/2/5 13/2/5 7/2/5 
f 43/2/5 77/2/5 73/2/5 
f 6/2/5 16/2/5 7/2/5 
f 51/2/5 16/2/5 6/2/5 
f 42/2/5 77/2/5 43/2/5 
f 78/2/5 77/2/5 42/2/5 
f 8/1/5 5/1/5 3/1/5 
f 47/1/5 83/1/5 79/1/5 
f 2/1/5 8/1/5 3/1/5 
f 49/1/5 8/1/5 2/1/5 
f 46/1/5 83/1/5 47/1/5 
f 84/1/5 83/1/5 46/1/5 
f 1/1/6 9/1/6 11/1/6 
f 80/1/6 85/1/6 45/1/6 
f 1/1/6 11/1/6 4/1/6 
f 4/1/6 11/1/6 50/1/6 
f 45/1/6 85/1/6 48/1/6 
f 48/1/6 85/1/6 86/1/6 
f 10/2/6 17/2/6 19/2/6 
f 74/2/6 81/2/6 41/2/6 
f 10/2/6 19/2/6 12/2/6 
f 12/2/6 19/2/6 52/2/6 
f 41/2/6 81/2/6 44/2/6 
f 44/2/6 81/2/6 82/2/6 
f 18/3/6 21/3/6 25/3/6 
f 68/3/6 75/3/6 37/3/6 
f 18/3/6 25/3/6 20/3/6 
f 20/3/6 25/3/6 55/3/6 
f 37/3/6 75/3/6 40/3/6 
f 40/3/6 75/3/6 76/3/6 
f 24/2/6 27/2/6 26/2/6 
f 26/2/6 27/2/6 31/2/6 
f 62/2/6 69/2/6 64/2/6 
f 64/2/6 69/2/6 70/2/6 
f 30/3/6 58/3/6 32/3/6 
f 32/3/6 58/3/6 59/3/6 
f 33/3/6 63/3/6 36/3/6 
f 36/3/6 63/3/6 65/3/6 
# 168 faces

