# MagicaVoxel @ Ephtracy

# group
o 

# material
mtllib semaforo_top.mtl
usemtl palette

# normals
vn -1 0 0
vn 1 0 0
vn 0 0 1
vn 0 0 -1
vn 0 -1 0
vn 0 1 0

# texcoords
vt 0.0136719 0.5
vt 0.748047 0.5
vt 0.841797 0.5
vt 0.982422 0.5
vt 0.990234 0.5

# verts
v -1.1 1.8 -1
v -1.1 1.8 -1.1
v -1.1 1.8 -2
v -1.1 4.3 -1
v -1.1 4.3 -1.1
v -1.1 4.3 -2
v 0.5 1.8 -1
v 0.5 1.8 -1.1
v 0.5 1.8 -2
v 0.5 4.3 -1
v 0.5 4.3 -1.1
v 0.5 4.3 -2
v -1.1 1.8 -1
v -1.1 4.3 -1
v -1 1.9 -1
v -1 4.2 -1
v -0.5 2.1 -1
v -0.5 2.4 -1
v -0.5 2.9 -1
v -0.5 3.2 -1
v -0.5 3.7 -1
v -0.5 4 -1
v -0.4 2 -1
v -0.4 2.1 -1
v -0.4 2.4 -1
v -0.4 2.5 -1
v -0.4 2.8 -1
v -0.4 2.9 -1
v -0.4 3.2 -1
v -0.4 3.3 -1
v -0.4 3.6 -1
v -0.4 3.7 -1
v -0.4 4 -1
v -0.4 4.1 -1
v -0.1 2 -1
v -0.1 2.1 -1
v -0.1 2.4 -1
v -0.1 2.5 -1
v -0.1 2.8 -1
v -0.1 2.9 -1
v -0.1 3.2 -1
v -0.1 3.3 -1
v -0.1 3.6 -1
v -0.1 3.7 -1
v -0.1 4 -1
v -0.1 4.1 -1
v 0 2.1 -1
v 0 2.4 -1
v 0 2.9 -1
v 0 3.2 -1
v 0 3.7 -1
v 0 4 -1
v 0.4 1.9 -1
v 0.4 4.2 -1
v 0.5 1.8 -1
v 0.5 4.3 -1
v -1.1 1.8 -2
v -1.1 4.3 -2
v 0.5 1.8 -2
v 0.5 4.3 -2
v -1.1 1.8 -1
v 0.5 1.8 -1
v -1.1 1.8 -1.1
v 0.5 1.8 -1.1
v -1.1 1.8 -2
v 0.5 1.8 -2
v -1.1 4.3 -1
v 0.5 4.3 -1
v -1.1 4.3 -1.1
v 0.5 4.3 -1.1
v -1.1 4.3 -2
v 0.5 4.3 -2

# faces
f 4/4/1 2/4/1 1/4/1
f 5/5/1 3/5/1 2/5/1
f 5/4/1 2/4/1 4/4/1
f 6/5/1 3/5/1 5/5/1
f 7/4/2 8/4/2 10/4/2
f 8/5/2 9/5/2 11/5/2
f 10/4/2 8/4/2 11/4/2
f 11/5/2 9/5/2 12/5/2
f 15/4/3 14/4/3 13/4/3
f 16/4/3 14/4/3 15/4/3
f 17/5/3 16/5/3 15/5/3
f 18/5/3 16/5/3 17/5/3
f 19/5/3 16/5/3 18/5/3
f 20/5/3 16/5/3 19/5/3
f 21/5/3 16/5/3 20/5/3
f 22/5/3 16/5/3 21/5/3
f 23/5/3 17/5/3 15/5/3
f 24/3/3 18/3/3 17/3/3
f 24/5/3 17/5/3 23/5/3
f 25/5/3 19/5/3 18/5/3
f 25/3/3 18/3/3 24/3/3
f 26/5/3 19/5/3 25/5/3
f 27/5/3 19/5/3 26/5/3
f 28/1/3 20/1/3 19/1/3
f 28/5/3 19/5/3 27/5/3
f 29/5/3 21/5/3 20/5/3
f 29/1/3 20/1/3 28/1/3
f 30/5/3 21/5/3 29/5/3
f 31/5/3 21/5/3 30/5/3
f 32/2/3 22/2/3 21/2/3
f 32/5/3 21/5/3 31/5/3
f 33/5/3 16/5/3 22/5/3
f 33/2/3 22/2/3 32/2/3
f 34/5/3 16/5/3 33/5/3
f 35/5/3 23/5/3 15/5/3
f 35/3/3 24/3/3 23/3/3
f 35/3/3 25/3/3 24/3/3
f 35/3/3 26/3/3 25/3/3
f 36/3/3 26/3/3 35/3/3
f 37/3/3 26/3/3 36/3/3
f 38/5/3 27/5/3 26/5/3
f 38/3/3 26/3/3 37/3/3
f 39/1/3 28/1/3 27/1/3
f 39/5/3 27/5/3 38/5/3
f 39/1/3 30/1/3 29/1/3
f 39/1/3 29/1/3 28/1/3
f 40/1/3 30/1/3 39/1/3
f 41/1/3 30/1/3 40/1/3
f 42/5/3 31/5/3 30/5/3
f 42/1/3 30/1/3 41/1/3
f 43/2/3 32/2/3 31/2/3
f 43/5/3 31/5/3 42/5/3
f 43/2/3 34/2/3 33/2/3
f 43/2/3 33/2/3 32/2/3
f 44/2/3 34/2/3 43/2/3
f 45/2/3 34/2/3 44/2/3
f 46/5/3 16/5/3 34/5/3
f 46/2/3 34/2/3 45/2/3
f 47/3/3 37/3/3 36/3/3
f 47/5/3 36/5/3 35/5/3
f 48/5/3 40/5/3 39/5/3
f 48/3/3 37/3/3 47/3/3
f 48/5/3 38/5/3 37/5/3
f 48/5/3 39/5/3 38/5/3
f 49/1/3 41/1/3 40/1/3
f 49/5/3 40/5/3 48/5/3
f 50/5/3 42/5/3 41/5/3
f 50/1/3 41/1/3 49/1/3
f 50/5/3 44/5/3 43/5/3
f 50/5/3 43/5/3 42/5/3
f 51/2/3 45/2/3 44/2/3
f 51/5/3 44/5/3 50/5/3
f 52/5/3 46/5/3 45/5/3
f 52/2/3 45/2/3 51/2/3
f 53/4/3 15/4/3 13/4/3
f 53/5/3 49/5/3 48/5/3
f 53/5/3 52/5/3 51/5/3
f 53/5/3 51/5/3 50/5/3
f 53/5/3 48/5/3 47/5/3
f 53/5/3 35/5/3 15/5/3
f 53/5/3 50/5/3 49/5/3
f 53/5/3 47/5/3 35/5/3
f 54/5/3 46/5/3 52/5/3
f 54/5/3 52/5/3 53/5/3
f 54/4/3 14/4/3 16/4/3
f 54/5/3 16/5/3 46/5/3
f 55/4/3 53/4/3 13/4/3
f 55/4/3 54/4/3 53/4/3
f 56/4/3 14/4/3 54/4/3
f 56/4/3 54/4/3 55/4/3
f 57/5/4 58/5/4 59/5/4
f 59/5/4 58/5/4 60/5/4
f 63/4/5 62/4/5 61/4/5
f 64/4/5 62/4/5 63/4/5
f 65/5/5 64/5/5 63/5/5
f 66/5/5 64/5/5 65/5/5
f 67/4/6 68/4/6 69/4/6
f 69/4/6 68/4/6 70/4/6
f 69/5/6 70/5/6 71/5/6
f 71/5/6 70/5/6 72/5/6
