# 3ds Max Wavefront OBJ Exporter v0.99 - (c)2007 guruware
# File Created: 16.04.2022 17:19:31

mtllib banca.mtl

#
# object banca
#

v  -1.5000 0.2484 0.3763
v  -1.5000 0.0484 0.1763
v  -1.5000 0.0484 0.3763
v  -1.5000 0.2484 0.1763
v  -1.5000 0.2484 -0.5237
v  -1.5000 0.0484 -0.7237
v  -1.5000 0.0484 -0.5237
v  -1.5000 0.2484 -0.7237
v  -1.5000 0.3484 0.3763
v  -1.5000 0.3484 0.1763
v  -1.5000 0.3484 -0.5237
v  -1.5000 0.3484 -0.7237
v  -1.5000 0.5484 0.3763
v  -1.5000 0.5484 0.1763
v  -1.5000 0.5484 -0.5237
v  -1.5000 0.5484 -0.7237
v  -1.5000 0.6484 0.3763
v  -1.5000 0.6484 0.2763
v  -1.5000 0.6484 0.1763
v  -1.5000 0.6484 -0.5237
v  -1.5000 0.6484 -0.7237
v  -1.5000 0.7484 0.3763
v  -1.5000 0.7484 0.2763
v  -1.5000 0.7484 0.1763
v  -1.5000 0.6484 -0.0237
v  -1.5000 0.7484 -0.0237
v  -1.5000 0.6484 -0.1237
v  -1.5000 0.7484 -0.1237
v  -1.5000 0.6484 -0.3237
v  -1.5000 0.7484 -0.3237
v  -1.5000 0.6484 -0.4237
v  -1.5000 0.7484 -0.4237
v  -1.5000 0.7484 -0.6237
v  -1.5000 0.7484 -0.7237
v  -1.5000 0.8484 -0.6237
v  -1.5000 0.8484 -0.7237
v  -1.5000 1.0484 -0.6237
v  -1.5000 1.0484 -0.7237
v  -1.5000 1.1484 -0.6237
v  -1.5000 1.1484 -0.7237
v  -1.5000 1.3484 -0.6237
v  -1.5000 1.3484 -0.7237
v  -1.5000 1.4484 -0.6237
v  -1.5000 1.4484 -0.7237
v  -1.5000 1.6484 -0.6237
v  -1.5000 1.6484 -0.7237
v  -1.5000 1.7484 -0.6237
v  -1.5000 1.7484 -0.7237
v  1.3000 0.2484 0.3763
v  1.3000 0.0484 0.1763
v  1.3000 0.0484 0.3763
v  1.3000 0.2484 0.1763
v  1.3000 0.2484 -0.5237
v  1.3000 0.0484 -0.7237
v  1.3000 0.0484 -0.5237
v  1.3000 0.2484 -0.7237
v  1.3000 0.3484 0.3763
v  1.3000 0.3484 0.1763
v  1.3000 0.3484 -0.5237
v  1.3000 0.3484 -0.7237
v  1.3000 0.5484 0.3763
v  1.3000 0.5484 0.1763
v  1.3000 0.5484 -0.5237
v  1.3000 0.5484 -0.7237
v  1.3000 0.6484 0.3763
v  1.3000 0.6484 0.2763
v  1.3000 0.6484 0.1763
v  1.3000 0.6484 -0.5237
v  1.3000 0.6484 -0.7237
v  -1.3000 0.0484 0.3763
v  -1.3000 0.0484 0.1763
v  -1.3000 0.2484 0.3763
v  -1.3000 0.2484 0.1763
v  -1.3000 0.0484 -0.5237
v  -1.3000 0.0484 -0.7237
v  -1.3000 0.2484 -0.5237
v  -1.3000 0.2484 -0.7237
v  -1.3000 0.3484 0.3763
v  -1.3000 0.3484 0.1763
v  -1.3000 0.3484 -0.5237
v  -1.3000 0.3484 -0.7237
v  -1.3000 0.5484 0.3763
v  -1.3000 0.5484 0.1763
v  -1.3000 0.5484 -0.5237
v  -1.3000 0.5484 -0.7237
v  -1.3000 0.6484 0.3763
v  -1.3000 0.6484 0.2763
v  -1.3000 0.6484 0.1763
v  -1.3000 0.6484 -0.5237
v  -1.3000 0.6484 -0.7237
v  1.5000 0.0484 0.3763
v  1.5000 0.0484 0.1763
v  1.5000 0.2484 0.3763
v  1.5000 0.2484 0.1763
v  1.5000 0.0484 -0.5237
v  1.5000 0.0484 -0.7237
v  1.5000 0.2484 -0.5237
v  1.5000 0.2484 -0.7237
v  1.5000 0.3484 0.3763
v  1.5000 0.3484 0.1763
v  1.5000 0.3484 -0.5237
v  1.5000 0.3484 -0.7237
v  1.5000 0.5484 0.3763
v  1.5000 0.5484 0.1763
v  1.5000 0.5484 -0.5237
v  1.5000 0.5484 -0.7237
v  1.5000 0.6484 0.3763
v  1.5000 0.6484 0.2763
v  1.5000 0.6484 0.1763
v  1.5000 0.6484 -0.5237
v  1.5000 0.6484 -0.7237
v  1.5000 0.7484 0.3763
v  1.5000 0.7484 0.2763
v  1.5000 0.6484 -0.0237
v  1.5000 0.7484 0.1763
v  1.5000 0.6484 -0.1237
v  1.5000 0.7484 -0.0237
v  1.5000 0.6484 -0.3237
v  1.5000 0.7484 -0.1237
v  1.5000 0.6484 -0.4237
v  1.5000 0.7484 -0.3237
v  1.5000 0.7484 -0.4237
v  1.5000 0.7484 -0.6237
v  1.5000 0.7484 -0.7237
v  1.5000 0.8484 -0.6237
v  1.5000 0.8484 -0.7237
v  1.5000 1.0484 -0.6237
v  1.5000 1.0484 -0.7237
v  1.5000 1.1484 -0.6237
v  1.5000 1.1484 -0.7237
v  1.5000 1.3484 -0.6237
v  1.5000 1.3484 -0.7237
v  1.5000 1.4484 -0.6237
v  1.5000 1.4484 -0.7237
v  1.5000 1.6484 -0.6237
v  1.5000 1.6484 -0.7237
v  1.5000 1.7484 -0.6237
v  1.5000 1.7484 -0.7237
# 138 vertices

vn -1.0000 0.0000 -0.0000
vn 1.0000 0.0000 -0.0000
vn 0.0000 0.0000 1.0000
vn 0.0000 0.0000 -1.0000
vn 0.0000 -1.0000 -0.0000
vn 0.0000 1.0000 -0.0000
# 6 vertex normals

vt 0.0645 0.5000 0.0000
vt 0.0684 0.5000 0.0000
# 2 texture coords

o banca
g banca
usemtl banca_palette
s 1
f 1/1/1 2/1/1 3/1/1 
f 4/1/1 2/1/1 1/1/1 
f 5/1/1 6/1/1 7/1/1 
f 8/1/1 6/1/1 5/1/1 
f 9/2/1 4/2/1 1/2/1 
f 10/2/1 4/2/1 9/2/1 
f 11/2/1 8/2/1 5/2/1 
f 12/2/1 8/2/1 11/2/1 
f 13/1/1 10/1/1 9/1/1 
f 14/1/1 10/1/1 13/1/1 
f 15/1/1 12/1/1 11/1/1 
f 16/1/1 12/1/1 15/1/1 
f 17/2/1 14/2/1 13/2/1 
f 18/2/1 14/2/1 17/2/1 
f 19/2/1 14/2/1 18/2/1 
f 20/2/1 16/2/1 15/2/1 
f 21/2/1 16/2/1 20/2/1 
f 22/1/1 18/1/1 17/1/1 
f 23/2/1 19/2/1 18/2/1 
f 23/1/1 18/1/1 22/1/1 
f 24/1/1 25/1/1 19/1/1 
f 24/2/1 19/2/1 23/2/1 
f 26/2/1 27/2/1 25/2/1 
f 26/1/1 25/1/1 24/1/1 
f 28/1/1 29/1/1 27/1/1 
f 28/2/1 27/2/1 26/2/1 
f 30/2/1 31/2/1 29/2/1 
f 30/1/1 29/1/1 28/1/1 
f 32/1/1 20/1/1 31/1/1 
f 32/2/1 31/2/1 30/2/1 
f 32/1/1 21/1/1 20/1/1 
f 33/1/1 21/1/1 32/1/1 
f 34/1/1 21/1/1 33/1/1 
f 35/2/1 34/2/1 33/2/1 
f 36/2/1 34/2/1 35/2/1 
f 37/1/1 36/1/1 35/1/1 
f 38/1/1 36/1/1 37/1/1 
f 39/2/1 38/2/1 37/2/1 
f 40/2/1 38/2/1 39/2/1 
f 41/1/1 40/1/1 39/1/1 
f 42/1/1 40/1/1 41/1/1 
f 43/2/1 42/2/1 41/2/1 
f 44/2/1 42/2/1 43/2/1 
f 45/1/1 44/1/1 43/1/1 
f 46/1/1 44/1/1 45/1/1 
f 47/2/1 46/2/1 45/2/1 
f 48/2/1 46/2/1 47/2/1 
f 49/1/1 50/1/1 51/1/1 
f 52/1/1 50/1/1 49/1/1 
f 53/1/1 54/1/1 55/1/1 
f 56/1/1 54/1/1 53/1/1 
f 57/2/1 52/2/1 49/2/1 
f 58/2/1 52/2/1 57/2/1 
f 59/2/1 56/2/1 53/2/1 
f 60/2/1 56/2/1 59/2/1 
f 61/1/1 58/1/1 57/1/1 
f 62/1/1 58/1/1 61/1/1 
f 63/1/1 60/1/1 59/1/1 
f 64/1/1 60/1/1 63/1/1 
f 65/2/1 62/2/1 61/2/1 
f 66/2/1 62/2/1 65/2/1 
f 67/2/1 62/2/1 66/2/1 
f 68/2/1 64/2/1 63/2/1 
f 69/2/1 64/2/1 68/2/1 
f 70/1/2 71/1/2 72/1/2 
f 72/1/2 71/1/2 73/1/2 
f 74/1/2 75/1/2 76/1/2 
f 76/1/2 75/1/2 77/1/2 
f 72/2/2 73/2/2 78/2/2 
f 78/2/2 73/2/2 79/2/2 
f 76/2/2 77/2/2 80/2/2 
f 80/2/2 77/2/2 81/2/2 
f 78/1/2 79/1/2 82/1/2 
f 82/1/2 79/1/2 83/1/2 
f 80/1/2 81/1/2 84/1/2 
f 84/1/2 81/1/2 85/1/2 
f 82/2/2 83/2/2 86/2/2 
f 86/2/2 83/2/2 87/2/2 
f 87/2/2 83/2/2 88/2/2 
f 84/2/2 85/2/2 89/2/2 
f 89/2/2 85/2/2 90/2/2 
f 91/1/2 92/1/2 93/1/2 
f 93/1/2 92/1/2 94/1/2 
f 95/1/2 96/1/2 97/1/2 
f 97/1/2 96/1/2 98/1/2 
f 93/2/2 94/2/2 99/2/2 
f 99/2/2 94/2/2 100/2/2 
f 97/2/2 98/2/2 101/2/2 
f 101/2/2 98/2/2 102/2/2 
f 99/1/2 100/1/2 103/1/2 
f 103/1/2 100/1/2 104/1/2 
f 101/1/2 102/1/2 105/1/2 
f 105/1/2 102/1/2 106/1/2 
f 103/2/2 104/2/2 107/2/2 
f 107/2/2 104/2/2 108/2/2 
f 108/2/2 104/2/2 109/2/2 
f 105/2/2 106/2/2 110/2/2 
f 110/2/2 106/2/2 111/2/2 
f 107/1/2 108/1/2 112/1/2 
f 108/2/2 109/2/2 113/2/2 
f 112/1/2 108/1/2 113/1/2 
f 109/1/2 114/1/2 115/1/2 
f 113/2/2 109/2/2 115/2/2 
f 114/2/2 116/2/2 117/2/2 
f 115/1/2 114/1/2 117/1/2 
f 116/1/2 118/1/2 119/1/2 
f 117/2/2 116/2/2 119/2/2 
f 118/2/2 120/2/2 121/2/2 
f 119/1/2 118/1/2 121/1/2 
f 120/1/2 110/1/2 122/1/2 
f 121/2/2 120/2/2 122/2/2 
f 110/1/2 111/1/2 122/1/2 
f 122/1/2 111/1/2 123/1/2 
f 123/1/2 111/1/2 124/1/2 
f 123/2/2 124/2/2 125/2/2 
f 125/2/2 124/2/2 126/2/2 
f 125/1/2 126/1/2 127/1/2 
f 127/1/2 126/1/2 128/1/2 
f 127/2/2 128/2/2 129/2/2 
f 129/2/2 128/2/2 130/2/2 
f 129/1/2 130/1/2 131/1/2 
f 131/1/2 130/1/2 132/1/2 
f 131/2/2 132/2/2 133/2/2 
f 133/2/2 132/2/2 134/2/2 
f 133/1/2 134/1/2 135/1/2 
f 135/1/2 134/1/2 136/1/2 
f 135/2/2 136/2/2 137/2/2 
f 137/2/2 136/2/2 138/2/2 
f 70/1/3 1/1/3 3/1/3 
f 72/2/3 9/2/3 1/2/3 
f 72/1/3 1/1/3 70/1/3 
f 78/1/3 13/1/3 9/1/3 
f 78/2/3 9/2/3 72/2/3 
f 82/2/3 17/2/3 13/2/3 
f 82/1/3 13/1/3 78/1/3 
f 86/1/3 22/1/3 17/1/3 
f 86/2/3 17/2/3 82/2/3 
f 65/1/3 22/1/3 86/1/3 
f 91/1/3 49/1/3 51/1/3 
f 93/2/3 57/2/3 49/2/3 
f 93/1/3 49/1/3 91/1/3 
f 99/1/3 61/1/3 57/1/3 
f 99/2/3 57/2/3 93/2/3 
f 103/2/3 65/2/3 61/2/3 
f 103/1/3 61/1/3 99/1/3 
f 107/1/3 22/1/3 65/1/3 
f 107/2/3 65/2/3 103/2/3 
f 112/1/3 22/1/3 107/1/3 
f 74/1/3 5/1/3 7/1/3 
f 76/2/3 11/2/3 5/2/3 
f 76/1/3 5/1/3 74/1/3 
f 80/1/3 15/1/3 11/1/3 
f 80/2/3 11/2/3 76/2/3 
f 84/2/3 20/2/3 15/2/3 
f 84/1/3 15/1/3 80/1/3 
f 89/2/3 20/2/3 84/2/3 
f 95/1/3 53/1/3 55/1/3 
f 97/2/3 59/2/3 53/2/3 
f 97/1/3 53/1/3 95/1/3 
f 101/1/3 63/1/3 59/1/3 
f 101/2/3 59/2/3 97/2/3 
f 105/2/3 68/2/3 63/2/3 
f 105/1/3 63/1/3 101/1/3 
f 110/2/3 68/2/3 105/2/3 
f 123/2/3 35/2/3 33/2/3 
f 125/1/3 37/1/3 35/1/3 
f 125/2/3 35/2/3 123/2/3 
f 127/2/3 39/2/3 37/2/3 
f 127/1/3 37/1/3 125/1/3 
f 129/1/3 41/1/3 39/1/3 
f 129/2/3 39/2/3 127/2/3 
f 131/2/3 43/2/3 41/2/3 
f 131/1/3 41/1/3 129/1/3 
f 133/1/3 45/1/3 43/1/3 
f 133/2/3 43/2/3 131/2/3 
f 135/2/3 47/2/3 45/2/3 
f 135/1/3 45/1/3 133/1/3 
f 137/2/3 47/2/3 135/2/3 
f 2/1/4 4/1/4 71/1/4 
f 4/2/4 10/2/4 73/2/4 
f 71/1/4 4/1/4 73/1/4 
f 10/1/4 14/1/4 79/1/4 
f 73/2/4 10/2/4 79/2/4 
f 14/2/4 19/2/4 83/2/4 
f 79/1/4 14/1/4 83/1/4 
f 83/2/4 19/2/4 88/2/4 
f 50/1/4 52/1/4 92/1/4 
f 52/2/4 58/2/4 94/2/4 
f 92/1/4 52/1/4 94/1/4 
f 58/1/4 62/1/4 100/1/4 
f 94/2/4 58/2/4 100/2/4 
f 62/2/4 67/2/4 104/2/4 
f 100/1/4 62/1/4 104/1/4 
f 104/2/4 67/2/4 109/2/4 
f 6/1/4 8/1/4 75/1/4 
f 8/2/4 12/2/4 77/2/4 
f 75/1/4 8/1/4 77/1/4 
f 12/1/4 16/1/4 81/1/4 
f 77/2/4 12/2/4 81/2/4 
f 16/2/4 21/2/4 85/2/4 
f 81/1/4 16/1/4 85/1/4 
f 21/1/4 34/1/4 90/1/4 
f 85/2/4 21/2/4 90/2/4 
f 90/1/4 34/1/4 69/1/4 
f 54/1/4 56/1/4 96/1/4 
f 56/2/4 60/2/4 98/2/4 
f 96/1/4 56/1/4 98/1/4 
f 60/1/4 64/1/4 102/1/4 
f 98/2/4 60/2/4 102/2/4 
f 64/2/4 69/2/4 106/2/4 
f 102/1/4 64/1/4 106/1/4 
f 69/1/4 34/1/4 111/1/4 
f 106/2/4 69/2/4 111/2/4 
f 34/2/4 36/2/4 124/2/4 
f 111/1/4 34/1/4 124/1/4 
f 36/1/4 38/1/4 126/1/4 
f 124/2/4 36/2/4 126/2/4 
f 38/2/4 40/2/4 128/2/4 
f 126/1/4 38/1/4 128/1/4 
f 40/1/4 42/1/4 130/1/4 
f 128/2/4 40/2/4 130/2/4 
f 42/2/4 44/2/4 132/2/4 
f 130/1/4 42/1/4 132/1/4 
f 44/1/4 46/1/4 134/1/4 
f 132/2/4 44/2/4 134/2/4 
f 46/2/4 48/2/4 136/2/4 
f 134/1/4 46/1/4 136/1/4 
f 136/2/4 48/2/4 138/2/4 
f 2/1/5 70/1/5 3/1/5 
f 71/1/5 70/1/5 2/1/5 
f 50/1/5 91/1/5 51/1/5 
f 92/1/5 91/1/5 50/1/5 
f 6/1/5 74/1/5 7/1/5 
f 75/1/5 74/1/5 6/1/5 
f 54/1/5 95/1/5 55/1/5 
f 96/1/5 95/1/5 54/1/5 
f 87/1/5 65/1/5 86/1/5 
f 66/1/5 65/1/5 87/1/5 
f 88/2/5 66/2/5 87/2/5 
f 67/2/5 66/2/5 88/2/5 
f 25/1/5 67/1/5 88/1/5 
f 25/1/5 109/1/5 67/1/5 
f 25/1/5 88/1/5 19/1/5 
f 114/1/5 109/1/5 25/1/5 
f 27/2/5 114/2/5 25/2/5 
f 116/2/5 114/2/5 27/2/5 
f 29/1/5 116/1/5 27/1/5 
f 118/1/5 116/1/5 29/1/5 
f 31/2/5 118/2/5 29/2/5 
f 120/2/5 118/2/5 31/2/5 
f 20/1/5 120/1/5 31/1/5 
f 89/1/5 120/1/5 20/1/5 
f 68/1/5 120/1/5 89/1/5 
f 110/1/5 120/1/5 68/1/5 
f 90/1/5 68/1/5 89/1/5 
f 69/1/5 68/1/5 90/1/5 
f 22/1/6 112/1/6 23/1/6 
f 23/1/6 112/1/6 113/1/6 
f 23/2/6 113/2/6 24/2/6 
f 24/2/6 113/2/6 115/2/6 
f 24/1/6 115/1/6 26/1/6 
f 26/1/6 115/1/6 117/1/6 
f 26/2/6 117/2/6 28/2/6 
f 28/2/6 117/2/6 119/2/6 
f 28/1/6 119/1/6 30/1/6 
f 30/1/6 119/1/6 121/1/6 
f 30/2/6 121/2/6 32/2/6 
f 32/2/6 121/2/6 122/2/6 
f 32/1/6 122/1/6 33/1/6 
f 33/1/6 122/1/6 123/1/6 
f 47/2/6 137/2/6 48/2/6 
f 48/2/6 137/2/6 138/2/6 
# 272 faces

