# MagicaVoxel @ Ephtracy

# group
o 

# material
mtllib Bluebird_wings.mtl
usemtl palette

# normals
vn -1 0 0
vn 1 0 0
vn 0 0 1
vn 0 0 -1
vn 0 -1 0
vn 0 1 0

# texcoords
vt 0.830078 0.5
vt 0.833984 0.5
vt 0.943359 0.5

# verts
v -1 1 -0.5
v -1 1 -0.9
v -1 1.1 -0.5
v -1 1.1 -0.9
v -0.9 0.9 -0.4
v -0.9 0.9 -0.8
v -0.9 1 -0.5
v -0.9 1 -0.8
v -0.9 1.1 -0.5
v -0.9 1.1 -0.8
v -0.9 1.2 -0.4
v -0.9 1.2 -0.8
v -0.8 0.8 -0.3
v -0.8 0.8 -0.7
v -0.8 0.9 -0.4
v -0.8 0.9 -0.7
v -0.8 1.2 -0.4
v -0.8 1.2 -0.7
v -0.8 1.3 -0.3
v -0.8 1.3 -0.7
v -0.7 0.8 -0.2
v -0.7 0.8 -0.3
v -0.7 1.3 -0.3
v -0.7 1.3 -0.6
v -0.7 1.4 -0.2
v -0.7 1.4 -0.6
v -0.6 0.8 -0.1
v -0.6 0.8 -0.2
v -0.6 1.4 -0.2
v -0.6 1.4 -0.6
v -0.6 1.5 -0.1
v -0.6 1.5 -0.6
v 0.1 0.8 -0.1
v 0.1 0.8 -0.6
v 0.1 1.5 -0.1
v 0.1 1.5 -0.6
v 0.3 0.8 -0.6
v 0.3 0.8 -0.7
v 0.3 1.3 -0.6
v 0.3 1.3 -0.7
v 0.4 0.9 -0.7
v 0.4 0.9 -0.8
v 0.4 1.2 -0.7
v 0.4 1.2 -0.8
v 0.5 1 -0.8
v 0.5 1 -0.9
v 0.5 1.1 -0.8
v 0.5 1.1 -0.9
v -0.9 1 -0.8
v -0.9 1 -0.9
v -0.9 1.1 -0.8
v -0.9 1.1 -0.9
v -0.8 0.9 -0.7
v -0.8 0.9 -0.8
v -0.8 1.2 -0.7
v -0.8 1.2 -0.8
v -0.7 0.8 -0.6
v -0.7 0.8 -0.7
v -0.7 1.3 -0.6
v -0.7 1.3 -0.7
v -0.5 0.8 -0.1
v -0.5 0.8 -0.6
v -0.5 1.5 -0.1
v -0.5 1.5 -0.6
v 0.2 0.8 -0.1
v 0.2 0.8 -0.2
v 0.2 1.4 -0.2
v 0.2 1.4 -0.6
v 0.2 1.5 -0.1
v 0.2 1.5 -0.6
v 0.3 0.8 -0.2
v 0.3 0.8 -0.3
v 0.3 1.3 -0.3
v 0.3 1.3 -0.6
v 0.3 1.4 -0.2
v 0.3 1.4 -0.6
v 0.4 0.8 -0.3
v 0.4 0.8 -0.7
v 0.4 0.9 -0.4
v 0.4 0.9 -0.7
v 0.4 1.2 -0.4
v 0.4 1.2 -0.7
v 0.4 1.3 -0.3
v 0.4 1.3 -0.7
v 0.5 0.9 -0.4
v 0.5 0.9 -0.8
v 0.5 1 -0.5
v 0.5 1 -0.8
v 0.5 1.1 -0.5
v 0.5 1.1 -0.8
v 0.5 1.2 -0.4
v 0.5 1.2 -0.8
v 0.6 1 -0.5
v 0.6 1 -0.9
v 0.6 1.1 -0.5
v 0.6 1.1 -0.9
v -0.6 0.8 -0.1
v -0.6 1.5 -0.1
v -0.5 0.8 -0.1
v -0.5 1.5 -0.1
v 0.1 0.8 -0.1
v 0.1 1.5 -0.1
v 0.2 0.8 -0.1
v 0.2 1.5 -0.1
v -0.7 0.8 -0.2
v -0.7 1.4 -0.2
v -0.6 0.8 -0.2
v -0.6 1.4 -0.2
v 0.2 0.8 -0.2
v 0.2 1.4 -0.2
v 0.3 0.8 -0.2
v 0.3 1.4 -0.2
v -0.8 0.8 -0.3
v -0.8 1.3 -0.3
v -0.7 0.8 -0.3
v -0.7 1.3 -0.3
v 0.3 0.8 -0.3
v 0.3 1.3 -0.3
v 0.4 0.8 -0.3
v 0.4 1.3 -0.3
v -0.9 0.9 -0.4
v -0.9 1.2 -0.4
v -0.8 0.9 -0.4
v -0.8 1.2 -0.4
v 0.4 0.9 -0.4
v 0.4 1.2 -0.4
v 0.5 0.9 -0.4
v 0.5 1.2 -0.4
v -1 1 -0.5
v -1 1.1 -0.5
v -0.9 1 -0.5
v -0.9 1.1 -0.5
v 0.5 1 -0.5
v 0.5 1.1 -0.5
v 0.6 1 -0.5
v 0.6 1.1 -0.5
v -0.7 0.8 -0.6
v -0.7 1.3 -0.6
v -0.7 1.4 -0.6
v -0.6 0.8 -0.6
v -0.6 1.4 -0.6
v -0.6 1.5 -0.6
v -0.5 0.8 -0.6
v -0.5 1.5 -0.6
v 0.1 0.8 -0.6
v 0.1 1.5 -0.6
v 0.2 0.8 -0.6
v 0.2 1.4 -0.6
v 0.2 1.5 -0.6
v 0.3 0.8 -0.6
v 0.3 1.3 -0.6
v 0.3 1.4 -0.6
v -0.8 0.8 -0.7
v -0.8 0.9 -0.7
v -0.8 1.2 -0.7
v -0.8 1.3 -0.7
v -0.7 0.8 -0.7
v -0.7 1.3 -0.7
v 0.3 0.8 -0.7
v 0.3 1.3 -0.7
v 0.4 0.8 -0.7
v 0.4 0.9 -0.7
v 0.4 1.2 -0.7
v 0.4 1.3 -0.7
v -0.9 0.9 -0.8
v -0.9 1 -0.8
v -0.9 1.1 -0.8
v -0.9 1.2 -0.8
v -0.8 0.9 -0.8
v -0.8 1.2 -0.8
v 0.4 0.9 -0.8
v 0.4 1.2 -0.8
v 0.5 0.9 -0.8
v 0.5 1 -0.8
v 0.5 1.1 -0.8
v 0.5 1.2 -0.8
v -1 1 -0.9
v -1 1.1 -0.9
v -0.9 1 -0.9
v -0.9 1.1 -0.9
v 0.5 1 -0.9
v 0.5 1.1 -0.9
v 0.6 1 -0.9
v 0.6 1.1 -0.9
v -0.6 0.8 -0.1
v -0.5 0.8 -0.1
v 0.1 0.8 -0.1
v 0.2 0.8 -0.1
v -0.7 0.8 -0.2
v -0.6 0.8 -0.2
v 0.2 0.8 -0.2
v 0.3 0.8 -0.2
v -0.8 0.8 -0.3
v -0.7 0.8 -0.3
v 0.3 0.8 -0.3
v 0.4 0.8 -0.3
v -0.7 0.8 -0.6
v -0.6 0.8 -0.6
v -0.5 0.8 -0.6
v 0.1 0.8 -0.6
v 0.2 0.8 -0.6
v 0.3 0.8 -0.6
v -0.8 0.8 -0.7
v -0.7 0.8 -0.7
v 0.3 0.8 -0.7
v 0.4 0.8 -0.7
v -0.9 0.9 -0.4
v -0.8 0.9 -0.4
v 0.4 0.9 -0.4
v 0.5 0.9 -0.4
v -0.8 0.9 -0.7
v 0.4 0.9 -0.7
v -0.9 0.9 -0.8
v -0.8 0.9 -0.8
v 0.4 0.9 -0.8
v 0.5 0.9 -0.8
v -1 1 -0.5
v -0.9 1 -0.5
v 0.5 1 -0.5
v 0.6 1 -0.5
v -0.9 1 -0.8
v 0.5 1 -0.8
v -1 1 -0.9
v -0.9 1 -0.9
v 0.5 1 -0.9
v 0.6 1 -0.9
v -1 1.1 -0.5
v -0.9 1.1 -0.5
v 0.5 1.1 -0.5
v 0.6 1.1 -0.5
v -0.9 1.1 -0.8
v 0.5 1.1 -0.8
v -1 1.1 -0.9
v -0.9 1.1 -0.9
v 0.5 1.1 -0.9
v 0.6 1.1 -0.9
v -0.9 1.2 -0.4
v -0.8 1.2 -0.4
v 0.4 1.2 -0.4
v 0.5 1.2 -0.4
v -0.8 1.2 -0.7
v 0.4 1.2 -0.7
v -0.9 1.2 -0.8
v -0.8 1.2 -0.8
v 0.4 1.2 -0.8
v 0.5 1.2 -0.8
v -0.8 1.3 -0.3
v -0.7 1.3 -0.3
v 0.3 1.3 -0.3
v 0.4 1.3 -0.3
v -0.7 1.3 -0.6
v 0.3 1.3 -0.6
v -0.8 1.3 -0.7
v -0.7 1.3 -0.7
v 0.3 1.3 -0.7
v 0.4 1.3 -0.7
v -0.7 1.4 -0.2
v -0.6 1.4 -0.2
v 0.2 1.4 -0.2
v 0.3 1.4 -0.2
v -0.7 1.4 -0.6
v -0.6 1.4 -0.6
v 0.2 1.4 -0.6
v 0.3 1.4 -0.6
v -0.6 1.5 -0.1
v -0.5 1.5 -0.1
v 0.1 1.5 -0.1
v 0.2 1.5 -0.1
v -0.6 1.5 -0.6
v -0.5 1.5 -0.6
v 0.1 1.5 -0.6
v 0.2 1.5 -0.6

# faces
f 3/3/1 2/3/1 1/3/1
f 4/3/1 2/3/1 3/3/1
f 7/1/1 6/1/1 5/1/1
f 8/1/1 6/1/1 7/1/1
f 9/1/1 7/1/1 5/1/1
f 11/1/1 9/1/1 5/1/1
f 11/1/1 10/1/1 9/1/1
f 12/1/1 10/1/1 11/1/1
f 15/2/1 14/2/1 13/2/1
f 16/2/1 14/2/1 15/2/1
f 17/2/1 15/2/1 13/2/1
f 19/2/1 17/2/1 13/2/1
f 19/2/1 18/2/1 17/2/1
f 20/2/1 18/2/1 19/2/1
f 23/1/1 22/1/1 21/1/1
f 25/1/1 23/1/1 21/1/1
f 25/1/1 24/1/1 23/1/1
f 26/1/1 24/1/1 25/1/1
f 29/2/1 28/2/1 27/2/1
f 31/2/1 29/2/1 27/2/1
f 31/2/1 30/2/1 29/2/1
f 32/2/1 30/2/1 31/2/1
f 35/2/1 34/2/1 33/2/1
f 36/2/1 34/2/1 35/2/1
f 39/2/1 38/2/1 37/2/1
f 40/2/1 38/2/1 39/2/1
f 43/1/1 42/1/1 41/1/1
f 44/1/1 42/1/1 43/1/1
f 47/3/1 46/3/1 45/3/1
f 48/3/1 46/3/1 47/3/1
f 49/3/2 50/3/2 51/3/2
f 51/3/2 50/3/2 52/3/2
f 53/1/2 54/1/2 55/1/2
f 55/1/2 54/1/2 56/1/2
f 57/2/2 58/2/2 59/2/2
f 59/2/2 58/2/2 60/2/2
f 61/2/2 62/2/2 63/2/2
f 63/2/2 62/2/2 64/2/2
f 65/2/2 66/2/2 67/2/2
f 65/2/2 67/2/2 69/2/2
f 67/2/2 68/2/2 69/2/2
f 69/2/2 68/2/2 70/2/2
f 71/1/2 72/1/2 73/1/2
f 71/1/2 73/1/2 75/1/2
f 73/1/2 74/1/2 75/1/2
f 75/1/2 74/1/2 76/1/2
f 77/2/2 78/2/2 79/2/2
f 79/2/2 78/2/2 80/2/2
f 77/2/2 79/2/2 81/2/2
f 77/2/2 81/2/2 83/2/2
f 81/2/2 82/2/2 83/2/2
f 83/2/2 82/2/2 84/2/2
f 85/1/2 86/1/2 87/1/2
f 87/1/2 86/1/2 88/1/2
f 85/1/2 87/1/2 89/1/2
f 85/1/2 89/1/2 91/1/2
f 89/1/2 90/1/2 91/1/2
f 91/1/2 90/1/2 92/1/2
f 93/3/2 94/3/2 95/3/2
f 95/3/2 94/3/2 96/3/2
f 99/2/3 98/2/3 97/2/3
f 100/2/3 98/2/3 99/2/3
f 103/2/3 102/2/3 101/2/3
f 104/2/3 102/2/3 103/2/3
f 107/1/3 106/1/3 105/1/3
f 108/1/3 106/1/3 107/1/3
f 111/1/3 110/1/3 109/1/3
f 112/1/3 110/1/3 111/1/3
f 115/2/3 114/2/3 113/2/3
f 116/2/3 114/2/3 115/2/3
f 119/2/3 118/2/3 117/2/3
f 120/2/3 118/2/3 119/2/3
f 123/1/3 122/1/3 121/1/3
f 124/1/3 122/1/3 123/1/3
f 127/1/3 126/1/3 125/1/3
f 128/1/3 126/1/3 127/1/3
f 131/3/3 130/3/3 129/3/3
f 132/3/3 130/3/3 131/3/3
f 135/3/3 134/3/3 133/3/3
f 136/3/3 134/3/3 135/3/3
f 137/1/4 138/1/4 140/1/4
f 138/1/4 139/1/4 140/1/4
f 140/1/4 139/1/4 141/1/4
f 140/2/4 141/2/4 143/2/4
f 141/2/4 142/2/4 143/2/4
f 143/2/4 142/2/4 144/2/4
f 145/2/4 146/2/4 147/2/4
f 147/2/4 146/2/4 148/2/4
f 148/2/4 146/2/4 149/2/4
f 147/1/4 148/1/4 150/1/4
f 150/1/4 148/1/4 151/1/4
f 151/1/4 148/1/4 152/1/4
f 153/2/4 154/2/4 157/2/4
f 155/2/4 156/2/4 157/2/4
f 154/2/4 155/2/4 157/2/4
f 157/2/4 156/2/4 158/2/4
f 159/2/4 160/2/4 161/2/4
f 161/2/4 160/2/4 162/2/4
f 162/2/4 160/2/4 163/2/4
f 163/2/4 160/2/4 164/2/4
f 165/1/4 166/1/4 169/1/4
f 167/1/4 168/1/4 169/1/4
f 166/1/4 167/1/4 169/1/4
f 169/1/4 168/1/4 170/1/4
f 171/1/4 172/1/4 173/1/4
f 173/1/4 172/1/4 174/1/4
f 174/1/4 172/1/4 175/1/4
f 175/1/4 172/1/4 176/1/4
f 177/3/4 178/3/4 179/3/4
f 179/3/4 178/3/4 180/3/4
f 181/3/4 182/3/4 183/3/4
f 183/3/4 182/3/4 184/3/4
f 190/2/5 186/2/5 185/2/5
f 191/2/5 188/2/5 187/2/5
f 194/1/5 190/1/5 189/1/5
f 195/1/5 192/1/5 191/1/5
f 197/2/5 194/2/5 193/2/5
f 197/1/5 190/1/5 194/1/5
f 198/2/5 186/2/5 190/2/5
f 198/1/5 190/1/5 197/1/5
f 199/2/5 186/2/5 198/2/5
f 200/2/5 191/2/5 187/2/5
f 201/1/5 195/1/5 191/1/5
f 201/2/5 191/2/5 200/2/5
f 202/2/5 196/2/5 195/2/5
f 202/1/5 195/1/5 201/1/5
f 203/2/5 197/2/5 193/2/5
f 204/2/5 197/2/5 203/2/5
f 205/2/5 196/2/5 202/2/5
f 206/2/5 196/2/5 205/2/5
f 211/1/5 208/1/5 207/1/5
f 212/1/5 210/1/5 209/1/5
f 213/1/5 211/1/5 207/1/5
f 214/1/5 211/1/5 213/1/5
f 215/1/5 210/1/5 212/1/5
f 216/1/5 210/1/5 215/1/5
f 221/3/5 218/3/5 217/3/5
f 222/3/5 220/3/5 219/3/5
f 223/3/5 221/3/5 217/3/5
f 224/3/5 221/3/5 223/3/5
f 225/3/5 220/3/5 222/3/5
f 226/3/5 220/3/5 225/3/5
f 227/3/6 228/3/6 231/3/6
f 229/3/6 230/3/6 232/3/6
f 227/3/6 231/3/6 233/3/6
f 233/3/6 231/3/6 234/3/6
f 232/3/6 230/3/6 235/3/6
f 235/3/6 230/3/6 236/3/6
f 237/1/6 238/1/6 241/1/6
f 239/1/6 240/1/6 242/1/6
f 237/1/6 241/1/6 243/1/6
f 243/1/6 241/1/6 244/1/6
f 242/1/6 240/1/6 245/1/6
f 245/1/6 240/1/6 246/1/6
f 247/2/6 248/2/6 251/2/6
f 249/2/6 250/2/6 252/2/6
f 247/2/6 251/2/6 253/2/6
f 253/2/6 251/2/6 254/2/6
f 252/2/6 250/2/6 255/2/6
f 255/2/6 250/2/6 256/2/6
f 257/1/6 258/1/6 261/1/6
f 261/1/6 258/1/6 262/1/6
f 259/1/6 260/1/6 263/1/6
f 263/1/6 260/1/6 264/1/6
f 265/2/6 266/2/6 269/2/6
f 269/2/6 266/2/6 270/2/6
f 267/2/6 268/2/6 271/2/6
f 271/2/6 268/2/6 272/2/6
