# MagicaVoxel @ Ephtracy

# group
o 

# material
mtllib Bluebird.mtl
usemtl palette

# normals
vn -1 0 0
vn 1 0 0
vn 0 0 1
vn 0 0 -1
vn 0 -1 0
vn 0 1 0

# texcoords
vt 0.798828 0.5
vt 0.826172 0.5
vt 0.830078 0.5
vt 0.833984 0.5
vt 0.951172 0.5
vt 0.958984 0.5

# verts
v -0.5 0.5 0
v -0.5 0.5 -0.6
v -0.5 0.7 0.1
v -0.5 0.7 0
v -0.5 1.1 0.1
v -0.5 1.1 -0.6
v -0.5 1.3 0
v -0.5 1.3 -0.1
v -0.5 1.4 0
v -0.5 1.4 -0.1
v -0.5 1.5 0.1
v -0.5 1.5 -0.6
v -0.4 0.2 -0.6
v -0.4 0.2 -0.7
v -0.4 0.5 -0.6
v -0.4 0.9 -0.6
v -0.4 0.9 -0.7
v -0.3 0 -0.7
v -0.3 0 -0.8
v -0.3 0.2 -0.7
v -0.3 0.8 -0.7
v -0.3 0.8 -0.8
v -0.3 1.2 0.2
v -0.3 1.2 0.1
v -0.3 1.4 0.2
v -0.3 1.4 0.1
v -0.3 1.5 0.1
v -0.3 1.5 -0.6
v -0.3 1.6 0.1
v -0.3 1.6 -0.6
v -0.1 0 -0.7
v -0.1 0 -0.8
v -0.1 0.2 -0.7
v -0.1 0.8 -0.7
v -0.1 0.8 -0.8
v -0.1 1.2 0.2
v -0.1 1.2 0.1
v -0.1 1.4 0.2
v -0.1 1.4 0.1
v -0.1 1.5 0.1
v -0.1 1.5 -0.6
v -0.1 1.6 0.1
v -0.1 1.6 -0.6
v 0 0.2 -0.6
v 0 0.2 -0.7
v 0 0.5 -0.6
v 0 0.9 -0.6
v 0 0.9 -0.7
v 0.1 0.5 0
v 0.1 0.5 -0.6
v 0.1 0.7 0.1
v 0.1 0.7 0
v 0.1 1.1 0.1
v 0.1 1.1 -0.6
v 0.1 1.3 0
v 0.1 1.3 -0.1
v 0.1 1.4 0
v 0.1 1.4 -0.1
v 0.1 1.5 0.1
v 0.1 1.5 -0.6
v -0.3 1.2 0.2
v -0.3 1.4 0.2
v -0.1 1.2 0.2
v -0.1 1.4 0.2
v -0.5 0.7 0.1
v -0.5 1.1 0.1
v -0.5 1.5 0.1
v -0.3 1.2 0.1
v -0.3 1.4 0.1
v -0.3 1.5 0.1
v -0.3 1.6 0.1
v -0.1 1.2 0.1
v -0.1 1.4 0.1
v -0.1 1.5 0.1
v -0.1 1.6 0.1
v 0.1 0.7 0.1
v 0.1 1.1 0.1
v 0.1 1.5 0.1
v -0.5 0.5 0
v -0.5 0.7 0
v 0.1 0.5 0
v 0.1 0.7 0
v -0.4 0.2 -0.6
v -0.4 0.5 -0.6
v 0 0.2 -0.6
v 0 0.5 -0.6
v -0.3 0 -0.7
v -0.3 0.2 -0.7
v -0.1 0 -0.7
v -0.1 0.2 -0.7
v -0.5 0.5 -0.6
v -0.5 1.1 -0.6
v -0.5 1.5 -0.6
v -0.4 0.5 -0.6
v -0.4 0.9 -0.6
v -0.3 1.5 -0.6
v -0.3 1.6 -0.6
v -0.1 1.5 -0.6
v -0.1 1.6 -0.6
v 0 0.5 -0.6
v 0 0.9 -0.6
v 0.1 0.5 -0.6
v 0.1 1.1 -0.6
v 0.1 1.5 -0.6
v -0.4 0.2 -0.7
v -0.4 0.9 -0.7
v -0.3 0.2 -0.7
v -0.3 0.8 -0.7
v -0.1 0.2 -0.7
v -0.1 0.8 -0.7
v 0 0.2 -0.7
v 0 0.9 -0.7
v -0.3 0 -0.8
v -0.3 0.8 -0.8
v -0.1 0 -0.8
v -0.1 0.8 -0.8
v -0.3 0 -0.7
v -0.1 0 -0.7
v -0.3 0 -0.8
v -0.1 0 -0.8
v -0.4 0.2 -0.6
v 0 0.2 -0.6
v -0.4 0.2 -0.7
v -0.3 0.2 -0.7
v -0.1 0.2 -0.7
v 0 0.2 -0.7
v -0.5 0.5 0
v 0.1 0.5 0
v -0.5 0.5 -0.6
v -0.4 0.5 -0.6
v 0 0.5 -0.6
v 0.1 0.5 -0.6
v -0.5 0.7 0.1
v 0.1 0.7 0.1
v -0.5 0.7 0
v 0.1 0.7 0
v -0.3 1.2 0.2
v -0.1 1.2 0.2
v -0.3 1.2 0.1
v -0.1 1.2 0.1
v -0.3 0.8 -0.7
v -0.1 0.8 -0.7
v -0.3 0.8 -0.8
v -0.1 0.8 -0.8
v -0.4 0.9 -0.6
v 0 0.9 -0.6
v -0.4 0.9 -0.7
v 0 0.9 -0.7
v -0.3 1.4 0.2
v -0.1 1.4 0.2
v -0.3 1.4 0.1
v -0.1 1.4 0.1
v -0.5 1.5 0.1
v -0.3 1.5 0.1
v -0.1 1.5 0.1
v 0.1 1.5 0.1
v -0.5 1.5 -0.6
v -0.3 1.5 -0.6
v -0.1 1.5 -0.6
v 0.1 1.5 -0.6
v -0.3 1.6 0.1
v -0.1 1.6 0.1
v -0.3 1.6 -0.6
v -0.1 1.6 -0.6

# faces
f 4/6/1 2/6/1 1/6/1
f 5/6/1 4/6/1 3/6/1
f 6/6/1 2/6/1 4/6/1
f 6/6/1 4/6/1 5/6/1
f 7/2/1 6/2/1 5/2/1
f 8/2/1 6/2/1 7/2/1
f 9/2/1 7/2/1 5/2/1
f 9/5/1 8/5/1 7/5/1
f 10/2/1 6/2/1 8/2/1
f 10/5/1 8/5/1 9/5/1
f 11/2/1 9/2/1 5/2/1
f 11/2/1 10/2/1 9/2/1
f 12/2/1 6/2/1 10/2/1
f 12/2/1 10/2/1 11/2/1
f 15/3/1 14/3/1 13/3/1
f 16/3/1 14/3/1 15/3/1
f 17/3/1 14/3/1 16/3/1
f 20/4/1 19/4/1 18/4/1
f 21/4/1 19/4/1 20/4/1
f 22/4/1 19/4/1 21/4/1
f 25/5/1 24/5/1 23/5/1
f 26/5/1 24/5/1 25/5/1
f 29/2/1 28/2/1 27/2/1
f 30/2/1 28/2/1 29/2/1
f 31/4/2 32/4/2 33/4/2
f 33/4/2 32/4/2 34/4/2
f 34/4/2 32/4/2 35/4/2
f 36/5/2 37/5/2 38/5/2
f 38/5/2 37/5/2 39/5/2
f 40/2/2 41/2/2 42/2/2
f 42/2/2 41/2/2 43/2/2
f 44/3/2 45/3/2 46/3/2
f 46/3/2 45/3/2 47/3/2
f 47/3/2 45/3/2 48/3/2
f 49/6/2 50/6/2 52/6/2
f 51/6/2 52/6/2 53/6/2
f 52/6/2 50/6/2 54/6/2
f 53/6/2 52/6/2 54/6/2
f 53/2/2 54/2/2 55/2/2
f 55/2/2 54/2/2 56/2/2
f 53/2/2 55/2/2 57/2/2
f 55/5/2 56/5/2 57/5/2
f 56/2/2 54/2/2 58/2/2
f 57/5/2 56/5/2 58/5/2
f 53/2/2 57/2/2 59/2/2
f 57/2/2 58/2/2 59/2/2
f 58/2/2 54/2/2 60/2/2
f 59/2/2 58/2/2 60/2/2
f 63/5/3 62/5/3 61/5/3
f 64/5/3 62/5/3 63/5/3
f 68/2/3 67/2/3 66/2/3
f 69/2/3 67/2/3 68/2/3
f 70/2/3 67/2/3 69/2/3
f 72/2/3 68/2/3 66/2/3
f 73/2/3 71/2/3 70/2/3
f 73/2/3 70/2/3 69/2/3
f 74/2/3 71/2/3 73/2/3
f 75/2/3 71/2/3 74/2/3
f 76/6/3 66/6/3 65/6/3
f 77/2/3 72/2/3 66/2/3
f 77/6/3 66/6/3 76/6/3
f 77/2/3 73/2/3 72/2/3
f 77/2/3 74/2/3 73/2/3
f 78/2/3 74/2/3 77/2/3
f 81/6/3 80/6/3 79/6/3
f 82/6/3 80/6/3 81/6/3
f 85/3/3 84/3/3 83/3/3
f 86/3/3 84/3/3 85/3/3
f 89/4/3 88/4/3 87/4/3
f 90/4/3 88/4/3 89/4/3
f 91/6/4 92/6/4 94/6/4
f 94/6/4 92/6/4 95/6/4
f 92/2/4 93/2/4 96/2/4
f 92/2/4 96/2/4 98/2/4
f 96/2/4 97/2/4 98/2/4
f 98/2/4 97/2/4 99/2/4
f 95/6/4 92/6/4 101/6/4
f 100/6/4 101/6/4 102/6/4
f 92/2/4 98/2/4 103/2/4
f 102/6/4 101/6/4 103/6/4
f 101/6/4 92/6/4 103/6/4
f 103/2/4 98/2/4 104/2/4
f 105/3/4 106/3/4 107/3/4
f 107/3/4 106/3/4 108/3/4
f 108/3/4 106/3/4 110/3/4
f 109/3/4 110/3/4 111/3/4
f 110/3/4 106/3/4 112/3/4
f 111/3/4 110/3/4 112/3/4
f 113/4/4 114/4/4 115/4/4
f 115/4/4 114/4/4 116/4/4
f 119/4/5 118/4/5 117/4/5
f 120/4/5 118/4/5 119/4/5
f 123/3/5 122/3/5 121/3/5
f 124/3/5 122/3/5 123/3/5
f 125/3/5 122/3/5 124/3/5
f 126/3/5 122/3/5 125/3/5
f 129/6/5 128/6/5 127/6/5
f 130/6/5 128/6/5 129/6/5
f 131/6/5 128/6/5 130/6/5
f 132/6/5 128/6/5 131/6/5
f 135/6/5 134/6/5 133/6/5
f 136/6/5 134/6/5 135/6/5
f 139/5/5 138/5/5 137/5/5
f 140/5/5 138/5/5 139/5/5
f 141/4/6 142/4/6 143/4/6
f 143/4/6 142/4/6 144/4/6
f 145/3/6 146/3/6 147/3/6
f 147/3/6 146/3/6 148/3/6
f 149/5/6 150/5/6 151/5/6
f 151/5/6 150/5/6 152/5/6
f 153/2/6 154/2/6 157/2/6
f 157/2/6 154/2/6 158/2/6
f 155/2/6 156/2/6 159/2/6
f 159/2/6 156/2/6 160/2/6
f 161/2/6 162/2/6 163/2/6
f 163/2/6 162/2/6 164/2/6
