# Blender 3.1.0
# www.blender.org
mtllib Semaforo_top_v.mtl
o Cube
v 0.625000 1.560000 -1.000000
v 0.625000 -1.560000 -1.000000
v 0.625000 1.560000 1.000000
v 0.625000 -1.560000 1.000000
v -0.625000 1.560000 -1.000000
v -0.625000 -1.560000 -1.000000
v -0.625000 1.560000 1.000000
v -0.625000 -1.560000 1.000000
vn -0.0000 1.5600 -0.0000
vn -0.0000 -0.0000 1.0000
vn -0.6250 -0.0000 -0.0000
vn -0.0000 -1.5600 -0.0000
vn 0.6250 -0.0000 -0.0000
vn -0.0000 -0.0000 -1.0000
vt 0.264716 0.410610
vt 0.255604 0.388887
vt 0.534112 0.987086
vt 0.571867 0.569101
vt 0.255140 0.004928
vt 0.535780 0.586982
vt -0.001302 0.411518
vt 0.485814 0.986197
vt 0.006579 0.389603
vt 0.485185 0.594352
vt 0.321887 0.570902
vt 0.006114 0.005644
vt 0.266927 0.572857
vt 0.988281 0.984773
vt 0.698595 0.991143
vt 0.738281 0.984773
vt 0.568738 0.425192
vt 0.700263 0.591039
vt 0.000909 0.573765
vt 0.319503 0.987679
vt 0.988281 0.585539
vt 0.318873 0.595835
vt 0.738281 0.585539
vt 0.318758 0.426993
s 0
usemtl Material
f 1/1/1 5/13/1 7/19/1 3/7/1
f 4/10/2 3/8/2 7/20/2 8/22/2
f 8/23/3 7/21/3 5/14/3 6/16/3
f 6/17/4 2/4/4 4/11/4 8/24/4
f 2/5/5 1/2/5 3/9/5 4/12/5
f 6/18/6 5/15/6 1/3/6 2/6/6
