# MagicaVoxel @ Ephtracy

# group
o 

# material
mtllib Auto1.mtl
usemtl palette

# normals
vn -1 0 0
vn 1 0 0
vn 0 0 1
vn 0 0 -1
vn 0 -1 0
vn 0 1 0

# texcoords
vt 0.0136719 0.5
vt 0.0175781 0.5
vt 0.279297 0.5
vt 0.408203 0.5
vt 0.556641 0.5
vt 0.806641 0.5
vt 0.837891 0.5
vt 0.958984 0.5
vt 0.986328 0.5
vt 0.994141 0.5

# verts
v -1.8 -0.9 1.8
v -1.8 -0.9 1.2
v -1.8 -0.9 -1.2
v -1.8 -0.9 -1.8
v -1.8 -0.7 2
v -1.8 -0.7 1.8
v -1.8 -0.7 1.2
v -1.8 -0.7 1
v -1.8 -0.7 -1
v -1.8 -0.7 -1.2
v -1.8 -0.7 -1.8
v -1.8 -0.7 -2
v -1.8 -0.5 2.8
v -1.8 -0.5 2
v -1.8 -0.5 1.6
v -1.8 -0.5 1.4
v -1.8 -0.5 1
v -1.8 -0.5 -1
v -1.8 -0.5 -1.4
v -1.8 -0.5 -1.6
v -1.8 -0.5 -2
v -1.8 -0.5 -2.4
v -1.8 -0.5 -2.8
v -1.8 -0.3 1.6
v -1.8 -0.3 1.4
v -1.8 -0.3 -1.4
v -1.8 -0.3 -1.6
v -1.8 -0.3 -2.4
v -1.8 -0.3 -2.6
v -1.8 -0.3 -2.8
v -1.8 -0.1 2
v -1.8 -0.1 1.8
v -1.8 -0.1 1.2
v -1.8 -0.1 1
v -1.8 -0.1 -1
v -1.8 -0.1 -1.2
v -1.8 -0.1 -1.8
v -1.8 -0.1 -2
v -1.8 0.1 1.8
v -1.8 0.1 1.2
v -1.8 0.1 -1.2
v -1.8 0.1 -1.8
v -1.8 1.1 2.8
v -1.8 1.1 2.5
v -1.8 1.1 2.1
v -1.8 1.1 0.7
v -1.8 1.1 0.5
v -1.8 1.1 -0.5
v -1.8 1.1 -0.9
v -1.8 1.1 -2.6
v -1.8 2.9 2.1
v -1.8 2.9 0.7
v -1.8 2.9 0.5
v -1.8 2.9 -0.5
v -1.8 3.1 2.5
v -1.8 3.1 -0.9
v -1.7 1.1 2.1
v -1.7 1.1 0.7
v -1.7 1.1 0.5
v -1.7 1.1 -0.5
v -1.7 2.9 2.1
v -1.7 2.9 0.7
v -1.7 2.9 0.5
v -1.7 2.9 -0.5
v -0.4 0.3 -2.5
v -0.4 0.3 -2.6
v -0.4 0.7 -2.5
v -0.4 0.7 -2.6
v 1 0.3 -2.5
v 1 0.3 -2.6
v 1 0.7 -2.5
v 1 0.7 -2.6
v 1.2 1.4 -0.8
v 1.2 1.4 -0.9
v 1.2 2.8 -0.8
v 1.2 2.8 -0.9
v 1.4 -0.9 2
v 1.4 -0.9 1.4
v 1.4 -0.9 -1.2
v 1.4 -0.9 -1.8
v 1.4 -0.7 2.2
v 1.4 -0.7 2
v 1.4 -0.7 1.4
v 1.4 -0.7 1.2
v 1.4 -0.7 -1
v 1.4 -0.7 -1.2
v 1.4 -0.7 -1.8
v 1.4 -0.7 -2
v 1.4 -0.5 2.2
v 1.4 -0.5 1.2
v 1.4 -0.5 -1
v 1.4 -0.5 -2
v -1.6 -0.9 1.8
v -1.6 -0.9 1.2
v -1.6 -0.9 -1.2
v -1.6 -0.9 -1.8
v -1.6 -0.7 2
v -1.6 -0.7 1.8
v -1.6 -0.7 1.2
v -1.6 -0.7 1
v -1.6 -0.7 -1
v -1.6 -0.7 -1.2
v -1.6 -0.7 -1.8
v -1.6 -0.7 -2
v -1.6 -0.5 2
v -1.6 -0.5 1
v -1.6 -0.5 -1
v -1.6 -0.5 -2
v -1.5 1.4 -0.8
v -1.5 1.4 -0.9
v -1.5 2.8 -0.8
v -1.5 2.8 -0.9
v -1.2 0.3 -2.5
v -1.2 0.3 -2.6
v -1.2 0.7 -2.5
v -1.2 0.7 -2.6
v 0.2 0.3 -2.5
v 0.2 0.3 -2.6
v 0.2 0.7 -2.5
v 0.2 0.7 -2.6
v 1.5 1.2 2.3
v 1.5 1.2 1.2
v 1.5 1.2 1.1
v 1.5 1.2 -0.5
v 1.5 3 2.3
v 1.5 3 1.2
v 1.5 3 1.1
v 1.5 3 -0.5
v 1.6 -0.9 2
v 1.6 -0.9 1.4
v 1.6 -0.9 -1.2
v 1.6 -0.9 -1.8
v 1.6 -0.7 2.2
v 1.6 -0.7 2
v 1.6 -0.7 1.4
v 1.6 -0.7 1.2
v 1.6 -0.7 -1
v 1.6 -0.7 -1.2
v 1.6 -0.7 -1.8
v 1.6 -0.7 -2
v 1.6 -0.5 2.8
v 1.6 -0.5 2.2
v 1.6 -0.5 1.8
v 1.6 -0.5 1.6
v 1.6 -0.5 1.2
v 1.6 -0.5 -1
v 1.6 -0.5 -1.4
v 1.6 -0.5 -1.6
v 1.6 -0.5 -2
v 1.6 -0.5 -2.4
v 1.6 -0.5 -2.8
v 1.6 -0.3 1.8
v 1.6 -0.3 1.6
v 1.6 -0.3 -1.4
v 1.6 -0.3 -1.6
v 1.6 -0.3 -2.4
v 1.6 -0.3 -2.6
v 1.6 -0.3 -2.8
v 1.6 -0.1 2.2
v 1.6 -0.1 2
v 1.6 -0.1 1.4
v 1.6 -0.1 1.2
v 1.6 -0.1 -1
v 1.6 -0.1 -1.3
v 1.6 -0.1 -1.8
v 1.6 -0.1 -2
v 1.6 0.1 2
v 1.6 0.1 1.4
v 1.6 0.1 -1.3
v 1.6 0.1 -1.8
v 1.6 1.1 2.8
v 1.6 1.1 2.5
v 1.6 1.1 -0.9
v 1.6 1.1 -2.6
v 1.6 1.2 2.3
v 1.6 1.2 1.2
v 1.6 1.2 1.1
v 1.6 1.2 -0.5
v 1.6 3 2.3
v 1.6 3 1.2
v 1.6 3 1.1
v 1.6 3 -0.5
v 1.6 3.1 2.5
v 1.6 3.1 -0.9
v -1.8 -0.5 2.8
v -1.8 1.1 2.8
v 1.6 -0.5 2.8
v 1.6 1.1 2.8
v -1.8 1.1 2.5
v -1.8 3.1 2.5
v 1.6 1.1 2.5
v 1.6 3.1 2.5
v 1.4 -0.7 2.2
v 1.4 -0.5 2.2
v 1.5 -0.5 2.2
v 1.6 -0.7 2.2
v 1.6 -0.5 2.2
v -1.8 -0.7 2
v -1.8 -0.5 2
v -1.7 -0.5 2
v -1.6 -0.7 2
v -1.6 -0.5 2
v 1.4 -0.9 2
v 1.4 -0.7 2
v 1.6 -0.9 2
v 1.6 -0.7 2
v -1.8 -0.9 1.8
v -1.8 -0.7 1.8
v -1.6 -0.9 1.8
v -1.6 -0.7 1.8
v 1.5 1.2 1.2
v 1.5 3 1.2
v 1.6 1.2 1.2
v 1.6 3 1.2
v -1.8 1.1 0.7
v -1.8 2.9 0.7
v -1.7 1.1 0.7
v -1.7 2.9 0.7
v -1.8 1.1 -0.5
v -1.8 2.9 -0.5
v -1.7 1.1 -0.5
v -1.7 2.9 -0.5
v 1.5 1.2 -0.5
v 1.5 3 -0.5
v 1.6 1.2 -0.5
v 1.6 3 -0.5
v -1.8 -0.7 -1
v -1.8 -0.5 -1
v -1.7 -0.5 -1
v -1.6 -0.7 -1
v -1.6 -0.5 -1
v 1.4 -0.7 -1
v 1.4 -0.5 -1
v 1.5 -0.5 -1
v 1.6 -0.7 -1
v 1.6 -0.5 -1
v -1.8 -0.9 -1.2
v -1.8 -0.7 -1.2
v -1.6 -0.9 -1.2
v -1.6 -0.7 -1.2
v 1.4 -0.9 -1.2
v 1.4 -0.7 -1.2
v 1.6 -0.9 -1.2
v 1.6 -0.7 -1.2
v 1.5 1.2 2.3
v 1.5 3 2.3
v 1.6 1.2 2.3
v 1.6 3 2.3
v -1.8 1.1 2.1
v -1.8 2.9 2.1
v -1.7 1.1 2.1
v -1.7 2.9 2.1
v 1.4 -0.9 1.4
v 1.4 -0.7 1.4
v 1.6 -0.9 1.4
v 1.6 -0.7 1.4
v -1.8 -0.9 1.2
v -1.8 -0.7 1.2
v -1.6 -0.9 1.2
v -1.6 -0.7 1.2
v 1.4 -0.7 1.2
v 1.4 -0.5 1.2
v 1.5 -0.5 1.2
v 1.6 -0.7 1.2
v 1.6 -0.5 1.2
v 1.5 1.2 1.1
v 1.5 3 1.1
v 1.6 1.2 1.1
v 1.6 3 1.1
v -1.8 -0.7 1
v -1.8 -0.5 1
v -1.7 -0.5 1
v -1.6 -0.7 1
v -1.6 -0.5 1
v -1.8 1.1 0.5
v -1.8 2.9 0.5
v -1.7 1.1 0.5
v -1.7 2.9 0.5
v -1.5 1.4 -0.8
v -1.5 2.8 -0.8
v 1.2 1.4 -0.8
v 1.2 2.8 -0.8
v -1.8 1.1 -0.9
v -1.8 3.1 -0.9
v -1.5 1.4 -0.9
v -1.5 2.8 -0.9
v 1.2 1.4 -0.9
v 1.2 2.8 -0.9
v 1.6 1.1 -0.9
v 1.6 3.1 -0.9
v -1.8 -0.9 -1.8
v -1.8 -0.7 -1.8
v -1.6 -0.9 -1.8
v -1.6 -0.7 -1.8
v 1.4 -0.9 -1.8
v 1.4 -0.7 -1.8
v 1.6 -0.9 -1.8
v 1.6 -0.7 -1.8
v -1.8 -0.7 -2
v -1.8 -0.5 -2
v -1.7 -0.5 -2
v -1.6 -0.7 -2
v -1.6 -0.5 -2
v 1.4 -0.7 -2
v 1.4 -0.5 -2
v 1.5 -0.5 -2
v 1.6 -0.7 -2
v 1.6 -0.5 -2
v -1.2 0.3 -2.5
v -1.2 0.7 -2.5
v -0.4 0.3 -2.5
v -0.4 0.7 -2.5
v 0.2 0.3 -2.5
v 0.2 0.7 -2.5
v 1 0.3 -2.5
v 1 0.7 -2.5
v -1.8 -0.3 -2.6
v -1.8 1.1 -2.6
v -1.2 0.3 -2.6
v -1.2 0.7 -2.6
v -0.4 0.3 -2.6
v -0.4 0.7 -2.6
v 0.2 0.3 -2.6
v 0.2 0.7 -2.6
v 1 0.3 -2.6
v 1 0.7 -2.6
v 1.6 -0.3 -2.6
v 1.6 1.1 -2.6
v -1.8 -0.5 -2.8
v -1.8 -0.3 -2.8
v 1.6 -0.5 -2.8
v 1.6 -0.3 -2.8
v 1.4 -0.9 2
v 1.6 -0.9 2
v -1.8 -0.9 1.8
v -1.6 -0.9 1.8
v 1.4 -0.9 1.4
v 1.6 -0.9 1.4
v -1.8 -0.9 1.2
v -1.6 -0.9 1.2
v -1.8 -0.9 -1.2
v -1.6 -0.9 -1.2
v 1.4 -0.9 -1.2
v 1.6 -0.9 -1.2
v -1.8 -0.9 -1.8
v -1.6 -0.9 -1.8
v 1.4 -0.9 -1.8
v 1.6 -0.9 -1.8
v 1.4 -0.7 2.2
v 1.6 -0.7 2.2
v -1.8 -0.7 2
v -1.6 -0.7 2
v 1.4 -0.7 2
v 1.6 -0.7 2
v -1.8 -0.7 1.8
v -1.6 -0.7 1.8
v 1.4 -0.7 1.4
v 1.6 -0.7 1.4
v -1.8 -0.7 1.2
v -1.6 -0.7 1.2
v 1.4 -0.7 1.2
v 1.6 -0.7 1.2
v -1.8 -0.7 1
v -1.6 -0.7 1
v -1.8 -0.7 -1
v -1.6 -0.7 -1
v 1.4 -0.7 -1
v 1.6 -0.7 -1
v -1.8 -0.7 -1.2
v -1.6 -0.7 -1.2
v 1.4 -0.7 -1.2
v 1.6 -0.7 -1.2
v -1.8 -0.7 -1.8
v -1.6 -0.7 -1.8
v 1.4 -0.7 -1.8
v 1.6 -0.7 -1.8
v -1.8 -0.7 -2
v -1.6 -0.7 -2
v 1.4 -0.7 -2
v 1.6 -0.7 -2
v -1.8 -0.5 2.8
v 1.6 -0.5 2.8
v -1.7 -0.5 2.7
v 1.5 -0.5 2.7
v 1.2 -0.5 2.2
v 1.4 -0.5 2.2
v 1.5 -0.5 2.2
v 1.6 -0.5 2.2
v -1.8 -0.5 2
v -1.7 -0.5 2
v -1.6 -0.5 2
v -1.4 -0.5 2
v 1.2 -0.5 1.2
v 1.4 -0.5 1.2
v 1.5 -0.5 1.2
v 1.6 -0.5 1.2
v -1.8 -0.5 1
v -1.7 -0.5 1
v -1.6 -0.5 1
v -1.4 -0.5 1
v -1.8 -0.5 -1
v -1.7 -0.5 -1
v -1.6 -0.5 -1
v -1.4 -0.5 -1
v 1.2 -0.5 -1
v 1.4 -0.5 -1
v 1.5 -0.5 -1
v 1.6 -0.5 -1
v -1.8 -0.5 -2
v -1.7 -0.5 -2
v -1.6 -0.5 -2
v -1.4 -0.5 -2
v 1.2 -0.5 -2
v 1.4 -0.5 -2
v 1.5 -0.5 -2
v 1.6 -0.5 -2
v -1.8 -0.5 -2.4
v -1.7 -0.5 -2.4
v -1.6 -0.5 -2.4
v 1.4 -0.5 -2.4
v 1.5 -0.5 -2.4
v 1.6 -0.5 -2.4
v -1.6 -0.5 -2.6
v 1.4 -0.5 -2.6
v -1.8 -0.5 -2.8
v 1.6 -0.5 -2.8
v -1.2 0.7 -2.5
v -0.4 0.7 -2.5
v 0.2 0.7 -2.5
v 1 0.7 -2.5
v -1.2 0.7 -2.6
v -0.4 0.7 -2.6
v 0.2 0.7 -2.6
v 1 0.7 -2.6
v -1.5 2.8 -0.8
v 1.2 2.8 -0.8
v -1.5 2.8 -0.9
v 1.2 2.8 -0.9
v -1.8 2.9 2.1
v -1.7 2.9 2.1
v -1.8 2.9 0.7
v -1.7 2.9 0.7
v -1.8 2.9 0.5
v -1.7 2.9 0.5
v -1.8 2.9 -0.5
v -1.7 2.9 -0.5
v 1.5 3 2.3
v 1.6 3 2.3
v 1.5 3 1.2
v 1.6 3 1.2
v 1.5 3 1.1
v 1.6 3 1.1
v 1.5 3 -0.5
v 1.6 3 -0.5
v -1.8 -0.3 -2.6
v 1.6 -0.3 -2.6
v -1.8 -0.3 -2.8
v 1.6 -0.3 -2.8
v -1.2 0.3 -2.5
v -0.4 0.3 -2.5
v 0.2 0.3 -2.5
v 1 0.3 -2.5
v -1.2 0.3 -2.6
v -0.4 0.3 -2.6
v 0.2 0.3 -2.6
v 1 0.3 -2.6
v -1.8 1.1 2.8
v 1.6 1.1 2.8
v -1.8 1.1 2.5
v 1.6 1.1 2.5
v -1.8 1.1 2.1
v -1.7 1.1 2.1
v -1.8 1.1 0.7
v -1.7 1.1 0.7
v -1.8 1.1 0.5
v -1.7 1.1 0.5
v -1.8 1.1 -0.5
v -1.7 1.1 -0.5
v -1.8 1.1 -0.9
v 1.6 1.1 -0.9
v -1.8 1.1 -2.6
v 1.6 1.1 -2.6
v 1.5 1.2 2.3
v 1.6 1.2 2.3
v 1.5 1.2 1.2
v 1.6 1.2 1.2
v 1.5 1.2 1.1
v 1.6 1.2 1.1
v 1.5 1.2 -0.5
v 1.6 1.2 -0.5
v -1.5 1.4 -0.8
v 1.2 1.4 -0.8
v -1.5 1.4 -0.9
v 1.2 1.4 -0.9
v -1.8 3.1 2.5
v 1.6 3.1 2.5
v -1.8 3.1 -0.9
v 1.6 3.1 -0.9

# faces
f 6/10/1 2/10/1 1/10/1
f 7/10/1 2/10/1 6/10/1
f 10/10/1 4/10/1 3/10/1
f 11/10/1 4/10/1 10/10/1
f 14/10/1 8/10/1 7/10/1
f 14/10/1 6/10/1 5/10/1
f 14/10/1 7/10/1 6/10/1
f 15/10/1 8/10/1 14/10/1
f 16/10/1 8/10/1 15/10/1
f 17/10/1 8/10/1 16/10/1
f 18/10/1 12/10/1 11/10/1
f 18/10/1 11/10/1 10/10/1
f 18/10/1 10/10/1 9/10/1
f 19/10/1 12/10/1 18/10/1
f 20/10/1 12/10/1 19/10/1
f 21/10/1 12/10/1 20/10/1
f 24/9/1 16/9/1 15/9/1
f 24/10/1 15/10/1 14/10/1
f 25/10/1 17/10/1 16/10/1
f 25/9/1 16/9/1 24/9/1
f 26/10/1 19/10/1 18/10/1
f 26/9/1 20/9/1 19/9/1
f 27/10/1 21/10/1 20/10/1
f 27/9/1 20/9/1 26/9/1
f 28/9/1 23/9/1 22/9/1
f 28/5/1 22/5/1 21/5/1
f 29/9/1 23/9/1 28/9/1
f 30/9/1 23/9/1 29/9/1
f 31/10/1 24/10/1 14/10/1
f 31/5/1 14/5/1 13/5/1
f 31/10/1 25/10/1 24/10/1
f 32/10/1 25/10/1 31/10/1
f 33/10/1 17/10/1 25/10/1
f 33/10/1 25/10/1 32/10/1
f 34/5/1 18/5/1 17/5/1
f 34/10/1 17/10/1 33/10/1
f 35/10/1 27/10/1 26/10/1
f 35/5/1 18/5/1 34/5/1
f 35/10/1 26/10/1 18/10/1
f 36/10/1 27/10/1 35/10/1
f 37/10/1 21/10/1 27/10/1
f 37/10/1 27/10/1 36/10/1
f 38/5/1 29/5/1 28/5/1
f 38/10/1 21/10/1 37/10/1
f 38/5/1 28/5/1 21/5/1
f 39/10/1 33/10/1 32/10/1
f 39/5/1 32/5/1 31/5/1
f 40/5/1 36/5/1 35/5/1
f 40/10/1 33/10/1 39/10/1
f 40/5/1 34/5/1 33/5/1
f 40/5/1 35/5/1 34/5/1
f 41/10/1 37/10/1 36/10/1
f 41/5/1 36/5/1 40/5/1
f 42/5/1 38/5/1 37/5/1
f 42/10/1 37/10/1 41/10/1
f 43/5/1 39/5/1 31/5/1
f 43/5/1 31/5/1 13/5/1
f 43/5/1 42/5/1 41/5/1
f 43/5/1 41/5/1 40/5/1
f 43/5/1 40/5/1 39/5/1
f 44/5/1 42/5/1 43/5/1
f 45/5/1 42/5/1 44/5/1
f 46/5/1 42/5/1 45/5/1
f 47/5/1 42/5/1 46/5/1
f 48/5/1 42/5/1 47/5/1
f 49/5/1 42/5/1 48/5/1
f 50/5/1 38/5/1 42/5/1
f 50/5/1 42/5/1 49/5/1
f 50/5/1 29/5/1 38/5/1
f 51/5/1 45/5/1 44/5/1
f 52/5/1 47/5/1 46/5/1
f 53/5/1 47/5/1 52/5/1
f 54/5/1 49/5/1 48/5/1
f 55/5/1 53/5/1 52/5/1
f 55/5/1 54/5/1 53/5/1
f 55/5/1 51/5/1 44/5/1
f 55/5/1 52/5/1 51/5/1
f 56/5/1 49/5/1 54/5/1
f 56/5/1 54/5/1 55/5/1
f 61/4/1 58/4/1 57/4/1
f 62/4/1 58/4/1 61/4/1
f 63/4/1 60/4/1 59/4/1
f 64/4/1 60/4/1 63/4/1
f 67/5/1 66/5/1 65/5/1
f 68/5/1 66/5/1 67/5/1
f 71/5/1 70/5/1 69/5/1
f 72/5/1 70/5/1 71/5/1
f 75/5/1 74/5/1 73/5/1
f 76/5/1 74/5/1 75/5/1
f 82/10/1 78/10/1 77/10/1
f 83/10/1 78/10/1 82/10/1
f 86/10/1 80/10/1 79/10/1
f 87/10/1 80/10/1 86/10/1
f 89/10/1 84/10/1 83/10/1
f 89/10/1 82/10/1 81/10/1
f 89/10/1 83/10/1 82/10/1
f 90/10/1 84/10/1 89/10/1
f 91/10/1 88/10/1 87/10/1
f 91/10/1 87/10/1 86/10/1
f 91/10/1 86/10/1 85/10/1
f 92/10/1 88/10/1 91/10/1
f 93/10/2 94/10/2 98/10/2
f 98/10/2 94/10/2 99/10/2
f 95/10/2 96/10/2 102/10/2
f 102/10/2 96/10/2 103/10/2
f 99/10/2 100/10/2 105/10/2
f 97/10/2 98/10/2 105/10/2
f 98/10/2 99/10/2 105/10/2
f 105/10/2 100/10/2 106/10/2
f 103/10/2 104/10/2 107/10/2
f 102/10/2 103/10/2 107/10/2
f 101/10/2 102/10/2 107/10/2
f 107/10/2 104/10/2 108/10/2
f 109/5/2 110/5/2 111/5/2
f 111/5/2 110/5/2 112/5/2
f 113/5/2 114/5/2 115/5/2
f 115/5/2 114/5/2 116/5/2
f 117/5/2 118/5/2 119/5/2
f 119/5/2 118/5/2 120/5/2
f 121/4/2 122/4/2 125/4/2
f 125/4/2 122/4/2 126/4/2
f 123/4/2 124/4/2 127/4/2
f 127/4/2 124/4/2 128/4/2
f 129/10/2 130/10/2 134/10/2
f 134/10/2 130/10/2 135/10/2
f 131/10/2 132/10/2 138/10/2
f 138/10/2 132/10/2 139/10/2
f 135/10/2 136/10/2 142/10/2
f 133/10/2 134/10/2 142/10/2
f 134/10/2 135/10/2 142/10/2
f 142/10/2 136/10/2 143/10/2
f 143/10/2 136/10/2 144/10/2
f 144/10/2 136/10/2 145/10/2
f 139/10/2 140/10/2 146/10/2
f 138/10/2 139/10/2 146/10/2
f 137/10/2 138/10/2 146/10/2
f 146/10/2 140/10/2 147/10/2
f 147/10/2 140/10/2 148/10/2
f 148/10/2 140/10/2 149/10/2
f 143/9/2 144/9/2 152/9/2
f 142/10/2 143/10/2 152/10/2
f 144/10/2 145/10/2 153/10/2
f 152/9/2 144/9/2 153/9/2
f 146/10/2 147/10/2 154/10/2
f 147/9/2 148/9/2 154/9/2
f 148/10/2 149/10/2 155/10/2
f 154/9/2 148/9/2 155/9/2
f 150/9/2 151/9/2 156/9/2
f 149/5/2 150/5/2 156/5/2
f 156/9/2 151/9/2 157/9/2
f 157/9/2 151/9/2 158/9/2
f 142/10/2 152/10/2 159/10/2
f 141/5/2 142/5/2 159/5/2
f 152/10/2 153/10/2 159/10/2
f 159/10/2 153/10/2 160/10/2
f 153/10/2 145/10/2 161/10/2
f 160/10/2 153/10/2 161/10/2
f 145/5/2 146/5/2 162/5/2
f 161/10/2 145/10/2 162/10/2
f 154/10/2 155/10/2 163/10/2
f 162/5/2 146/5/2 163/5/2
f 146/10/2 154/10/2 163/10/2
f 163/10/2 155/10/2 164/10/2
f 155/10/2 149/10/2 165/10/2
f 164/10/2 155/10/2 165/10/2
f 156/5/2 157/5/2 166/5/2
f 165/10/2 149/10/2 166/10/2
f 149/5/2 156/5/2 166/5/2
f 160/10/2 161/10/2 167/10/2
f 159/5/2 160/5/2 167/5/2
f 163/5/2 164/5/2 168/5/2
f 167/10/2 161/10/2 168/10/2
f 161/5/2 162/5/2 168/5/2
f 162/5/2 163/5/2 168/5/2
f 164/10/2 165/10/2 169/10/2
f 168/5/2 164/5/2 169/5/2
f 165/5/2 166/5/2 170/5/2
f 169/10/2 165/10/2 170/10/2
f 159/5/2 167/5/2 171/5/2
f 141/5/2 159/5/2 171/5/2
f 169/5/2 170/5/2 171/5/2
f 168/5/2 169/5/2 171/5/2
f 167/5/2 168/5/2 171/5/2
f 171/5/2 170/5/2 172/5/2
f 172/5/2 170/5/2 173/5/2
f 170/5/2 166/5/2 174/5/2
f 173/5/2 170/5/2 174/5/2
f 166/5/2 157/5/2 174/5/2
f 172/5/2 173/5/2 175/5/2
f 175/5/2 173/5/2 176/5/2
f 176/5/2 173/5/2 177/5/2
f 177/5/2 173/5/2 178/5/2
f 172/5/2 175/5/2 179/5/2
f 176/5/2 177/5/2 180/5/2
f 180/5/2 177/5/2 181/5/2
f 178/5/2 173/5/2 182/5/2
f 180/5/2 181/5/2 183/5/2
f 181/5/2 182/5/2 183/5/2
f 172/5/2 179/5/2 183/5/2
f 179/5/2 180/5/2 183/5/2
f 182/5/2 173/5/2 184/5/2
f 183/5/2 182/5/2 184/5/2
f 187/5/3 186/5/3 185/5/3
f 188/5/3 186/5/3 187/5/3
f 191/5/3 190/5/3 189/5/3
f 192/5/3 190/5/3 191/5/3
f 195/10/3 194/10/3 193/10/3
f 196/10/3 195/10/3 193/10/3
f 197/10/3 195/10/3 196/10/3
f 200/10/3 199/10/3 198/10/3
f 201/10/3 200/10/3 198/10/3
f 202/10/3 200/10/3 201/10/3
f 205/10/3 204/10/3 203/10/3
f 206/10/3 204/10/3 205/10/3
f 209/10/3 208/10/3 207/10/3
f 210/10/3 208/10/3 209/10/3
f 213/5/3 212/5/3 211/5/3
f 214/5/3 212/5/3 213/5/3
f 217/5/3 216/5/3 215/5/3
f 218/5/3 216/5/3 217/5/3
f 221/5/3 220/5/3 219/5/3
f 222/5/3 220/5/3 221/5/3
f 225/5/3 224/5/3 223/5/3
f 226/5/3 224/5/3 225/5/3
f 229/10/3 228/10/3 227/10/3
f 230/10/3 229/10/3 227/10/3
f 231/10/3 229/10/3 230/10/3
f 234/10/3 233/10/3 232/10/3
f 235/10/3 234/10/3 232/10/3
f 236/10/3 234/10/3 235/10/3
f 239/10/3 238/10/3 237/10/3
f 240/10/3 238/10/3 239/10/3
f 243/10/3 242/10/3 241/10/3
f 244/10/3 242/10/3 243/10/3
f 245/5/4 246/5/4 247/5/4
f 247/5/4 246/5/4 248/5/4
f 249/5/4 250/5/4 251/5/4
f 251/5/4 250/5/4 252/5/4
f 253/10/4 254/10/4 255/10/4
f 255/10/4 254/10/4 256/10/4
f 257/10/4 258/10/4 259/10/4
f 259/10/4 258/10/4 260/10/4
f 261/10/4 262/10/4 263/10/4
f 261/10/4 263/10/4 264/10/4
f 264/10/4 263/10/4 265/10/4
f 266/5/4 267/5/4 268/5/4
f 268/5/4 267/5/4 269/5/4
f 270/10/4 271/10/4 272/10/4
f 270/10/4 272/10/4 273/10/4
f 273/10/4 272/10/4 274/10/4
f 275/5/4 276/5/4 277/5/4
f 277/5/4 276/5/4 278/5/4
f 279/4/4 280/4/4 281/4/4
f 281/4/4 280/4/4 282/4/4
f 283/5/4 284/5/4 285/5/4
f 285/5/4 284/5/4 286/5/4
f 283/5/4 285/5/4 287/5/4
f 286/5/4 284/5/4 288/5/4
f 283/5/4 287/5/4 289/5/4
f 287/5/4 288/5/4 289/5/4
f 288/5/4 284/5/4 290/5/4
f 289/5/4 288/5/4 290/5/4
f 291/10/4 292/10/4 293/10/4
f 293/10/4 292/10/4 294/10/4
f 295/10/4 296/10/4 297/10/4
f 297/10/4 296/10/4 298/10/4
f 299/10/4 300/10/4 301/10/4
f 299/10/4 301/10/4 302/10/4
f 302/10/4 301/10/4 303/10/4
f 304/10/4 305/10/4 306/10/4
f 304/10/4 306/10/4 307/10/4
f 307/10/4 306/10/4 308/10/4
f 309/1/4 310/1/4 311/1/4
f 311/1/4 310/1/4 312/1/4
f 313/1/4 314/1/4 315/1/4
f 315/1/4 314/1/4 316/1/4
f 317/5/4 318/5/4 319/5/4
f 319/5/4 318/5/4 320/5/4
f 317/5/4 319/5/4 321/5/4
f 320/5/4 318/5/4 322/5/4
f 317/5/4 321/5/4 323/5/4
f 321/5/4 322/5/4 323/5/4
f 322/5/4 318/5/4 324/5/4
f 323/5/4 322/5/4 324/5/4
f 317/5/4 323/5/4 325/5/4
f 324/5/4 318/5/4 326/5/4
f 317/5/4 325/5/4 327/5/4
f 325/5/4 326/5/4 327/5/4
f 326/5/4 318/5/4 328/5/4
f 327/5/4 326/5/4 328/5/4
f 329/9/4 330/9/4 331/9/4
f 331/9/4 330/9/4 332/9/4
f 337/10/5 334/10/5 333/10/5
f 338/10/5 334/10/5 337/10/5
f 339/10/5 336/10/5 335/10/5
f 340/10/5 336/10/5 339/10/5
f 345/10/5 342/10/5 341/10/5
f 346/10/5 342/10/5 345/10/5
f 347/10/5 344/10/5 343/10/5
f 348/10/5 344/10/5 347/10/5
f 353/10/5 350/10/5 349/10/5
f 354/10/5 350/10/5 353/10/5
f 355/10/5 352/10/5 351/10/5
f 356/10/5 352/10/5 355/10/5
f 361/10/5 358/10/5 357/10/5
f 362/10/5 358/10/5 361/10/5
f 363/10/5 360/10/5 359/10/5
f 364/10/5 360/10/5 363/10/5
f 369/10/5 366/10/5 365/10/5
f 370/10/5 366/10/5 369/10/5
f 371/10/5 368/10/5 367/10/5
f 372/10/5 368/10/5 371/10/5
f 377/10/5 374/10/5 373/10/5
f 378/10/5 374/10/5 377/10/5
f 379/10/5 376/10/5 375/10/5
f 380/10/5 376/10/5 379/10/5
f 383/5/5 382/5/5 381/5/5
f 384/5/5 382/5/5 383/5/5
f 385/6/5 384/6/5 383/6/5
f 386/6/5 384/6/5 385/6/5
f 387/5/5 382/5/5 384/5/5
f 387/6/5 384/6/5 386/6/5
f 388/5/5 382/5/5 387/5/5
f 389/5/5 383/5/5 381/5/5
f 390/6/5 385/6/5 383/6/5
f 390/5/5 383/5/5 389/5/5
f 391/6/5 385/6/5 390/6/5
f 392/6/5 385/6/5 391/6/5
f 393/10/5 386/10/5 385/10/5
f 393/6/5 385/6/5 392/6/5
f 394/10/5 386/10/5 393/10/5
f 399/10/5 392/10/5 391/10/5
f 400/6/5 393/6/5 392/6/5
f 400/6/5 394/6/5 393/6/5
f 400/10/5 392/10/5 399/10/5
f 400/6/5 395/6/5 394/6/5
f 401/5/5 398/5/5 397/5/5
f 402/6/5 399/6/5 398/6/5
f 402/5/5 398/5/5 401/5/5
f 402/6/5 400/6/5 399/6/5
f 403/6/5 400/6/5 402/6/5
f 404/6/5 395/6/5 400/6/5
f 404/6/5 400/6/5 403/6/5
f 405/6/5 395/6/5 404/6/5
f 406/6/5 395/6/5 405/6/5
f 407/5/5 396/5/5 395/5/5
f 407/6/5 395/6/5 406/6/5
f 408/5/5 396/5/5 407/5/5
f 411/10/5 404/10/5 403/10/5
f 412/6/5 405/6/5 404/6/5
f 412/10/5 404/10/5 411/10/5
f 413/10/5 406/10/5 405/10/5
f 413/6/5 405/6/5 412/6/5
f 414/10/5 406/10/5 413/10/5
f 417/5/5 410/5/5 409/5/5
f 418/6/5 412/6/5 411/6/5
f 418/5/5 410/5/5 417/5/5
f 418/6/5 411/6/5 410/6/5
f 418/6/5 415/6/5 414/6/5
f 418/6/5 414/6/5 413/6/5
f 418/6/5 413/6/5 412/6/5
f 419/6/5 415/6/5 418/6/5
f 420/6/5 415/6/5 419/6/5
f 421/5/5 416/5/5 415/5/5
f 421/6/5 415/6/5 420/6/5
f 422/5/5 416/5/5 421/5/5
f 423/6/5 420/6/5 419/6/5
f 423/9/5 418/9/5 417/9/5
f 423/9/5 419/9/5 418/9/5
f 424/9/5 422/9/5 421/9/5
f 424/6/5 420/6/5 423/6/5
f 424/9/5 421/9/5 420/9/5
f 425/9/5 423/9/5 417/9/5
f 425/9/5 424/9/5 423/9/5
f 426/9/5 422/9/5 424/9/5
f 426/9/5 424/9/5 425/9/5
f 431/5/5 428/5/5 427/5/5
f 432/5/5 428/5/5 431/5/5
f 433/5/5 430/5/5 429/5/5
f 434/5/5 430/5/5 433/5/5
f 437/5/5 436/5/5 435/5/5
f 438/5/5 436/5/5 437/5/5
f 441/5/5 440/5/5 439/5/5
f 442/5/5 440/5/5 441/5/5
f 445/5/5 444/5/5 443/5/5
f 446/5/5 444/5/5 445/5/5
f 449/5/5 448/5/5 447/5/5
f 450/5/5 448/5/5 449/5/5
f 453/5/5 452/5/5 451/5/5
f 454/5/5 452/5/5 453/5/5
f 455/9/6 456/9/6 457/9/6
f 457/9/6 456/9/6 458/9/6
f 459/5/6 460/5/6 463/5/6
f 463/5/6 460/5/6 464/5/6
f 461/5/6 462/5/6 465/5/6
f 465/5/6 462/5/6 466/5/6
f 467/5/6 468/5/6 469/5/6
f 469/5/6 468/5/6 470/5/6
f 471/5/6 472/5/6 473/5/6
f 473/5/6 472/5/6 474/5/6
f 475/5/6 476/5/6 477/5/6
f 477/5/6 476/5/6 478/5/6
f 479/5/6 480/5/6 481/5/6
f 481/5/6 480/5/6 482/5/6
f 483/5/6 484/5/6 485/5/6
f 485/5/6 484/5/6 486/5/6
f 487/5/6 488/5/6 489/5/6
f 489/5/6 488/5/6 490/5/6
f 491/5/6 492/5/6 493/5/6
f 493/5/6 492/5/6 494/5/6
f 495/5/6 496/5/6 497/5/6
f 497/5/6 496/5/6 498/5/6
