# 3ds Max Wavefront OBJ Exporter v0.99 - (c)2007 guruware
# File Created: 16.04.2022 17:13:48

mtllib helicopter_helice.mtl

#
# object helicopter_helice
#

v  -8.3942 0.2386 0.4087
v  -8.3942 -0.1614 -0.3913
v  -8.3942 -0.1614 0.4087
v  -8.3942 0.2386 -0.3913
v  -0.3942 0.2386 6.0087
v  -0.3942 -0.1614 0.4087
v  -0.3942 -0.1614 6.0087
v  -0.3942 0.2386 0.4087
v  -0.3942 0.2386 -0.3913
v  -0.3942 -0.1614 -5.5913
v  -0.3942 -0.1614 -0.3913
v  -0.3942 0.2386 -5.5913
v  0.4058 -0.1614 6.0087
v  0.4058 -0.1614 0.4087
v  0.4058 0.2386 6.0087
v  0.4058 0.2386 0.4087
v  0.4058 -0.1614 -0.3913
v  0.4058 -0.1614 -5.5913
v  0.4058 0.2386 -0.3913
v  0.4058 0.2386 -5.5913
v  8.4058 -0.1614 0.4087
v  8.4058 -0.1614 -0.3913
v  8.4058 0.2386 0.4087
v  8.4058 0.2386 -0.3913
# 24 vertices

vn -1.0000 0.0000 -0.0000
vn 1.0000 0.0000 -0.0000
vn 0.0000 0.0000 1.0000
vn 0.0000 0.0000 -1.0000
vn 0.0000 -1.0000 -0.0000
vn 0.0000 1.0000 -0.0000
# 6 vertex normals

vt 0.9941 0.5000 0.0000
vt 0.9863 0.5000 0.0000
# 2 texture coords

o helicopter_helice
g helicopter_helice
usemtl helicopter_helice_palette
s 1
f 1/1/1 2/1/1 3/1/1 
f 4/1/1 2/1/1 1/1/1 
f 5/1/1 6/1/1 7/1/1 
f 8/1/1 6/1/1 5/1/1 
f 9/1/1 10/1/1 11/1/1 
f 12/1/1 10/1/1 9/1/1 
f 13/1/2 14/1/2 15/1/2 
f 15/1/2 14/1/2 16/1/2 
f 17/1/2 18/1/2 19/1/2 
f 19/1/2 18/1/2 20/1/2 
f 21/1/2 22/1/2 23/1/2 
f 23/1/2 22/1/2 24/1/2 
f 13/1/3 5/1/3 7/1/3 
f 15/1/3 5/1/3 13/1/3 
f 6/1/3 1/1/3 3/1/3 
f 8/1/3 1/1/3 6/1/3 
f 21/1/3 16/1/3 14/1/3 
f 23/1/3 16/1/3 21/1/3 
f 2/1/4 4/1/4 11/1/4 
f 11/1/4 4/1/4 9/1/4 
f 17/1/4 19/1/4 22/1/4 
f 22/1/4 19/1/4 24/1/4 
f 10/1/4 12/1/4 18/1/4 
f 18/1/4 12/1/4 20/1/4 
f 6/1/5 13/1/5 7/1/5 
f 14/1/5 13/1/5 6/1/5 
f 2/1/5 6/1/5 3/1/5 
f 11/2/5 14/2/5 6/2/5 
f 11/1/5 6/1/5 2/1/5 
f 17/1/5 21/1/5 14/1/5 
f 17/2/5 14/2/5 11/2/5 
f 22/1/5 21/1/5 17/1/5 
f 10/1/5 17/1/5 11/1/5 
f 18/1/5 17/1/5 10/1/5 
f 5/1/6 15/1/6 8/1/6 
f 8/1/6 15/1/6 16/1/6 
f 1/1/6 8/1/6 4/1/6 
f 8/2/6 16/2/6 9/2/6 
f 4/1/6 8/1/6 9/1/6 
f 16/1/6 23/1/6 19/1/6 
f 9/2/6 16/2/6 19/2/6 
f 19/1/6 23/1/6 24/1/6 
f 9/1/6 19/1/6 12/1/6 
f 12/1/6 19/1/6 20/1/6 
# 44 faces

