# MagicaVoxel @ Ephtracy

# group
o 

# material
mtllib b4Signal.mtl
usemtl palette

# normals
vn -1 0 0
vn 1 0 0
vn 0 0 1
vn 0 0 -1
vn 0 -1 0
vn 0 1 0

# texcoords
vt 0.158203 0.5
vt 0.216797 0.5
vt 0.759766 0.5
vt 0.787109 0.5
vt 0.876953 0.5
vt 0.958984 0.5

# verts
v -0.1 5.4 1
v -0.1 5.4 -0.7
v -0.1 5.6 0.6
v -0.1 5.6 -0.2
v -0.1 5.7 0.3
v -0.1 5.7 0.1
v -0.1 5.8 0.3
v -0.1 5.8 0.1
v -0.1 5.9 0.7
v -0.1 5.9 0.6
v -0.1 5.9 -0.2
v -0.1 5.9 -0.3
v -0.1 6 0.4
v -0.1 6 0.3
v -0.1 6 0.1
v -0.1 6 0
v -0.1 6.2 0.6
v -0.1 6.2 0.5
v -0.1 6.2 0.4
v -0.1 6.2 0.3
v -0.1 6.2 0.1
v -0.1 6.2 0
v -0.1 6.2 -0.1
v -0.1 6.2 -0.2
v -0.1 6.3 0.7
v -0.1 6.3 0.6
v -0.1 6.3 0.5
v -0.1 6.3 -0.1
v -0.1 6.4 0.6
v -0.1 6.4 0.5
v -0.1 6.4 -0.3
v -0.1 6.4 -0.4
v -0.1 6.5 0.8
v -0.1 6.5 0.7
v -0.1 6.5 0.5
v -0.1 6.5 0.2
v -0.1 6.5 0
v -0.1 6.5 -0.1
v -0.1 6.5 -0.3
v -0.1 6.5 -0.4
v -0.1 6.5 -0.6
v -0.1 6.6 0.9
v -0.1 6.6 0.8
v -0.1 6.6 0.7
v -0.1 6.6 0.6
v -0.1 6.6 0.4
v -0.1 6.6 0.3
v -0.1 6.6 -0.4
v -0.1 6.6 -0.6
v -0.1 6.7 -0.4
v -0.1 6.7 -0.5
v -0.1 6.8 0.4
v -0.1 6.8 0.3
v -0.1 6.8 0.1
v -0.1 6.8 0
v -0.1 6.8 -0.1
v -0.1 6.8 -0.2
v -0.1 6.8 -0.5
v -0.1 6.8 -0.6
v -0.1 6.9 0.9
v -0.1 6.9 0.8
v -0.1 6.9 0.7
v -0.1 6.9 0.6
v -0.1 6.9 0.5
v -0.1 6.9 0.2
v -0.1 6.9 0.1
v -0.1 6.9 -0.2
v -0.1 6.9 -0.3
v -0.1 6.9 -0.6
v -0.1 7 1
v -0.1 7 -0.7
v 0 5.4 1
v 0 5.4 -0.7
v 0 5.6 0.6
v 0 5.6 -0.2
v 0 5.7 0.3
v 0 5.7 0.1
v 0 5.8 0.3
v 0 5.8 0.1
v 0 5.9 0.7
v 0 5.9 0.6
v 0 5.9 -0.2
v 0 5.9 -0.3
v 0 6 0.4
v 0 6 0.3
v 0 6 0.1
v 0 6 0
v 0 6.2 0.6
v 0 6.2 0.5
v 0 6.2 0.4
v 0 6.2 0.3
v 0 6.2 0.1
v 0 6.2 0
v 0 6.2 -0.1
v 0 6.2 -0.2
v 0 6.3 0.7
v 0 6.3 0.6
v 0 6.3 0.5
v 0 6.3 -0.1
v 0 6.4 0.6
v 0 6.4 0.5
v 0 6.4 -0.3
v 0 6.4 -0.4
v 0 6.5 0.8
v 0 6.5 0.7
v 0 6.5 0.5
v 0 6.5 0.2
v 0 6.5 0
v 0 6.5 -0.1
v 0 6.5 -0.3
v 0 6.5 -0.4
v 0 6.5 -0.6
v 0 6.6 0.9
v 0 6.6 0.8
v 0 6.6 0.7
v 0 6.6 0.6
v 0 6.6 0.4
v 0 6.6 0.3
v 0 6.6 -0.4
v 0 6.6 -0.6
v 0 6.7 -0.4
v 0 6.7 -0.5
v 0 6.8 0.4
v 0 6.8 0.3
v 0 6.8 0.1
v 0 6.8 0
v 0 6.8 -0.1
v 0 6.8 -0.2
v 0 6.8 -0.5
v 0 6.8 -0.6
v 0 6.9 0.9
v 0 6.9 0.8
v 0 6.9 0.7
v 0 6.9 0.6
v 0 6.9 0.5
v 0 6.9 0.2
v 0 6.9 0.1
v 0 6.9 -0.2
v 0 6.9 -0.3
v 0 6.9 -0.6
v 0 7 1
v 0 7 -0.7
v -0.1 5.4 1
v -0.1 7 1
v 0 5.4 1
v 0 7 1
v -0.1 5.4 -0.7
v -0.1 7 -0.7
v 0 5.4 -0.7
v 0 7 -0.7
v -0.1 5.4 1
v 0 5.4 1
v -0.1 5.4 -0.7
v 0 5.4 -0.7
v -0.1 7 1
v 0 7 1
v -0.1 7 -0.7
v 0 7 -0.7

# faces
f 3/5/1 2/5/1 1/5/1
f 4/5/1 2/5/1 3/5/1
f 5/2/1 4/2/1 3/2/1
f 6/2/1 4/2/1 5/2/1
f 7/2/1 5/2/1 3/2/1
f 7/6/1 6/6/1 5/6/1
f 8/2/1 4/2/1 6/2/1
f 8/6/1 6/6/1 7/6/1
f 9/5/1 3/5/1 1/5/1
f 10/2/1 7/2/1 3/2/1
f 10/5/1 3/5/1 9/5/1
f 10/2/1 8/2/1 7/2/1
f 11/2/1 4/2/1 8/2/1
f 11/2/1 8/2/1 10/2/1
f 11/5/1 2/5/1 4/5/1
f 12/5/1 2/5/1 11/5/1
f 13/2/1 11/2/1 10/2/1
f 14/2/1 11/2/1 13/2/1
f 15/2/1 11/2/1 14/2/1
f 16/2/1 11/2/1 15/2/1
f 17/1/1 10/1/1 9/1/1
f 17/2/1 13/2/1 10/2/1
f 18/2/1 13/2/1 17/2/1
f 19/3/1 14/3/1 13/3/1
f 19/2/1 13/2/1 18/2/1
f 20/2/1 15/2/1 14/2/1
f 20/3/1 14/3/1 19/3/1
f 21/3/1 16/3/1 15/3/1
f 21/2/1 15/2/1 20/2/1
f 22/2/1 11/2/1 16/2/1
f 22/3/1 16/3/1 21/3/1
f 23/2/1 11/2/1 22/2/1
f 24/1/1 12/1/1 11/1/1
f 24/2/1 11/2/1 23/2/1
f 25/5/1 9/5/1 1/5/1
f 25/1/1 18/1/1 17/1/1
f 25/1/1 17/1/1 9/1/1
f 26/1/1 18/1/1 25/1/1
f 27/2/1 21/2/1 20/2/1
f 27/1/1 18/1/1 26/1/1
f 27/2/1 23/2/1 22/2/1
f 27/2/1 20/2/1 19/2/1
f 27/2/1 22/2/1 21/2/1
f 27/2/1 19/2/1 18/2/1
f 28/1/1 24/1/1 23/1/1
f 28/2/1 23/2/1 27/2/1
f 29/5/1 26/5/1 25/5/1
f 29/1/1 27/1/1 26/1/1
f 29/1/1 28/1/1 27/1/1
f 30/1/1 28/1/1 29/1/1
f 31/1/1 24/1/1 28/1/1
f 31/1/1 28/1/1 30/1/1
f 31/1/1 12/1/1 24/1/1
f 31/5/1 2/5/1 12/5/1
f 32/5/1 2/5/1 31/5/1
f 33/5/1 30/5/1 29/5/1
f 33/5/1 29/5/1 25/5/1
f 33/5/1 25/5/1 1/5/1
f 34/5/1 30/5/1 33/5/1
f 35/1/1 32/1/1 31/1/1
f 35/5/1 30/5/1 34/5/1
f 35/1/1 31/1/1 30/1/1
f 36/1/1 32/1/1 35/1/1
f 37/1/1 32/1/1 36/1/1
f 38/1/1 32/1/1 37/1/1
f 39/1/1 32/1/1 38/1/1
f 40/5/1 2/5/1 32/5/1
f 40/1/1 32/1/1 39/1/1
f 41/5/1 2/5/1 40/5/1
f 42/5/1 33/5/1 1/5/1
f 43/4/1 34/4/1 33/4/1
f 43/5/1 33/5/1 42/5/1
f 44/5/1 35/5/1 34/5/1
f 44/4/1 34/4/1 43/4/1
f 45/5/1 35/5/1 44/5/1
f 46/4/1 36/4/1 35/4/1
f 47/4/1 36/4/1 46/4/1
f 48/4/1 40/4/1 39/4/1
f 48/4/1 41/4/1 40/4/1
f 49/5/1 2/5/1 41/5/1
f 49/4/1 41/4/1 48/4/1
f 50/4/1 48/4/1 39/4/1
f 50/5/1 49/5/1 48/5/1
f 51/5/1 49/5/1 50/5/1
f 52/5/1 47/5/1 46/5/1
f 52/4/1 46/4/1 35/4/1
f 53/4/1 36/4/1 47/4/1
f 53/5/1 47/5/1 52/5/1
f 54/5/1 37/5/1 36/5/1
f 55/4/1 38/4/1 37/4/1
f 55/5/1 37/5/1 54/5/1
f 56/5/1 39/5/1 38/5/1
f 56/4/1 38/4/1 55/4/1
f 57/5/1 39/5/1 56/5/1
f 58/5/1 49/5/1 51/5/1
f 58/4/1 51/4/1 50/4/1
f 59/5/1 2/5/1 49/5/1
f 59/5/1 49/5/1 58/5/1
f 60/5/1 42/5/1 1/5/1
f 60/4/1 43/4/1 42/4/1
f 61/5/1 44/5/1 43/5/1
f 61/4/1 43/4/1 60/4/1
f 62/4/1 45/4/1 44/4/1
f 62/5/1 44/5/1 61/5/1
f 63/5/1 35/5/1 45/5/1
f 63/4/1 45/4/1 62/4/1
f 64/4/1 52/4/1 35/4/1
f 64/5/1 35/5/1 63/5/1
f 64/4/1 53/4/1 52/4/1
f 65/4/1 36/4/1 53/4/1
f 65/4/1 53/4/1 64/4/1
f 65/5/1 54/5/1 36/5/1
f 66/4/1 55/4/1 54/4/1
f 66/5/1 54/5/1 65/5/1
f 66/4/1 56/4/1 55/4/1
f 66/4/1 57/4/1 56/4/1
f 67/5/1 39/5/1 57/5/1
f 67/4/1 57/4/1 66/4/1
f 68/4/1 58/4/1 50/4/1
f 68/5/1 39/5/1 67/5/1
f 68/4/1 59/4/1 58/4/1
f 68/4/1 50/4/1 39/4/1
f 69/5/1 2/5/1 59/5/1
f 69/4/1 59/4/1 68/4/1
f 70/5/1 65/5/1 64/5/1
f 70/5/1 68/5/1 67/5/1
f 70/5/1 69/5/1 68/5/1
f 70/5/1 66/5/1 65/5/1
f 70/5/1 63/5/1 62/5/1
f 70/5/1 60/5/1 1/5/1
f 70/5/1 64/5/1 63/5/1
f 70/5/1 62/5/1 61/5/1
f 70/5/1 61/5/1 60/5/1
f 70/5/1 67/5/1 66/5/1
f 71/5/1 2/5/1 69/5/1
f 71/5/1 69/5/1 70/5/1
f 72/5/2 73/5/2 74/5/2
f 74/5/2 73/5/2 75/5/2
f 74/2/2 75/2/2 76/2/2
f 76/2/2 75/2/2 77/2/2
f 74/2/2 76/2/2 78/2/2
f 76/6/2 77/6/2 78/6/2
f 77/2/2 75/2/2 79/2/2
f 78/6/2 77/6/2 79/6/2
f 72/5/2 74/5/2 80/5/2
f 74/2/2 78/2/2 81/2/2
f 80/5/2 74/5/2 81/5/2
f 78/2/2 79/2/2 81/2/2
f 79/2/2 75/2/2 82/2/2
f 81/2/2 79/2/2 82/2/2
f 75/5/2 73/5/2 82/5/2
f 82/5/2 73/5/2 83/5/2
f 81/2/2 82/2/2 84/2/2
f 84/2/2 82/2/2 85/2/2
f 85/2/2 82/2/2 86/2/2
f 86/2/2 82/2/2 87/2/2
f 80/1/2 81/1/2 88/1/2
f 81/2/2 84/2/2 88/2/2
f 88/2/2 84/2/2 89/2/2
f 84/3/2 85/3/2 90/3/2
f 89/2/2 84/2/2 90/2/2
f 85/2/2 86/2/2 91/2/2
f 90/3/2 85/3/2 91/3/2
f 86/3/2 87/3/2 92/3/2
f 91/2/2 86/2/2 92/2/2
f 87/2/2 82/2/2 93/2/2
f 92/3/2 87/3/2 93/3/2
f 93/2/2 82/2/2 94/2/2
f 82/1/2 83/1/2 95/1/2
f 94/2/2 82/2/2 95/2/2
f 72/5/2 80/5/2 96/5/2
f 88/1/2 89/1/2 96/1/2
f 80/1/2 88/1/2 96/1/2
f 96/1/2 89/1/2 97/1/2
f 91/2/2 92/2/2 98/2/2
f 97/1/2 89/1/2 98/1/2
f 93/2/2 94/2/2 98/2/2
f 90/2/2 91/2/2 98/2/2
f 92/2/2 93/2/2 98/2/2
f 89/2/2 90/2/2 98/2/2
f 94/1/2 95/1/2 99/1/2
f 98/2/2 94/2/2 99/2/2
f 96/5/2 97/5/2 100/5/2
f 97/1/2 98/1/2 100/1/2
f 98/1/2 99/1/2 100/1/2
f 100/1/2 99/1/2 101/1/2
f 99/1/2 95/1/2 102/1/2
f 101/1/2 99/1/2 102/1/2
f 95/1/2 83/1/2 102/1/2
f 83/5/2 73/5/2 102/5/2
f 102/5/2 73/5/2 103/5/2
f 100/5/2 101/5/2 104/5/2
f 96/5/2 100/5/2 104/5/2
f 72/5/2 96/5/2 104/5/2
f 104/5/2 101/5/2 105/5/2
f 102/1/2 103/1/2 106/1/2
f 105/5/2 101/5/2 106/5/2
f 101/1/2 102/1/2 106/1/2
f 106/1/2 103/1/2 107/1/2
f 107/1/2 103/1/2 108/1/2
f 108/1/2 103/1/2 109/1/2
f 109/1/2 103/1/2 110/1/2
f 103/5/2 73/5/2 111/5/2
f 110/1/2 103/1/2 111/1/2
f 111/5/2 73/5/2 112/5/2
f 72/5/2 104/5/2 113/5/2
f 104/4/2 105/4/2 114/4/2
f 113/5/2 104/5/2 114/5/2
f 105/5/2 106/5/2 115/5/2
f 114/4/2 105/4/2 115/4/2
f 115/5/2 106/5/2 116/5/2
f 106/4/2 107/4/2 117/4/2
f 117/4/2 107/4/2 118/4/2
f 110/4/2 111/4/2 119/4/2
f 111/4/2 112/4/2 119/4/2
f 112/5/2 73/5/2 120/5/2
f 119/4/2 112/4/2 120/4/2
f 110/4/2 119/4/2 121/4/2
f 119/5/2 120/5/2 121/5/2
f 121/5/2 120/5/2 122/5/2
f 117/5/2 118/5/2 123/5/2
f 106/4/2 117/4/2 123/4/2
f 118/4/2 107/4/2 124/4/2
f 123/5/2 118/5/2 124/5/2
f 107/5/2 108/5/2 125/5/2
f 108/4/2 109/4/2 126/4/2
f 125/5/2 108/5/2 126/5/2
f 109/5/2 110/5/2 127/5/2
f 126/4/2 109/4/2 127/4/2
f 127/5/2 110/5/2 128/5/2
f 122/5/2 120/5/2 129/5/2
f 121/4/2 122/4/2 129/4/2
f 120/5/2 73/5/2 130/5/2
f 129/5/2 120/5/2 130/5/2
f 72/5/2 113/5/2 131/5/2
f 113/4/2 114/4/2 131/4/2
f 114/5/2 115/5/2 132/5/2
f 131/4/2 114/4/2 132/4/2
f 115/4/2 116/4/2 133/4/2
f 132/5/2 115/5/2 133/5/2
f 116/5/2 106/5/2 134/5/2
f 133/4/2 116/4/2 134/4/2
f 106/4/2 123/4/2 135/4/2
f 134/5/2 106/5/2 135/5/2
f 123/4/2 124/4/2 135/4/2
f 124/4/2 107/4/2 136/4/2
f 135/4/2 124/4/2 136/4/2
f 107/5/2 125/5/2 136/5/2
f 125/4/2 126/4/2 137/4/2
f 136/5/2 125/5/2 137/5/2
f 126/4/2 127/4/2 137/4/2
f 127/4/2 128/4/2 137/4/2
f 128/5/2 110/5/2 138/5/2
f 137/4/2 128/4/2 138/4/2
f 121/4/2 129/4/2 139/4/2
f 138/5/2 110/5/2 139/5/2
f 129/4/2 130/4/2 139/4/2
f 110/4/2 121/4/2 139/4/2
f 130/5/2 73/5/2 140/5/2
f 139/4/2 130/4/2 140/4/2
f 135/5/2 136/5/2 141/5/2
f 138/5/2 139/5/2 141/5/2
f 139/5/2 140/5/2 141/5/2
f 136/5/2 137/5/2 141/5/2
f 133/5/2 134/5/2 141/5/2
f 72/5/2 131/5/2 141/5/2
f 134/5/2 135/5/2 141/5/2
f 132/5/2 133/5/2 141/5/2
f 131/5/2 132/5/2 141/5/2
f 137/5/2 138/5/2 141/5/2
f 140/5/2 73/5/2 142/5/2
f 141/5/2 140/5/2 142/5/2
f 145/5/3 144/5/3 143/5/3
f 146/5/3 144/5/3 145/5/3
f 147/5/4 148/5/4 149/5/4
f 149/5/4 148/5/4 150/5/4
f 153/5/5 152/5/5 151/5/5
f 154/5/5 152/5/5 153/5/5
f 155/5/6 156/5/6 157/5/6
f 157/5/6 156/5/6 158/5/6
