# Blender 3.1.0
# www.blender.org
mtllib b4Signal_luz.mtl
o Cube
v 0.300000 1.500000 -1.500000
v 0.300000 -1.500000 -1.500000
v 0.300000 1.500000 1.500000
v 0.300000 -1.500000 1.500000
v -0.300000 1.500000 -1.500000
v -0.300000 -1.500000 -1.500000
v -0.300000 1.500000 1.500000
v -0.300000 -1.500000 1.500000
vn -0.0000 1.5000 -0.0000
vn -0.0000 -0.0000 1.5000
vn -0.3000 -0.0000 -0.0000
vn -0.0000 -1.5000 -0.0000
vn 0.3000 -0.0000 -0.0000
vn -0.0000 -0.0000 -1.5000
vt 0.087891 0.666016
vt 0.465600 0.530424
vt 0.353516 0.917969
vt 0.375000 0.675781
vt 0.465600 0.016451
vt 0.103516 0.917969
vt 0.087891 0.916016
vt 0.332031 0.691406
vt 0.003150 0.530424
vt 0.082031 0.691406
vt 0.375000 0.925781
vt 0.003150 0.016451
vt 0.337891 0.666016
vt 0.361328 0.927734
vt 0.353516 0.667969
vt 0.111328 0.927734
vt 0.125000 0.675781
vt 0.103516 0.667969
vt 0.337891 0.916016
vt 0.332031 0.941406
vt 0.361328 0.677734
vt 0.082031 0.941406
vt 0.111328 0.677734
vt 0.125000 0.925781
s 0
usemtl Material
f 1/1/1 5/13/1 7/19/1 3/7/1
f 4/10/2 3/8/2 7/20/2 8/22/2
f 8/23/3 7/21/3 5/14/3 6/16/3
f 6/17/4 2/4/4 4/11/4 8/24/4
f 2/5/5 1/2/5 3/9/5 4/12/5
f 6/18/6 5/15/6 1/3/6 2/6/6
