# MagicaVoxel @ Ephtracy

# group
o 

# material
mtllib cloud_signal.mtl
usemtl palette

# normals
vn -1 0 0
vn 1 0 0
vn 0 0 1
vn 0 0 -1
vn 0 -1 0
vn 0 1 0

# texcoords
vt 0.732422 0.5
vt 0.748047 0.5
vt 0.775391 0.5

# verts
v 1 7.7 2.4
v 1 7.7 2.2
v 1 9.1 2.4
v 1 9.1 2.2
v 3.2 7.7 2.4
v 3.2 7.7 2.2
v 3.2 9.1 2.4
v 3.2 9.1 2.2
v 1 7.7 2.4
v 1 9.1 2.4
v 1.2 8.1 2.4
v 1.2 8.4 2.4
v 1.3 8 2.4
v 1.3 8.1 2.4
v 1.3 8.4 2.4
v 1.3 8.5 2.4
v 1.4 7.9 2.4
v 1.4 8 2.4
v 1.4 8.1 2.4
v 1.4 8.4 2.4
v 1.4 8.5 2.4
v 1.4 8.6 2.4
v 1.7 8.5 2.4
v 1.7 8.6 2.4
v 1.7 8.7 2.4
v 1.8 8.6 2.4
v 1.8 8.7 2.4
v 1.8 8.8 2.4
v 2 8.7 2.4
v 2 8.8 2.4
v 2 8.9 2.4
v 2.4 8.7 2.4
v 2.4 8.8 2.4
v 2.4 8.9 2.4
v 2.5 8.6 2.4
v 2.5 8.7 2.4
v 2.5 8.8 2.4
v 2.6 8.5 2.4
v 2.6 8.6 2.4
v 2.6 8.7 2.4
v 2.7 8.4 2.4
v 2.7 8.5 2.4
v 2.7 8.6 2.4
v 2.8 7.9 2.4
v 2.8 8 2.4
v 2.8 8.1 2.4
v 2.9 8 2.4
v 2.9 8.1 2.4
v 2.9 8.4 2.4
v 2.9 8.5 2.4
v 3 8.1 2.4
v 3 8.4 2.4
v 3.2 7.7 2.4
v 3.2 9.1 2.4
v 1 7.7 2.2
v 1 9.1 2.2
v 3.2 7.7 2.2
v 3.2 9.1 2.2
v 1 7.7 2.4
v 3.2 7.7 2.4
v 1 7.7 2.2
v 3.2 7.7 2.2
v 1 9.1 2.4
v 3.2 9.1 2.4
v 1 9.1 2.2
v 3.2 9.1 2.2

# faces
f 3/1/1 2/1/1 1/1/1
f 4/1/1 2/1/1 3/1/1
f 5/1/2 6/1/2 7/1/2
f 7/1/2 6/1/2 8/1/2
f 11/1/3 10/1/3 9/1/3
f 12/1/3 10/1/3 11/1/3
f 13/1/3 11/1/3 9/1/3
f 14/3/3 12/3/3 11/3/3
f 14/1/3 11/1/3 13/1/3
f 15/1/3 10/1/3 12/1/3
f 15/3/3 12/3/3 14/3/3
f 16/1/3 10/1/3 15/1/3
f 17/1/3 13/1/3 9/1/3
f 18/3/3 14/3/3 13/3/3
f 18/1/3 13/1/3 17/1/3
f 19/2/3 15/2/3 14/2/3
f 19/3/3 14/3/3 18/3/3
f 20/3/3 16/3/3 15/3/3
f 20/2/3 15/2/3 19/2/3
f 21/1/3 10/1/3 16/1/3
f 21/3/3 16/3/3 20/3/3
f 22/1/3 10/1/3 21/1/3
f 23/2/3 20/2/3 19/2/3
f 23/2/3 19/2/3 18/2/3
f 23/3/3 22/3/3 21/3/3
f 23/2/3 21/2/3 20/2/3
f 24/1/3 10/1/3 22/1/3
f 24/3/3 22/3/3 23/3/3
f 25/1/3 10/1/3 24/1/3
f 26/2/3 24/2/3 23/2/3
f 26/3/3 25/3/3 24/3/3
f 27/1/3 10/1/3 25/1/3
f 27/3/3 25/3/3 26/3/3
f 28/1/3 10/1/3 27/1/3
f 29/2/3 27/2/3 26/2/3
f 29/3/3 28/3/3 27/3/3
f 30/1/3 10/1/3 28/1/3
f 30/3/3 28/3/3 29/3/3
f 31/1/3 10/1/3 30/1/3
f 32/2/3 29/2/3 26/2/3
f 32/2/3 30/2/3 29/2/3
f 33/3/3 31/3/3 30/3/3
f 33/2/3 30/2/3 32/2/3
f 34/1/3 10/1/3 31/1/3
f 34/3/3 31/3/3 33/3/3
f 35/2/3 26/2/3 23/2/3
f 35/2/3 32/2/3 26/2/3
f 36/3/3 33/3/3 32/3/3
f 36/2/3 32/2/3 35/2/3
f 37/1/3 34/1/3 33/1/3
f 37/3/3 33/3/3 36/3/3
f 38/2/3 23/2/3 18/2/3
f 38/2/3 35/2/3 23/2/3
f 39/3/3 36/3/3 35/3/3
f 39/2/3 35/2/3 38/2/3
f 40/1/3 37/1/3 36/1/3
f 40/3/3 36/3/3 39/3/3
f 41/2/3 38/2/3 18/2/3
f 42/3/3 39/3/3 38/3/3
f 42/2/3 38/2/3 41/2/3
f 43/1/3 40/1/3 39/1/3
f 43/3/3 39/3/3 42/3/3
f 44/1/3 17/1/3 9/1/3
f 44/3/3 18/3/3 17/3/3
f 45/2/3 41/2/3 18/2/3
f 45/3/3 18/3/3 44/3/3
f 46/2/3 41/2/3 45/2/3
f 47/1/3 45/1/3 44/1/3
f 47/3/3 46/3/3 45/3/3
f 48/2/3 41/2/3 46/2/3
f 48/3/3 46/3/3 47/3/3
f 49/3/3 42/3/3 41/3/3
f 49/2/3 41/2/3 48/2/3
f 50/1/3 43/1/3 42/1/3
f 50/3/3 42/3/3 49/3/3
f 51/3/3 49/3/3 48/3/3
f 51/1/3 48/1/3 47/1/3
f 52/1/3 50/1/3 49/1/3
f 52/3/3 49/3/3 51/3/3
f 53/1/3 44/1/3 9/1/3
f 53/1/3 51/1/3 47/1/3
f 53/1/3 52/1/3 51/1/3
f 53/1/3 47/1/3 44/1/3
f 54/1/3 40/1/3 43/1/3
f 54/1/3 52/1/3 53/1/3
f 54/1/3 34/1/3 37/1/3
f 54/1/3 37/1/3 40/1/3
f 54/1/3 50/1/3 52/1/3
f 54/1/3 10/1/3 34/1/3
f 54/1/3 43/1/3 50/1/3
f 55/1/4 56/1/4 57/1/4
f 57/1/4 56/1/4 58/1/4
f 61/1/5 60/1/5 59/1/5
f 62/1/5 60/1/5 61/1/5
f 63/1/6 64/1/6 65/1/6
f 65/1/6 64/1/6 66/1/6
