# MagicaVoxel @ Ephtracy

# group
o 

# material
mtllib GothSignal.mtl
usemtl palette

# normals
vn -1 0 0
vn 1 0 0
vn 0 0 1
vn 0 0 -1
vn 0 -1 0
vn 0 1 0

# texcoords
vt 0.416016 0.5
vt 0.533203 0.5
vt 0.814453 0.5

# verts
v 1.4 11.4 3.9
v 1.4 11.4 3.1
v 1.4 14.8 3.9
v 1.4 14.8 3.1
v 2 12.9 3.8
v 2 12.9 3.7
v 2 13.2 3.8
v 2 13.6 3.8
v 2 13.7 3.8
v 2 13.8 3.8
v 2 13.9 3.8
v 2 13.9 3.7
v 1.8 12.9 3.8
v 1.8 12.9 3.7
v 1.8 13 3.8
v 1.8 13 3.7
v 1.8 13.2 3.8
v 1.8 13.2 3.7
v 1.8 13.3 3.8
v 1.8 13.3 3.7
v 1.8 13.6 3.8
v 1.8 13.6 3.7
v 1.8 13.7 3.8
v 1.8 13.7 3.7
v 1.8 13.8 3.8
v 1.8 13.8 3.7
v 1.8 13.9 3.8
v 1.8 13.9 3.7
v 2.3 11.4 3.9
v 2.3 11.4 3.1
v 2.3 14.8 3.9
v 2.3 14.8 3.1
v 1.4 11.4 3.9
v 1.4 14.8 3.9
v 1.6 11.5 3.9
v 1.6 12 3.9
v 1.7 11.5 3.9
v 1.7 11.9 3.9
v 1.7 12.1 3.9
v 1.7 12.6 3.9
v 1.7 12.7 3.9
v 1.7 13.2 3.9
v 1.7 13.6 3.9
v 1.7 13.7 3.9
v 1.7 13.8 3.9
v 1.7 14.2 3.9
v 1.7 14.3 3.9
v 1.7 14.7 3.9
v 1.8 11.7 3.9
v 1.8 11.9 3.9
v 1.8 12.1 3.9
v 1.8 12.3 3.9
v 1.8 12.4 3.9
v 1.8 12.5 3.9
v 1.8 12.7 3.9
v 1.8 12.9 3.9
v 1.8 13 3.9
v 1.8 13.2 3.9
v 1.8 13.3 3.9
v 1.8 13.6 3.9
v 1.8 13.9 3.9
v 1.8 14.1 3.9
v 1.8 14.4 3.9
v 1.8 14.6 3.9
v 1.9 11.7 3.9
v 1.9 11.9 3.9
v 1.9 12.1 3.9
v 1.9 12.3 3.9
v 1.9 12.4 3.9
v 1.9 12.5 3.9
v 1.9 12.7 3.9
v 1.9 12.9 3.9
v 1.9 13 3.9
v 1.9 13.2 3.9
v 1.9 13.3 3.9
v 1.9 13.6 3.9
v 1.9 13.9 3.9
v 1.9 14.1 3.9
v 1.9 14.4 3.9
v 1.9 14.5 3.9
v 2 11.5 3.9
v 2 11.9 3.9
v 2 12.1 3.9
v 2 12.6 3.9
v 2 12.7 3.9
v 2 13.2 3.9
v 2 13.6 3.9
v 2 13.7 3.9
v 2 13.8 3.9
v 2 14.2 3.9
v 2 14.3 3.9
v 2 14.5 3.9
v 2 14.6 3.9
v 2 14.7 3.9
v 2.1 11.5 3.9
v 2.1 12 3.9
v 2.3 11.4 3.9
v 2.3 14.8 3.9
v 1.8 12.9 3.7
v 1.8 13 3.7
v 1.8 13.2 3.7
v 1.8 13.3 3.7
v 1.8 13.6 3.7
v 1.8 13.7 3.7
v 1.8 13.8 3.7
v 1.8 13.9 3.7
v 1.9 12.9 3.7
v 1.9 13 3.7
v 1.9 13.3 3.7
v 1.9 13.7 3.7
v 2 12.9 3.7
v 2 13.9 3.7
v 1.8 12.9 3.8
v 1.8 13 3.8
v 1.8 13.2 3.8
v 1.8 13.3 3.8
v 1.8 13.6 3.8
v 1.8 13.7 3.8
v 1.8 13.8 3.8
v 1.8 13.9 3.8
v 1.9 12.9 3.8
v 1.9 13 3.8
v 1.9 13.2 3.8
v 1.9 13.3 3.8
v 1.9 13.6 3.8
v 2 12.9 3.8
v 2 13.2 3.8
v 2 13.6 3.8
v 2 13.7 3.8
v 2 13.8 3.8
v 2 13.9 3.8
v 1.4 11.4 3.1
v 1.4 14.8 3.1
v 2.3 11.4 3.1
v 2.3 14.8 3.1
v 1.4 11.4 3.9
v 2.3 11.4 3.9
v 1.4 11.4 3.1
v 2.3 11.4 3.1
v 1.8 13.9 3.8
v 2 13.9 3.8
v 1.8 13.9 3.7
v 2 13.9 3.7
v 1.8 12.9 3.8
v 1.9 12.9 3.8
v 2 12.9 3.8
v 1.8 12.9 3.7
v 1.9 12.9 3.7
v 2 12.9 3.7
v 1.4 14.8 3.9
v 2.3 14.8 3.9
v 1.4 14.8 3.1
v 2.3 14.8 3.1

# faces
f 3/2/1 2/2/1 1/2/1
f 4/2/1 2/2/1 3/2/1
f 7/2/1 6/2/1 5/2/1
f 8/2/1 6/2/1 7/2/1
f 9/2/1 6/2/1 8/2/1
f 10/2/1 6/2/1 9/2/1
f 11/2/1 6/2/1 10/2/1
f 12/2/1 6/2/1 11/2/1
f 13/3/2 14/3/2 15/3/2
f 15/3/2 14/3/2 16/3/2
f 15/3/2 16/3/2 17/3/2
f 17/3/2 16/3/2 18/3/2
f 17/2/2 18/2/2 19/2/2
f 19/2/2 18/2/2 20/2/2
f 19/2/2 20/2/2 21/2/2
f 21/2/2 20/2/2 22/2/2
f 21/3/2 22/3/2 23/3/2
f 23/3/2 22/3/2 24/3/2
f 23/2/2 24/2/2 25/2/2
f 25/2/2 24/2/2 26/2/2
f 25/3/2 26/3/2 27/3/2
f 27/3/2 26/3/2 28/3/2
f 29/2/2 30/2/2 31/2/2
f 31/2/2 30/2/2 32/2/2
f 35/2/3 34/2/3 33/2/3
f 36/2/3 34/2/3 35/2/3
f 37/2/3 35/2/3 33/2/3
f 37/1/3 36/1/3 35/1/3
f 38/1/3 36/1/3 37/1/3
f 39/2/3 34/2/3 36/2/3
f 40/2/3 34/2/3 39/2/3
f 41/2/3 34/2/3 40/2/3
f 42/2/3 34/2/3 41/2/3
f 43/2/3 34/2/3 42/2/3
f 44/2/3 34/2/3 43/2/3
f 45/2/3 34/2/3 44/2/3
f 46/2/3 34/2/3 45/2/3
f 47/2/3 34/2/3 46/2/3
f 48/2/3 34/2/3 47/2/3
f 49/2/3 38/2/3 37/2/3
f 50/1/3 36/1/3 38/1/3
f 50/2/3 38/2/3 49/2/3
f 51/2/3 39/2/3 36/2/3
f 51/1/3 40/1/3 39/1/3
f 52/1/3 40/1/3 51/1/3
f 53/1/3 40/1/3 52/1/3
f 54/1/3 40/1/3 53/1/3
f 55/2/3 41/2/3 40/2/3
f 55/1/3 42/1/3 41/1/3
f 56/1/3 42/1/3 55/1/3
f 57/1/3 42/1/3 56/1/3
f 58/2/3 43/2/3 42/2/3
f 58/1/3 42/1/3 57/1/3
f 59/2/3 43/2/3 58/2/3
f 60/1/3 44/1/3 43/1/3
f 60/2/3 43/2/3 59/2/3
f 61/1/3 46/1/3 45/1/3
f 62/1/3 46/1/3 61/1/3
f 63/1/3 48/1/3 47/1/3
f 64/1/3 48/1/3 63/1/3
f 65/2/3 49/2/3 37/2/3
f 65/1/3 50/1/3 49/1/3
f 66/1/3 36/1/3 50/1/3
f 66/1/3 50/1/3 65/1/3
f 67/2/3 51/2/3 36/2/3
f 67/2/3 52/2/3 51/2/3
f 68/1/3 53/1/3 52/1/3
f 68/2/3 52/2/3 67/2/3
f 69/2/3 54/2/3 53/2/3
f 69/1/3 53/1/3 68/1/3
f 70/1/3 40/1/3 54/1/3
f 70/2/3 54/2/3 69/2/3
f 71/2/3 55/2/3 40/2/3
f 71/2/3 56/2/3 55/2/3
f 72/1/3 57/1/3 56/1/3
f 72/2/3 56/2/3 71/2/3
f 73/2/3 59/2/3 58/2/3
f 73/1/3 57/1/3 72/1/3
f 73/2/3 58/2/3 57/2/3
f 74/2/3 59/2/3 73/2/3
f 75/1/3 60/1/3 59/1/3
f 75/2/3 59/2/3 74/2/3
f 76/1/3 44/1/3 60/1/3
f 76/1/3 60/1/3 75/1/3
f 77/1/3 61/1/3 45/1/3
f 77/2/3 62/2/3 61/2/3
f 78/1/3 46/1/3 62/1/3
f 78/2/3 62/2/3 77/2/3
f 79/2/3 64/2/3 63/2/3
f 79/1/3 63/1/3 47/1/3
f 80/2/3 64/2/3 79/2/3
f 81/2/3 37/2/3 33/2/3
f 81/2/3 65/2/3 37/2/3
f 81/2/3 66/2/3 65/2/3
f 82/1/3 36/1/3 66/1/3
f 82/2/3 66/2/3 81/2/3
f 83/1/3 69/1/3 68/1/3
f 83/1/3 68/1/3 67/1/3
f 83/2/3 67/2/3 36/2/3
f 83/1/3 70/1/3 69/1/3
f 84/2/3 71/2/3 40/2/3
f 84/1/3 70/1/3 83/1/3
f 84/1/3 40/1/3 70/1/3
f 85/1/3 72/1/3 71/1/3
f 85/2/3 71/2/3 84/2/3
f 85/1/3 73/1/3 72/1/3
f 85/1/3 74/1/3 73/1/3
f 86/2/3 75/2/3 74/2/3
f 86/1/3 74/1/3 85/1/3
f 86/2/3 76/2/3 75/2/3
f 87/1/3 44/1/3 76/1/3
f 87/2/3 76/2/3 86/2/3
f 88/2/3 45/2/3 44/2/3
f 88/1/3 44/1/3 87/1/3
f 89/1/3 77/1/3 45/1/3
f 89/2/3 45/2/3 88/2/3
f 89/1/3 78/1/3 77/1/3
f 90/1/3 46/1/3 78/1/3
f 90/1/3 78/1/3 89/1/3
f 90/2/3 47/2/3 46/2/3
f 91/1/3 80/1/3 79/1/3
f 91/2/3 47/2/3 90/2/3
f 91/1/3 79/1/3 47/1/3
f 92/2/3 64/2/3 80/2/3
f 92/1/3 80/1/3 91/1/3
f 93/1/3 48/1/3 64/1/3
f 93/2/3 64/2/3 92/2/3
f 94/2/3 34/2/3 48/2/3
f 94/1/3 48/1/3 93/1/3
f 95/1/3 82/1/3 81/1/3
f 95/2/3 81/2/3 33/2/3
f 96/2/3 92/2/3 91/2/3
f 96/1/3 82/1/3 95/1/3
f 96/2/3 91/2/3 90/2/3
f 96/2/3 94/2/3 93/2/3
f 96/2/3 88/2/3 87/2/3
f 96/2/3 86/2/3 85/2/3
f 96/2/3 85/2/3 84/2/3
f 96/2/3 87/2/3 86/2/3
f 96/2/3 84/2/3 83/2/3
f 96/2/3 83/2/3 36/2/3
f 96/2/3 93/2/3 92/2/3
f 96/1/3 36/1/3 82/1/3
f 96/2/3 89/2/3 88/2/3
f 96/2/3 90/2/3 89/2/3
f 97/2/3 95/2/3 33/2/3
f 97/2/3 96/2/3 95/2/3
f 98/2/3 94/2/3 96/2/3
f 98/2/3 96/2/3 97/2/3
f 98/2/3 34/2/3 94/2/3
f 107/3/3 100/3/3 99/3/3
f 108/2/3 101/2/3 100/2/3
f 108/3/3 100/3/3 107/3/3
f 108/2/3 102/2/3 101/2/3
f 109/3/3 103/3/3 102/3/3
f 109/2/3 102/2/3 108/2/3
f 109/3/3 104/3/3 103/3/3
f 110/2/3 106/2/3 105/2/3
f 110/3/3 104/3/3 109/3/3
f 110/2/3 105/2/3 104/2/3
f 111/2/3 109/2/3 108/2/3
f 111/2/3 108/2/3 107/2/3
f 111/2/3 110/2/3 109/2/3
f 112/2/3 106/2/3 110/2/3
f 112/2/3 110/2/3 111/2/3
f 113/1/4 114/1/4 121/1/4
f 114/2/4 115/2/4 122/2/4
f 121/1/4 114/1/4 122/1/4
f 115/2/4 116/2/4 122/2/4
f 122/2/4 116/2/4 123/2/4
f 116/1/4 117/1/4 124/1/4
f 123/2/4 116/2/4 124/2/4
f 117/1/4 118/1/4 124/1/4
f 124/1/4 118/1/4 125/1/4
f 122/1/4 123/1/4 126/1/4
f 121/1/4 122/1/4 126/1/4
f 124/2/4 125/2/4 127/2/4
f 126/1/4 123/1/4 127/1/4
f 123/2/4 124/2/4 127/2/4
f 125/1/4 118/1/4 128/1/4
f 127/2/4 125/2/4 128/2/4
f 118/2/4 119/2/4 129/2/4
f 128/1/4 118/1/4 129/1/4
f 119/1/4 120/1/4 130/1/4
f 129/2/4 119/2/4 130/2/4
f 130/1/4 120/1/4 131/1/4
f 132/2/4 133/2/4 134/2/4
f 134/2/4 133/2/4 135/2/4
f 138/2/5 137/2/5 136/2/5
f 139/2/5 137/2/5 138/2/5
f 142/3/5 141/3/5 140/3/5
f 143/3/5 141/3/5 142/3/5
f 144/2/6 145/2/6 147/2/6
f 145/3/6 146/3/6 148/3/6
f 147/2/6 145/2/6 148/2/6
f 148/3/6 146/3/6 149/3/6
f 150/2/6 151/2/6 152/2/6
f 152/2/6 151/2/6 153/2/6
