# MagicaVoxel @ Ephtracy

# group
o 

# material
mtllib WE.mtl
usemtl palette

# normals
vn -1 0 0
vn 1 0 0
vn 0 0 1
vn 0 0 -1
vn 0 -1 0
vn 0 1 0

# texcoords
vt 0.751953 0.5
vt 0.775391 0.5
vt 0.783203 0.5
vt 0.798828 0.5
vt 0.806641 0.5
vt 0.919922 0.5
vt 0.939453 0.5
vt 0.943359 0.5

# verts
v -3 0.2 3
v -3 0.2 -3
v -3 0.3 3
v -3 0.3 -3
v -1.8 19.5 1.8
v -1.8 19.5 -1.8
v -1.8 19.8 1.8
v -1.8 19.8 0.8
v -1.8 19.8 -0.9
v -1.8 19.8 -1.8
v -1.8 20.6 0.8
v -1.8 20.6 -0.9
v -1.6 19.8 1.7
v -1.6 19.8 0.8
v -1.6 19.8 -0.9
v -1.6 19.8 -1.7
v -1.6 20.2 1.7
v -1.6 20.2 0.8
v -1.6 20.2 -0.9
v -1.6 20.2 -1.7
v -1.5 20.2 1.6
v -1.5 20.2 0.8
v -1.5 20.2 -0.9
v -1.5 20.2 -1.6
v -1.5 20.6 1.6
v -1.5 20.6 0.8
v -1.5 20.6 -0.9
v -1.5 20.6 -1.6
v -1.3 20.6 1.4
v -1.3 20.6 -1.4
v -1.3 20.7 1.4
v -1.3 20.7 -1.4
v -1.3 21.1 1.4
v -1.3 21.1 -1.4
v -0.9 21.1 1
v -0.9 21.1 -1
v -0.9 21.6 1
v -0.9 21.6 -1
v -0.5 21.6 0.5
v -0.5 21.6 -0.5
v -0.5 22.2 0.5
v -0.5 22.2 -0.5
v -0.2 22.2 0.2
v -0.2 22.2 -0.2
v -0.2 22.6 0.2
v -0.2 22.6 -0.2
v -0.0999999 22.6 0.0999999
v -0.0999999 22.6 -0.1
v -0.0999999 23.3 0.0999999
v -0.0999999 23.3 -0.1
v 0.1 22.6 0.0999999
v 0.1 22.6 -0.1
v 0.1 23.3 0.0999999
v 0.1 23.3 -0.1
v 0.2 22.2 0.2
v 0.2 22.2 -0.2
v 0.2 22.6 0.2
v 0.2 22.6 -0.2
v 0.5 21.6 0.5
v 0.5 21.6 -0.5
v 0.5 22.2 0.5
v 0.5 22.2 -0.5
v 0.9 21.1 1
v 0.9 21.1 -1
v 0.9 21.6 1
v 0.9 21.6 -1
v 1.3 20.6 1.4
v 1.3 20.6 -1.4
v 1.3 20.7 1.4
v 1.3 20.7 -1.4
v 1.3 21.1 1.4
v 1.3 21.1 -1.4
v 1.5 20.2 1.6
v 1.5 20.2 0.8
v 1.5 20.2 -0.9
v 1.5 20.2 -1.6
v 1.5 20.6 1.6
v 1.5 20.6 0.8
v 1.5 20.6 -0.9
v 1.5 20.6 -1.6
v 1.6 19.8 1.7
v 1.6 19.8 0.8
v 1.6 19.8 -0.9
v 1.6 19.8 -1.7
v 1.6 20.2 1.7
v 1.6 20.2 0.8
v 1.6 20.2 -0.9
v 1.6 20.2 -1.7
v 1.8 19.5 1.8
v 1.8 19.5 -1.8
v 1.8 19.8 1.8
v 1.8 19.8 0.8
v 1.8 19.8 -0.9
v 1.8 19.8 -1.8
v 1.8 20.6 0.8
v 1.8 20.6 -0.9
v 3 0.2 3
v 3 0.2 -3
v 3 0.3 3
v 3 0.3 -3
v -3 0.2 3
v -3 0.3 3
v 3 0.2 3
v 3 0.3 3
v -1.8 19.5 1.8
v -1.8 19.8 1.8
v 1.8 19.5 1.8
v 1.8 19.8 1.8
v -1.6 19.8 1.7
v -1.6 20.2 1.7
v 1.6 19.8 1.7
v 1.6 20.2 1.7
v -1.5 20.2 1.6
v -1.5 20.6 1.6
v 1.5 20.2 1.6
v 1.5 20.6 1.6
v -1.3 20.6 1.4
v -1.3 20.7 1.4
v -1.3 21.1 1.4
v 1.3 20.6 1.4
v 1.3 20.7 1.4
v 1.3 21.1 1.4
v -0.9 21.1 1
v -0.9 21.6 1
v 0.9 21.1 1
v 0.9 21.6 1
v -1.8 19.8 0.8
v -1.8 20.6 0.8
v -1.6 19.8 0.8
v -1.6 20.2 0.8
v -1.5 20.2 0.8
v -1.5 20.6 0.8
v 1.5 20.2 0.8
v 1.5 20.6 0.8
v 1.6 19.8 0.8
v 1.6 20.2 0.8
v 1.8 19.8 0.8
v 1.8 20.6 0.8
v -0.5 21.6 0.5
v -0.5 22.2 0.5
v 0.5 21.6 0.5
v 0.5 22.2 0.5
v -0.2 22.2 0.2
v -0.2 22.6 0.2
v 0.2 22.2 0.2
v 0.2 22.6 0.2
v -0.0999999 22.6 0.0999999
v -0.0999999 23.3 0.0999999
v 0.1 22.6 0.0999999
v 0.1 23.3 0.0999999
v -0.0999999 22.6 -0.1
v -0.0999999 23.3 -0.1
v 0.1 22.6 -0.1
v 0.1 23.3 -0.1
v -0.2 22.2 -0.2
v -0.2 22.6 -0.2
v 0.2 22.2 -0.2
v 0.2 22.6 -0.2
v -0.5 21.6 -0.5
v -0.5 22.2 -0.5
v 0.5 21.6 -0.5
v 0.5 22.2 -0.5
v -1.8 19.8 -0.9
v -1.8 20.6 -0.9
v -1.6 19.8 -0.9
v -1.6 20.2 -0.9
v -1.5 20.2 -0.9
v -1.5 20.6 -0.9
v 1.5 20.2 -0.9
v 1.5 20.6 -0.9
v 1.6 19.8 -0.9
v 1.6 20.2 -0.9
v 1.8 19.8 -0.9
v 1.8 20.6 -0.9
v -0.9 21.1 -1
v -0.9 21.6 -1
v 0.9 21.1 -1
v 0.9 21.6 -1
v -1.3 20.6 -1.4
v -1.3 20.7 -1.4
v -1.3 21.1 -1.4
v 1.3 20.6 -1.4
v 1.3 20.7 -1.4
v 1.3 21.1 -1.4
v -1.5 20.2 -1.6
v -1.5 20.6 -1.6
v 1.5 20.2 -1.6
v 1.5 20.6 -1.6
v -1.6 19.8 -1.7
v -1.6 20.2 -1.7
v 1.6 19.8 -1.7
v 1.6 20.2 -1.7
v -1.8 19.5 -1.8
v -1.8 19.8 -1.8
v 1.8 19.5 -1.8
v 1.8 19.8 -1.8
v -3 0.2 -3
v -3 0.3 -3
v 3 0.2 -3
v 3 0.3 -3
v -3 0.2 3
v 3 0.2 3
v -3 0.2 -3
v 3 0.2 -3
v -1.8 19.5 1.8
v 1.8 19.5 1.8
v -1.8 19.5 -1.8
v 1.8 19.5 -1.8
v -3 0.3 3
v 3 0.3 3
v -3 0.3 -3
v 3 0.3 -3
v -1.8 19.8 1.8
v 1.8 19.8 1.8
v -1.6 19.8 1.7
v 1.6 19.8 1.7
v -1.8 19.8 0.8
v -1.6 19.8 0.8
v 1.6 19.8 0.8
v 1.8 19.8 0.8
v -1.8 19.8 -0.9
v -1.6 19.8 -0.9
v 1.6 19.8 -0.9
v 1.8 19.8 -0.9
v -1.6 19.8 -1.7
v 1.6 19.8 -1.7
v -1.8 19.8 -1.8
v 1.8 19.8 -1.8
v -1.6 20.2 1.7
v 1.6 20.2 1.7
v -1.5 20.2 1.6
v 1.5 20.2 1.6
v -1.6 20.2 0.8
v -1.5 20.2 0.8
v 1.5 20.2 0.8
v 1.6 20.2 0.8
v -1.6 20.2 -0.9
v -1.5 20.2 -0.9
v 1.5 20.2 -0.9
v 1.6 20.2 -0.9
v -1.5 20.2 -1.6
v 1.5 20.2 -1.6
v -1.6 20.2 -1.7
v 1.6 20.2 -1.7
v -1.5 20.6 1.6
v 1.5 20.6 1.6
v -1.3 20.6 1.4
v 1.3 20.6 1.4
v -1.8 20.6 0.8
v -1.5 20.6 0.8
v 1.5 20.6 0.8
v 1.8 20.6 0.8
v -1.8 20.6 -0.9
v -1.5 20.6 -0.9
v 1.5 20.6 -0.9
v 1.8 20.6 -0.9
v -1.3 20.6 -1.4
v 1.3 20.6 -1.4
v -1.5 20.6 -1.6
v 1.5 20.6 -1.6
v -1.3 21.1 1.4
v 1.3 21.1 1.4
v -0.9 21.1 1
v 0.9 21.1 1
v -0.9 21.1 -1
v 0.9 21.1 -1
v -1.3 21.1 -1.4
v 1.3 21.1 -1.4
v -0.9 21.6 1
v 0.9 21.6 1
v -0.5 21.6 0.5
v 0.5 21.6 0.5
v -0.5 21.6 -0.5
v 0.5 21.6 -0.5
v -0.9 21.6 -1
v 0.9 21.6 -1
v -0.5 22.2 0.5
v 0.5 22.2 0.5
v -0.2 22.2 0.2
v 0.2 22.2 0.2
v -0.2 22.2 -0.2
v 0.2 22.2 -0.2
v -0.5 22.2 -0.5
v 0.5 22.2 -0.5
v -0.2 22.6 0.2
v 0.2 22.6 0.2
v -0.0999999 22.6 0.0999999
v 0.1 22.6 0.0999999
v -0.0999999 22.6 -0.1
v 0.1 22.6 -0.1
v -0.2 22.6 -0.2
v 0.2 22.6 -0.2
v -0.0999999 23.3 0.0999999
v 0.1 23.3 0.0999999
v -0.0999999 23.3 -0.1
v 0.1 23.3 -0.1

# faces
f 3/1/1 2/1/1 1/1/1
f 4/1/1 2/1/1 3/1/1
f 7/3/1 6/3/1 5/3/1
f 8/3/1 6/3/1 7/3/1
f 9/3/1 6/3/1 8/3/1
f 10/3/1 6/3/1 9/3/1
f 11/7/1 9/7/1 8/7/1
f 12/7/1 9/7/1 11/7/1
f 17/3/1 14/3/1 13/3/1
f 18/3/1 14/3/1 17/3/1
f 19/3/1 16/3/1 15/3/1
f 20/3/1 16/3/1 19/3/1
f 25/3/1 22/3/1 21/3/1
f 26/3/1 22/3/1 25/3/1
f 27/3/1 24/3/1 23/3/1
f 28/3/1 24/3/1 27/3/1
f 31/3/1 30/3/1 29/3/1
f 32/3/1 30/3/1 31/3/1
f 33/4/1 32/4/1 31/4/1
f 34/4/1 32/4/1 33/4/1
f 37/2/1 36/2/1 35/2/1
f 38/2/1 36/2/1 37/2/1
f 41/5/1 40/5/1 39/5/1
f 42/5/1 40/5/1 41/5/1
f 45/6/1 44/6/1 43/6/1
f 46/6/1 44/6/1 45/6/1
f 49/8/1 48/8/1 47/8/1
f 50/8/1 48/8/1 49/8/1
f 51/8/2 52/8/2 53/8/2
f 53/8/2 52/8/2 54/8/2
f 55/6/2 56/6/2 57/6/2
f 57/6/2 56/6/2 58/6/2
f 59/5/2 60/5/2 61/5/2
f 61/5/2 60/5/2 62/5/2
f 63/2/2 64/2/2 65/2/2
f 65/2/2 64/2/2 66/2/2
f 67/3/2 68/3/2 69/3/2
f 69/3/2 68/3/2 70/3/2
f 69/4/2 70/4/2 71/4/2
f 71/4/2 70/4/2 72/4/2
f 73/3/2 74/3/2 77/3/2
f 77/3/2 74/3/2 78/3/2
f 75/3/2 76/3/2 79/3/2
f 79/3/2 76/3/2 80/3/2
f 81/3/2 82/3/2 85/3/2
f 85/3/2 82/3/2 86/3/2
f 83/3/2 84/3/2 87/3/2
f 87/3/2 84/3/2 88/3/2
f 89/3/2 90/3/2 91/3/2
f 91/3/2 90/3/2 92/3/2
f 92/3/2 90/3/2 93/3/2
f 93/3/2 90/3/2 94/3/2
f 92/7/2 93/7/2 95/7/2
f 95/7/2 93/7/2 96/7/2
f 97/1/2 98/1/2 99/1/2
f 99/1/2 98/1/2 100/1/2
f 103/1/3 102/1/3 101/1/3
f 104/1/3 102/1/3 103/1/3
f 107/3/3 106/3/3 105/3/3
f 108/3/3 106/3/3 107/3/3
f 111/3/3 110/3/3 109/3/3
f 112/3/3 110/3/3 111/3/3
f 115/3/3 114/3/3 113/3/3
f 116/3/3 114/3/3 115/3/3
f 120/3/3 118/3/3 117/3/3
f 121/4/3 119/4/3 118/4/3
f 121/3/3 118/3/3 120/3/3
f 122/4/3 119/4/3 121/4/3
f 125/2/3 124/2/3 123/2/3
f 126/2/3 124/2/3 125/2/3
f 129/7/3 128/7/3 127/7/3
f 130/7/3 128/7/3 129/7/3
f 131/7/3 128/7/3 130/7/3
f 132/7/3 128/7/3 131/7/3
f 136/7/3 134/7/3 133/7/3
f 137/7/3 136/7/3 135/7/3
f 138/7/3 134/7/3 136/7/3
f 138/7/3 136/7/3 137/7/3
f 141/5/3 140/5/3 139/5/3
f 142/5/3 140/5/3 141/5/3
f 145/6/3 144/6/3 143/6/3
f 146/6/3 144/6/3 145/6/3
f 149/8/3 148/8/3 147/8/3
f 150/8/3 148/8/3 149/8/3
f 151/8/4 152/8/4 153/8/4
f 153/8/4 152/8/4 154/8/4
f 155/6/4 156/6/4 157/6/4
f 157/6/4 156/6/4 158/6/4
f 159/5/4 160/5/4 161/5/4
f 161/5/4 160/5/4 162/5/4
f 163/7/4 164/7/4 165/7/4
f 165/7/4 164/7/4 166/7/4
f 166/7/4 164/7/4 167/7/4
f 167/7/4 164/7/4 168/7/4
f 169/7/4 170/7/4 172/7/4
f 171/7/4 172/7/4 173/7/4
f 172/7/4 170/7/4 174/7/4
f 173/7/4 172/7/4 174/7/4
f 175/2/4 176/2/4 177/2/4
f 177/2/4 176/2/4 178/2/4
f 179/3/4 180/3/4 182/3/4
f 180/4/4 181/4/4 183/4/4
f 182/3/4 180/3/4 183/3/4
f 183/4/4 181/4/4 184/4/4
f 185/3/4 186/3/4 187/3/4
f 187/3/4 186/3/4 188/3/4
f 189/3/4 190/3/4 191/3/4
f 191/3/4 190/3/4 192/3/4
f 193/3/4 194/3/4 195/3/4
f 195/3/4 194/3/4 196/3/4
f 197/1/4 198/1/4 199/1/4
f 199/1/4 198/1/4 200/1/4
f 203/1/5 202/1/5 201/1/5
f 204/1/5 202/1/5 203/1/5
f 207/3/5 206/3/5 205/3/5
f 208/3/5 206/3/5 207/3/5
f 209/1/6 210/1/6 211/1/6
f 211/1/6 210/1/6 212/1/6
f 213/3/6 214/3/6 215/3/6
f 215/3/6 214/3/6 216/3/6
f 213/3/6 215/3/6 217/3/6
f 217/3/6 215/3/6 218/3/6
f 216/3/6 214/3/6 219/3/6
f 219/3/6 214/3/6 220/3/6
f 221/3/6 222/3/6 225/3/6
f 223/3/6 224/3/6 226/3/6
f 221/3/6 225/3/6 227/3/6
f 225/3/6 226/3/6 227/3/6
f 226/3/6 224/3/6 228/3/6
f 227/3/6 226/3/6 228/3/6
f 229/3/6 230/3/6 231/3/6
f 231/3/6 230/3/6 232/3/6
f 229/3/6 231/3/6 233/3/6
f 233/3/6 231/3/6 234/3/6
f 232/3/6 230/3/6 235/3/6
f 235/3/6 230/3/6 236/3/6
f 237/3/6 238/3/6 241/3/6
f 239/3/6 240/3/6 242/3/6
f 237/3/6 241/3/6 243/3/6
f 241/3/6 242/3/6 243/3/6
f 242/3/6 240/3/6 244/3/6
f 243/3/6 242/3/6 244/3/6
f 245/3/6 246/3/6 247/3/6
f 247/3/6 246/3/6 248/3/6
f 245/3/6 247/3/6 250/3/6
f 248/3/6 246/3/6 251/3/6
f 249/7/6 250/7/6 253/7/6
f 250/3/6 247/3/6 254/3/6
f 253/7/6 250/7/6 254/7/6
f 251/7/6 252/7/6 255/7/6
f 248/3/6 251/3/6 255/3/6
f 255/7/6 252/7/6 256/7/6
f 254/3/6 247/3/6 257/3/6
f 248/3/6 255/3/6 258/3/6
f 254/3/6 257/3/6 259/3/6
f 257/3/6 258/3/6 259/3/6
f 258/3/6 255/3/6 260/3/6
f 259/3/6 258/3/6 260/3/6
f 261/4/6 262/4/6 263/4/6
f 263/4/6 262/4/6 264/4/6
f 261/4/6 263/4/6 265/4/6
f 264/4/6 262/4/6 266/4/6
f 261/4/6 265/4/6 267/4/6
f 265/4/6 266/4/6 267/4/6
f 266/4/6 262/4/6 268/4/6
f 267/4/6 266/4/6 268/4/6
f 269/2/6 270/2/6 271/2/6
f 271/2/6 270/2/6 272/2/6
f 269/2/6 271/2/6 273/2/6
f 272/2/6 270/2/6 274/2/6
f 269/2/6 273/2/6 275/2/6
f 273/2/6 274/2/6 275/2/6
f 274/2/6 270/2/6 276/2/6
f 275/2/6 274/2/6 276/2/6
f 277/5/6 278/5/6 279/5/6
f 279/5/6 278/5/6 280/5/6
f 277/5/6 279/5/6 281/5/6
f 280/5/6 278/5/6 282/5/6
f 277/5/6 281/5/6 283/5/6
f 281/5/6 282/5/6 283/5/6
f 282/5/6 278/5/6 284/5/6
f 283/5/6 282/5/6 284/5/6
f 285/6/6 286/6/6 287/6/6
f 287/6/6 286/6/6 288/6/6
f 285/6/6 287/6/6 289/6/6
f 288/6/6 286/6/6 290/6/6
f 285/6/6 289/6/6 291/6/6
f 289/6/6 290/6/6 291/6/6
f 290/6/6 286/6/6 292/6/6
f 291/6/6 290/6/6 292/6/6
f 293/8/6 294/8/6 295/8/6
f 295/8/6 294/8/6 296/8/6
