# Blender 3.1.0
# www.blender.org
mtllib WE2.mtl
o Cube
v 3.900000 19.200001 -3.900000
v 3.900000 -19.200001 -3.900000
v 3.900000 19.200001 3.900000
v 3.900000 -19.200001 3.900000
v -3.900000 19.200001 -3.900000
v -3.900000 -19.200001 -3.900000
v -3.900000 19.200001 3.900000
v -3.900000 -19.200001 3.900000
vn -0.0000 19.2000 -0.0000
vn -0.0000 -0.0000 3.9000
vn -3.9000 -0.0000 -0.0000
vn -0.0000 -19.2000 -0.0000
vn 3.9000 -0.0000 -0.0000
vn -0.0000 -0.0000 -3.9000
vt 0.821135 0.811825
vt 0.180945 0.987180
vt 0.433116 0.980587
vt 0.985978 0.611809
vt 0.180945 0.163607
vt 0.433116 0.160061
vt 0.821135 0.977644
vt 0.596346 0.979027
vt 0.012953 0.987180
vt 0.596346 0.160195
vt 0.985978 0.783909
vt 0.012952 0.163607
vt 0.988904 0.811825
vt 0.012780 0.987235
vt 0.594788 0.980587
vt 0.012780 0.164979
vt 0.819287 0.611809
vt 0.594787 0.160061
vt 0.988904 0.977644
vt 0.430638 0.979027
vt 0.181118 0.987235
vt 0.430638 0.160195
vt 0.181118 0.164979
vt 0.819287 0.783909
s 0
usemtl Material
f 1/1/1 5/13/1 7/19/1 3/7/1
f 4/10/2 3/8/2 7/20/2 8/22/2
f 8/23/3 7/21/3 5/14/3 6/16/3
f 6/17/4 2/4/4 4/11/4 8/24/4
f 2/5/5 1/2/5 3/9/5 4/12/5
f 6/18/6 5/15/6 1/3/6 2/6/6
