# Blender 3.1.0
# www.blender.org
mtllib WESignal.mtl
o Cube
v 0.300000 1.100000 -1.700000
v 0.300000 -1.100000 -1.700000
v 0.300000 1.100000 1.700000
v 0.300000 -1.100000 1.700000
v -0.300000 1.100000 -1.700000
v -0.300000 -1.100000 -1.700000
v -0.300000 1.100000 1.700000
v -0.300000 -1.100000 1.700000
vn -0.0000 1.1000 -0.0000
vn -0.0000 -0.0000 1.7000
vn -0.3000 -0.0000 -0.0000
vn -0.0000 -1.1000 -0.0000
vn 0.3000 -0.0000 -0.0000
vn -0.0000 -0.0000 -1.7000
vt 0.098740 0.621438
vt 0.998323 0.997788
vt 0.354110 0.899011
vt 0.376411 0.619270
vt 0.998323 0.521111
vt 0.104110 0.899011
vt 0.098740 0.871438
vt 0.344234 0.678438
vt 0.529348 0.997788
vt 0.094234 0.678438
vt 0.376411 0.869270
vt 0.529348 0.521111
vt 0.348740 0.621438
vt 0.355521 0.896225
vt 0.354110 0.649011
vt 0.105521 0.896225
vt 0.126411 0.619270
vt 0.104110 0.649011
vt 0.348740 0.871438
vt 0.344234 0.928438
vt 0.355521 0.646225
vt 0.094234 0.928438
vt 0.105521 0.646225
vt 0.126411 0.869270
s 0
usemtl Material
f 1/1/1 5/13/1 7/19/1 3/7/1
f 4/10/2 3/8/2 7/20/2 8/22/2
f 8/23/3 7/21/3 5/14/3 6/16/3
f 6/17/4 2/4/4 4/11/4 8/24/4
f 2/5/5 1/2/5 3/9/5 4/12/5
f 6/18/6 5/15/6 1/3/6 2/6/6
