# 3ds Max Wavefront OBJ Exporter v0.99 - (c)2007 guruware
# File Created: 11.05.2022 21:17:39

mtllib moto3.mtl

#
# object moto3
#

v  -0.4500 1.1393 0.5098
v  -0.4500 1.0393 0.4098
v  -0.4500 1.0393 0.5098
v  -0.4500 1.1393 0.4098
v  -0.3500 0.2393 0.7098
v  -0.3500 0.1393 0.7098
v  -0.3500 0.1393 0.8098
v  -0.3500 0.2393 -0.7902
v  -0.3500 0.1393 -0.7902
v  -0.3500 0.1393 -0.6902
v  -0.3500 0.3393 0.8098
v  -0.3500 0.2393 0.6098
v  -0.3500 0.3393 0.7098
v  -0.3500 0.3393 0.3098
v  -0.3500 0.2393 -0.3902
v  -0.3500 0.2393 0.3098
v  -0.3500 0.3393 0.2098
v  -0.3500 0.3393 -0.2902
v  -0.3500 0.3393 -0.6902
v  -0.3500 0.2393 -0.8902
v  -0.3500 0.3393 -0.7902
v  -0.3500 0.4393 0.7098
v  -0.3500 0.4393 0.6098
v  -0.3500 0.4393 0.5098
v  -0.3500 0.3393 0.5098
v  -0.3500 0.4393 0.4098
v  -0.3500 0.4393 0.2098
v  -0.3500 0.4393 -0.3902
v  -0.3500 0.4393 -0.7902
v  -0.3500 0.4393 -0.8902
v  -0.3500 0.5393 1.1098
v  -0.3500 0.4393 1.0098
v  -0.3500 0.4393 1.1098
v  -0.3500 0.5393 1.0098
v  -0.3500 0.5393 0.5098
v  -0.3500 0.5393 -0.2902
v  -0.3500 0.4393 -0.9902
v  -0.3500 0.5393 -0.3902
v  -0.3500 0.5393 -0.9902
v  -0.3500 0.4393 -1.0902
v  -0.3500 0.5393 -1.0902
v  -0.3500 0.6393 -0.3902
v  -0.3500 0.6393 -1.0902
v  -0.3500 0.9393 0.5098
v  -0.3500 0.9393 0.4098
v  -0.2500 0.6393 0.8098
v  -0.2500 0.5393 0.5098
v  -0.2500 0.5393 0.8098
v  -0.2500 0.6393 0.6098
v  -0.2500 0.7393 -0.4902
v  -0.2500 0.6393 -0.9902
v  -0.2500 0.6393 -0.4902
v  -0.2500 0.7393 -0.9902
v  -0.2500 0.8393 0.6098
v  -0.2500 0.8393 0.5098
v  -0.2500 1.3393 0.5098
v  -0.2500 1.2393 0.4098
v  -0.2500 1.2393 0.5098
v  -0.2500 1.3393 0.4098
v  -0.1500 1.0393 0.6098
v  -0.1500 0.9393 0.5098
v  -0.1500 0.9393 0.6098
v  -0.1500 1.0393 0.5098
v  -0.1500 0.9393 0.4098
v  -0.1500 1.0393 0.4098
v  -0.1500 1.1393 0.6098
v  -0.1500 1.1393 0.5098
v  -0.1500 1.2393 0.5098
v  -0.1500 1.1393 0.4098
v  -0.1500 1.2393 0.4098
v  0.1500 1.3393 0.5098
v  0.1500 1.2393 0.4098
v  0.1500 1.2393 0.5098
v  0.1500 1.3393 0.4098
v  0.2500 0.2393 0.7098
v  0.2500 0.1393 0.7098
v  0.2500 0.1393 0.8098
v  0.2500 0.2393 -0.7902
v  0.2500 0.1393 -0.7902
v  0.2500 0.1393 -0.6902
v  0.2500 0.3393 0.8098
v  0.2500 0.2393 0.6098
v  0.2500 0.3393 0.7098
v  0.2500 0.3393 -0.6902
v  0.2500 0.2393 -0.8902
v  0.2500 0.3393 -0.7902
v  0.2500 0.4393 0.7098
v  0.2500 0.4393 0.6098
v  0.2500 0.4393 -0.7902
v  0.2500 0.4393 -0.8902
v  -0.2500 0.1393 0.8098
v  -0.2500 0.1393 0.7098
v  -0.2500 0.2393 0.7098
v  -0.2500 0.1393 -0.6902
v  -0.2500 0.1393 -0.7902
v  -0.2500 0.2393 -0.7902
v  -0.2500 0.2393 0.6098
v  -0.2500 0.3393 0.8098
v  -0.2500 0.3393 0.7098
v  -0.2500 0.2393 -0.8902
v  -0.2500 0.3393 -0.6902
v  -0.2500 0.3393 -0.7902
v  -0.2500 0.4393 0.7098
v  -0.2500 0.4393 0.6098
v  -0.2500 0.4393 -0.7902
v  -0.2500 0.4393 -0.8902
v  -0.1500 1.3393 0.5098
v  -0.1500 1.3393 0.4098
v  0.1500 0.9393 0.6098
v  0.1500 0.9393 0.5098
v  0.1500 1.0393 0.6098
v  0.1500 0.9393 0.4098
v  0.1500 1.0393 0.5098
v  0.1500 1.0393 0.4098
v  0.1500 1.1393 0.6098
v  0.1500 1.1393 0.5098
v  0.1500 1.1393 0.4098
v  0.2500 0.5393 0.8098
v  0.2500 0.5393 0.5098
v  0.2500 0.6393 0.8098
v  0.2500 0.6393 0.6098
v  0.2500 0.6393 -0.4902
v  0.2500 0.6393 -0.9902
v  0.2500 0.7393 -0.4902
v  0.2500 0.7393 -0.9902
v  0.2500 0.8393 0.6098
v  0.2500 0.8393 0.5098
v  0.2500 1.2393 0.5098
v  0.2500 1.2393 0.4098
v  0.2500 1.3393 0.5098
v  0.2500 1.3393 0.4098
v  0.3500 0.1393 0.8098
v  0.3500 0.1393 0.7098
v  0.3500 0.2393 0.7098
v  0.3500 0.1393 -0.6902
v  0.3500 0.1393 -0.7902
v  0.3500 0.2393 -0.7902
v  0.3500 0.3393 0.8098
v  0.3500 0.2393 0.6098
v  0.3500 0.3393 0.7098
v  0.3500 0.2393 0.3098
v  0.3500 0.2393 -0.3902
v  0.3500 0.3393 0.3098
v  0.3500 0.3393 0.2098
v  0.3500 0.3393 -0.2902
v  0.3500 0.2393 -0.8902
v  0.3500 0.3393 -0.6902
v  0.3500 0.3393 -0.7902
v  0.3500 0.4393 0.7098
v  0.3500 0.4393 0.6098
v  0.3500 0.3393 0.5098
v  0.3500 0.4393 0.5098
v  0.3500 0.4393 0.4098
v  0.3500 0.4393 0.2098
v  0.3500 0.4393 -0.3902
v  0.3500 0.4393 -0.7902
v  0.3500 0.4393 -0.8902
v  0.3500 0.4393 1.1098
v  0.3500 0.4393 1.0098
v  0.3500 0.5393 1.1098
v  0.3500 0.5393 1.0098
v  0.3500 0.5393 0.5098
v  0.3500 0.4393 -0.9902
v  0.3500 0.5393 -0.2902
v  0.3500 0.5393 -0.3902
v  0.3500 0.4393 -1.0902
v  0.3500 0.5393 -0.9902
v  0.3500 0.5393 -1.0902
v  0.3500 0.6393 -0.3902
v  0.3500 0.6393 -1.0902
v  0.3500 0.9393 0.5098
v  0.3500 0.9393 0.4098
v  0.4500 1.0393 0.5098
v  0.4500 1.0393 0.4098
v  0.4500 1.1393 0.5098
v  0.4500 1.1393 0.4098
v  -0.2500 0.4393 1.1098
v  -0.2500 0.5393 1.1098
v  0.2500 0.4393 1.1098
v  0.2500 0.5393 1.1098
v  -0.2500 1.0393 0.5098
v  -0.2500 1.1393 0.5098
v  -0.0500 1.1393 0.5098
v  -0.0500 1.2393 0.5098
v  0.0500 1.1393 0.5098
v  0.0500 1.2393 0.5098
v  0.2500 1.0393 0.5098
v  0.2500 1.1393 0.5098
v  -0.2500 1.0393 0.4098
v  -0.2500 1.1393 0.4098
v  -0.1500 0.5393 0.4098
v  -0.1500 0.8393 0.4098
v  -0.0500 1.1393 0.4098
v  -0.0500 1.2393 0.4098
v  0.0500 1.1393 0.4098
v  0.0500 1.2393 0.4098
v  0.1500 0.5393 0.4098
v  0.1500 0.8393 0.4098
v  0.2500 1.0393 0.4098
v  0.2500 1.1393 0.4098
v  -0.2500 0.4393 -1.0902
v  -0.2500 0.5393 -1.0902
v  0.2500 0.4393 -1.0902
v  0.2500 0.5393 -1.0902
v  -0.2500 0.4393 1.0098
v  0.2500 0.4393 1.0098
v  -0.2500 0.4393 -0.9902
v  0.2500 0.4393 -0.9902
v  -0.2500 0.5393 1.0098
v  0.2500 0.5393 1.0098
# 210 vertices

vn -1.0000 0.0000 -0.0000
vn 1.0000 0.0000 -0.0000
vn 0.0000 0.0000 1.0000
vn 0.0000 0.0000 -1.0000
vn 0.0000 -1.0000 -0.0000
vn 0.0000 1.0000 -0.0000
# 6 vertex normals

vt 0.9941 0.5000 0.0000
vt 0.9004 0.5000 0.0000
vt 0.1621 0.5000 0.0000
vt 0.8887 0.5000 0.0000
vt 0.9824 0.5000 0.0000
vt 0.9629 0.5000 0.0000
vt 0.8105 0.5000 0.0000
# 7 texture coords

o moto3
g moto3
usemtl moto3_moto3_palette
s 1
f 1/1/1 2/1/1 3/1/1 
f 4/1/1 2/1/1 1/1/1 
f 5/2/1 6/2/1 7/2/1 
f 8/2/1 9/2/1 10/2/1 
f 11/2/1 5/2/1 7/2/1 
f 11/2/1 12/2/1 5/2/1 
f 13/2/1 12/2/1 11/2/1 
f 14/2/1 15/2/1 16/2/1 
f 17/2/1 15/2/1 14/2/1 
f 18/2/1 15/2/1 17/2/1 
f 19/2/1 20/2/1 8/2/1 
f 19/2/1 8/2/1 10/2/1 
f 21/2/1 20/2/1 19/2/1 
f 22/2/1 12/2/1 13/2/1 
f 23/2/1 12/2/1 22/2/1 
f 24/2/1 14/2/1 25/2/1 
f 24/2/1 17/2/1 14/2/1 
f 26/2/1 17/2/1 24/2/1 
f 27/2/1 17/2/1 26/2/1 
f 28/2/1 15/2/1 18/2/1 
f 29/2/1 20/2/1 21/2/1 
f 30/2/1 20/2/1 29/2/1 
f 31/3/1 32/3/1 33/3/1 
f 34/2/1 23/2/1 22/2/1 
f 34/3/1 32/3/1 31/3/1 
f 34/2/1 22/2/1 32/2/1 
f 34/2/1 24/2/1 23/2/1 
f 34/2/1 26/2/1 24/2/1 
f 35/2/1 26/2/1 34/2/1 
f 36/2/1 37/2/1 30/2/1 
f 36/2/1 28/2/1 18/2/1 
f 36/2/1 30/2/1 29/2/1 
f 36/2/1 29/2/1 28/2/1 
f 38/2/1 37/2/1 36/2/1 
f 39/3/1 40/3/1 37/3/1 
f 39/2/1 37/2/1 38/2/1 
f 41/3/1 40/3/1 39/3/1 
f 42/2/1 41/2/1 39/2/1 
f 42/2/1 39/2/1 38/2/1 
f 43/2/1 41/2/1 42/2/1 
f 44/2/1 26/2/1 35/2/1 
f 45/2/1 26/2/1 44/2/1 
f 46/4/1 47/4/1 48/4/1 
f 49/4/1 47/4/1 46/4/1 
f 50/4/1 51/4/1 52/4/1 
f 53/4/1 51/4/1 50/4/1 
f 54/4/1 47/4/1 49/4/1 
f 55/4/1 47/4/1 54/4/1 
f 56/5/1 57/5/1 58/5/1 
f 59/5/1 57/5/1 56/5/1 
f 60/6/1 61/6/1 62/6/1 
f 63/2/1 64/2/1 61/2/1 
f 63/6/1 61/6/1 60/6/1 
f 65/2/1 64/2/1 63/2/1 
f 66/2/1 63/2/1 60/2/1 
f 67/2/1 63/2/1 66/2/1 
f 68/1/1 69/1/1 67/1/1 
f 70/1/1 69/1/1 68/1/1 
f 71/5/1 72/5/1 73/5/1 
f 74/5/1 72/5/1 71/5/1 
f 75/2/1 76/2/1 77/2/1 
f 78/2/1 79/2/1 80/2/1 
f 81/2/1 82/2/1 75/2/1 
f 81/2/1 75/2/1 77/2/1 
f 83/2/1 82/2/1 81/2/1 
f 84/2/1 85/2/1 78/2/1 
f 84/2/1 78/2/1 80/2/1 
f 86/2/1 85/2/1 84/2/1 
f 87/2/1 82/2/1 83/2/1 
f 88/2/1 82/2/1 87/2/1 
f 89/2/1 85/2/1 86/2/1 
f 90/2/1 85/2/1 89/2/1 
f 91/2/2 92/2/2 93/2/2 
f 94/2/2 95/2/2 96/2/2 
f 93/2/2 97/2/2 98/2/2 
f 91/2/2 93/2/2 98/2/2 
f 98/2/2 97/2/2 99/2/2 
f 96/2/2 100/2/2 101/2/2 
f 94/2/2 96/2/2 101/2/2 
f 101/2/2 100/2/2 102/2/2 
f 99/2/2 97/2/2 103/2/2 
f 103/2/2 97/2/2 104/2/2 
f 102/2/2 100/2/2 105/2/2 
f 105/2/2 100/2/2 106/2/2 
f 68/5/2 70/5/2 107/5/2 
f 107/5/2 70/5/2 108/5/2 
f 109/6/2 110/6/2 111/6/2 
f 110/2/2 112/2/2 113/2/2 
f 111/6/2 110/6/2 113/6/2 
f 113/2/2 112/2/2 114/2/2 
f 111/2/2 113/2/2 115/2/2 
f 115/2/2 113/2/2 116/2/2 
f 116/1/2 117/1/2 73/1/2 
f 73/1/2 117/1/2 72/1/2 
f 118/4/2 119/4/2 120/4/2 
f 120/4/2 119/4/2 121/4/2 
f 122/4/2 123/4/2 124/4/2 
f 124/4/2 123/4/2 125/4/2 
f 121/4/2 119/4/2 126/4/2 
f 126/4/2 119/4/2 127/4/2 
f 128/5/2 129/5/2 130/5/2 
f 130/5/2 129/5/2 131/5/2 
f 132/2/2 133/2/2 134/2/2 
f 135/2/2 136/2/2 137/2/2 
f 132/2/2 134/2/2 138/2/2 
f 134/2/2 139/2/2 138/2/2 
f 138/2/2 139/2/2 140/2/2 
f 141/2/2 142/2/2 143/2/2 
f 143/2/2 142/2/2 144/2/2 
f 144/2/2 142/2/2 145/2/2 
f 137/2/2 146/2/2 147/2/2 
f 135/2/2 137/2/2 147/2/2 
f 147/2/2 146/2/2 148/2/2 
f 140/2/2 139/2/2 149/2/2 
f 149/2/2 139/2/2 150/2/2 
f 151/2/2 143/2/2 152/2/2 
f 143/2/2 144/2/2 152/2/2 
f 152/2/2 144/2/2 153/2/2 
f 153/2/2 144/2/2 154/2/2 
f 145/2/2 142/2/2 155/2/2 
f 148/2/2 146/2/2 156/2/2 
f 156/2/2 146/2/2 157/2/2 
f 158/3/2 159/3/2 160/3/2 
f 149/2/2 150/2/2 161/2/2 
f 160/3/2 159/3/2 161/3/2 
f 159/2/2 149/2/2 161/2/2 
f 150/2/2 152/2/2 161/2/2 
f 152/2/2 153/2/2 161/2/2 
f 161/2/2 153/2/2 162/2/2 
f 157/2/2 163/2/2 164/2/2 
f 145/2/2 155/2/2 164/2/2 
f 156/2/2 157/2/2 164/2/2 
f 155/2/2 156/2/2 164/2/2 
f 164/2/2 163/2/2 165/2/2 
f 163/3/2 166/3/2 167/3/2 
f 165/2/2 163/2/2 167/2/2 
f 167/3/2 166/3/2 168/3/2 
f 167/2/2 168/2/2 169/2/2 
f 165/2/2 167/2/2 169/2/2 
f 169/2/2 168/2/2 170/2/2 
f 162/2/2 153/2/2 171/2/2 
f 171/2/2 153/2/2 172/2/2 
f 173/1/2 174/1/2 175/1/2 
f 175/1/2 174/1/2 176/1/2 
f 177/3/3 31/3/3 33/3/3 
f 178/3/3 31/3/3 177/3/3 
f 179/2/3 178/2/3 177/2/3 
f 180/2/3 178/2/3 179/2/3 
f 158/3/3 180/3/3 179/3/3 
f 160/3/3 180/3/3 158/3/3 
f 91/2/3 11/2/3 7/2/3 
f 98/2/3 11/2/3 91/2/3 
f 118/4/3 46/4/3 48/4/3 
f 120/4/3 46/4/3 118/4/3 
f 132/2/3 81/2/3 77/2/3 
f 138/2/3 81/2/3 132/2/3 
f 99/2/3 22/2/3 13/2/3 
f 103/2/3 22/2/3 99/2/3 
f 140/2/3 87/2/3 83/2/3 
f 149/2/3 87/2/3 140/2/3 
f 109/6/3 60/6/3 62/6/3 
f 111/2/3 66/2/3 60/2/3 
f 111/6/3 60/6/3 109/6/3 
f 115/2/3 66/2/3 111/2/3 
f 121/4/3 54/4/3 49/4/3 
f 126/4/3 54/4/3 121/4/3 
f 47/2/3 44/2/3 35/2/3 
f 55/2/3 44/2/3 47/2/3 
f 181/1/3 1/1/3 3/1/3 
f 182/1/3 1/1/3 181/1/3 
f 61/2/3 44/2/3 55/2/3 
f 63/2/3 182/2/3 181/2/3 
f 67/2/3 182/2/3 63/2/3 
f 68/5/3 56/5/3 58/5/3 
f 107/5/3 56/5/3 68/5/3 
f 183/1/3 68/1/3 67/1/3 
f 184/1/3 68/1/3 183/1/3 
f 185/2/3 184/2/3 183/2/3 
f 186/2/3 184/2/3 185/2/3 
f 110/2/3 61/2/3 55/2/3 
f 116/1/3 186/1/3 185/1/3 
f 73/1/3 186/1/3 116/1/3 
f 127/2/3 110/2/3 55/2/3 
f 187/2/3 116/2/3 113/2/3 
f 188/2/3 116/2/3 187/2/3 
f 128/5/3 71/5/3 73/5/3 
f 130/5/3 71/5/3 128/5/3 
f 151/2/3 24/2/3 25/2/3 
f 152/2/3 24/2/3 151/2/3 
f 162/2/3 127/2/3 119/2/3 
f 171/2/3 110/2/3 127/2/3 
f 171/2/3 127/2/3 162/2/3 
f 173/1/3 188/1/3 187/1/3 
f 175/1/3 188/1/3 173/1/3 
f 141/2/3 14/2/3 16/2/3 
f 143/2/3 14/2/3 141/2/3 
f 145/2/3 36/2/3 18/2/3 
f 164/2/3 36/2/3 145/2/3 
f 165/2/3 42/2/3 38/2/3 
f 169/2/3 42/2/3 165/2/3 
f 122/4/3 50/4/3 52/4/3 
f 124/4/3 50/4/3 122/4/3 
f 94/2/3 19/2/3 10/2/3 
f 101/2/3 19/2/3 94/2/3 
f 135/2/3 84/2/3 80/2/3 
f 147/2/3 84/2/3 135/2/3 
f 102/2/3 29/2/3 21/2/3 
f 105/2/3 29/2/3 102/2/3 
f 148/2/3 89/2/3 86/2/3 
f 156/2/3 89/2/3 148/2/3 
f 6/2/4 5/2/4 92/2/4 
f 92/2/4 5/2/4 93/2/4 
f 76/2/4 75/2/4 133/2/4 
f 133/2/4 75/2/4 134/2/4 
f 12/2/4 23/2/4 97/2/4 
f 97/2/4 23/2/4 104/2/4 
f 82/2/4 88/2/4 139/2/4 
f 139/2/4 88/2/4 150/2/4 
f 2/1/4 4/1/4 189/1/4 
f 189/1/4 4/1/4 190/1/4 
f 26/2/4 45/2/4 191/2/4 
f 191/2/4 45/2/4 192/2/4 
f 192/2/4 45/2/4 64/2/4 
f 189/2/4 190/2/4 65/2/4 
f 65/2/4 190/2/4 69/2/4 
f 57/5/4 59/5/4 70/5/4 
f 70/5/4 59/5/4 108/5/4 
f 65/2/4 69/2/4 193/2/4 
f 192/2/4 64/2/4 193/2/4 
f 69/1/4 70/1/4 193/1/4 
f 64/2/4 65/2/4 193/2/4 
f 193/1/4 70/1/4 194/1/4 
f 192/2/4 193/2/4 195/2/4 
f 193/2/4 194/2/4 195/2/4 
f 195/2/4 194/2/4 196/2/4 
f 26/2/4 191/2/4 197/2/4 
f 191/7/4 192/7/4 197/7/4 
f 192/2/4 195/2/4 198/2/4 
f 197/7/4 192/7/4 198/7/4 
f 198/2/4 195/2/4 112/2/4 
f 112/2/4 195/2/4 114/2/4 
f 195/1/4 196/1/4 117/1/4 
f 114/2/4 195/2/4 117/2/4 
f 117/1/4 196/1/4 72/1/4 
f 114/2/4 117/2/4 199/2/4 
f 199/2/4 117/2/4 200/2/4 
f 72/5/4 74/5/4 129/5/4 
f 129/5/4 74/5/4 131/5/4 
f 198/2/4 112/2/4 153/2/4 
f 197/2/4 198/2/4 153/2/4 
f 26/2/4 197/2/4 153/2/4 
f 153/2/4 112/2/4 172/2/4 
f 199/1/4 200/1/4 174/1/4 
f 174/1/4 200/1/4 176/1/4 
f 17/2/4 27/2/4 144/2/4 
f 144/2/4 27/2/4 154/2/4 
f 15/2/4 28/2/4 142/2/4 
f 142/2/4 28/2/4 155/2/4 
f 9/2/4 8/2/4 95/2/4 
f 95/2/4 8/2/4 96/2/4 
f 79/2/4 78/2/4 136/2/4 
f 136/2/4 78/2/4 137/2/4 
f 20/2/4 30/2/4 100/2/4 
f 100/2/4 30/2/4 106/2/4 
f 85/2/4 90/2/4 146/2/4 
f 146/2/4 90/2/4 157/2/4 
f 51/4/4 53/4/4 123/4/4 
f 123/4/4 53/4/4 125/4/4 
f 40/3/4 41/3/4 201/3/4 
f 41/2/4 43/2/4 202/2/4 
f 201/3/4 41/3/4 202/3/4 
f 201/2/4 202/2/4 203/2/4 
f 202/2/4 43/2/4 204/2/4 
f 203/2/4 202/2/4 204/2/4 
f 203/3/4 204/3/4 166/3/4 
f 204/2/4 43/2/4 168/2/4 
f 166/3/4 204/3/4 168/3/4 
f 168/2/4 43/2/4 170/2/4 
f 6/2/5 91/2/5 7/2/5 
f 92/2/5 91/2/5 6/2/5 
f 76/2/5 132/2/5 77/2/5 
f 133/2/5 132/2/5 76/2/5 
f 9/2/5 94/2/5 10/2/5 
f 95/2/5 94/2/5 9/2/5 
f 79/2/5 135/2/5 80/2/5 
f 136/2/5 135/2/5 79/2/5 
f 12/2/5 93/2/5 5/2/5 
f 97/2/5 93/2/5 12/2/5 
f 82/2/5 134/2/5 75/2/5 
f 139/2/5 134/2/5 82/2/5 
f 15/2/5 141/2/5 16/2/5 
f 142/2/5 141/2/5 15/2/5 
f 20/2/5 96/2/5 8/2/5 
f 100/2/5 96/2/5 20/2/5 
f 85/2/5 137/2/5 78/2/5 
f 146/2/5 137/2/5 85/2/5 
f 14/2/5 151/2/5 25/2/5 
f 143/2/5 151/2/5 14/2/5 
f 32/3/5 177/3/5 33/3/5 
f 205/2/5 179/2/5 177/2/5 
f 205/3/5 177/3/5 32/3/5 
f 206/3/5 158/3/5 179/3/5 
f 206/2/5 179/2/5 205/2/5 
f 159/3/5 158/3/5 206/3/5 
f 22/2/5 205/2/5 32/2/5 
f 22/2/5 206/2/5 205/2/5 
f 22/2/5 159/2/5 206/2/5 
f 103/2/5 159/2/5 22/2/5 
f 87/2/5 159/2/5 103/2/5 
f 149/2/5 159/2/5 87/2/5 
f 104/2/5 87/2/5 103/2/5 
f 88/2/5 87/2/5 104/2/5 
f 24/2/5 104/2/5 23/2/5 
f 24/2/5 150/2/5 88/2/5 
f 24/2/5 88/2/5 104/2/5 
f 152/2/5 150/2/5 24/2/5 
f 29/2/5 155/2/5 28/2/5 
f 105/2/5 155/2/5 29/2/5 
f 89/2/5 155/2/5 105/2/5 
f 156/2/5 155/2/5 89/2/5 
f 106/2/5 89/2/5 105/2/5 
f 90/2/5 89/2/5 106/2/5 
f 37/2/5 106/2/5 30/2/5 
f 37/2/5 157/2/5 90/2/5 
f 37/2/5 90/2/5 106/2/5 
f 207/2/5 157/2/5 37/2/5 
f 208/2/5 157/2/5 207/2/5 
f 163/2/5 157/2/5 208/2/5 
f 40/3/5 207/3/5 37/3/5 
f 201/2/5 208/2/5 207/2/5 
f 201/3/5 207/3/5 40/3/5 
f 203/3/5 163/3/5 208/3/5 
f 203/2/5 208/2/5 201/2/5 
f 166/3/5 163/3/5 203/3/5 
f 61/6/5 109/6/5 62/6/5 
f 110/6/5 109/6/5 61/6/5 
f 2/1/5 181/1/5 3/1/5 
f 189/2/5 63/2/5 181/2/5 
f 189/1/5 181/1/5 2/1/5 
f 65/2/5 63/2/5 189/2/5 
f 114/2/5 187/2/5 113/2/5 
f 199/1/5 173/1/5 187/1/5 
f 199/2/5 187/2/5 114/2/5 
f 174/1/5 173/1/5 199/1/5 
f 57/5/5 68/5/5 58/5/5 
f 70/5/5 68/5/5 57/5/5 
f 72/5/5 128/5/5 73/5/5 
f 129/5/5 128/5/5 72/5/5 
f 11/2/6 98/2/6 13/2/6 
f 13/2/6 98/2/6 99/2/6 
f 81/2/6 138/2/6 83/2/6 
f 83/2/6 138/2/6 140/2/6 
f 17/2/6 144/2/6 18/2/6 
f 18/2/6 144/2/6 145/2/6 
f 19/2/6 101/2/6 21/2/6 
f 21/2/6 101/2/6 102/2/6 
f 84/2/6 147/2/6 86/2/6 
f 86/2/6 147/2/6 148/2/6 
f 26/2/6 153/2/6 27/2/6 
f 27/2/6 153/2/6 154/2/6 
f 31/3/6 178/3/6 34/3/6 
f 178/2/6 180/2/6 209/2/6 
f 34/3/6 178/3/6 209/3/6 
f 180/3/6 160/3/6 210/3/6 
f 209/2/6 180/2/6 210/2/6 
f 210/3/6 160/3/6 161/3/6 
f 34/2/6 209/2/6 48/2/6 
f 209/2/6 210/2/6 48/2/6 
f 210/2/6 161/2/6 48/2/6 
f 48/2/6 161/2/6 118/2/6 
f 34/2/6 48/2/6 35/2/6 
f 35/2/6 48/2/6 47/2/6 
f 118/2/6 161/2/6 119/2/6 
f 119/2/6 161/2/6 162/2/6 
f 36/2/6 164/2/6 38/2/6 
f 38/2/6 164/2/6 165/2/6 
f 46/4/6 120/4/6 49/4/6 
f 49/4/6 120/4/6 121/4/6 
f 42/2/6 169/2/6 52/2/6 
f 52/2/6 169/2/6 122/2/6 
f 42/2/6 52/2/6 51/2/6 
f 122/2/6 169/2/6 123/2/6 
f 42/2/6 51/2/6 43/2/6 
f 51/2/6 123/2/6 43/2/6 
f 123/2/6 169/2/6 170/2/6 
f 43/2/6 123/2/6 170/2/6 
f 50/4/6 124/4/6 53/4/6 
f 53/4/6 124/4/6 125/4/6 
f 54/4/6 126/4/6 55/4/6 
f 55/4/6 126/4/6 127/4/6 
f 44/2/6 61/2/6 45/2/6 
f 45/2/6 61/2/6 64/2/6 
f 110/2/6 171/2/6 112/2/6 
f 112/2/6 171/2/6 172/2/6 
f 66/2/6 115/2/6 67/2/6 
f 67/2/6 115/2/6 183/2/6 
f 183/2/6 115/2/6 185/2/6 
f 185/2/6 115/2/6 116/2/6 
f 1/1/6 182/1/6 4/1/6 
f 182/2/6 67/2/6 190/2/6 
f 4/1/6 182/1/6 190/1/6 
f 190/2/6 67/2/6 69/2/6 
f 116/2/6 188/2/6 117/2/6 
f 188/1/6 175/1/6 200/1/6 
f 117/2/6 188/2/6 200/2/6 
f 200/1/6 175/1/6 176/1/6 
f 68/1/6 184/1/6 70/1/6 
f 184/2/6 186/2/6 194/2/6 
f 70/1/6 184/1/6 194/1/6 
f 186/1/6 73/1/6 196/1/6 
f 194/2/6 186/2/6 196/2/6 
f 196/1/6 73/1/6 72/1/6 
f 56/5/6 107/5/6 59/5/6 
f 59/5/6 107/5/6 108/5/6 
f 71/5/6 130/5/6 74/5/6 
f 74/5/6 130/5/6 131/5/6 
# 416 faces

