# MagicaVoxel @ Ephtracy

# group
o 

# material
mtllib Patrulla.mtl
usemtl palette

# normals
vn -1 0 0
vn 1 0 0
vn 0 0 1
vn 0 0 -1
vn 0 -1 0
vn 0 1 0

# texcoords
vt 0.0175781 0.5
vt 0.279297 0.5
vt 0.806641 0.5
vt 0.822266 0.5
vt 0.837891 0.5
vt 0.958984 0.5
vt 0.982422 0.5
vt 0.986328 0.5
vt 0.994141 0.5

# verts
v -0.9 0.4 1.4
v -0.9 0.4 1
v -0.9 0.4 0.8
v -0.9 0.4 0.7
v -0.9 0.4 0.5
v -0.9 0.4 -0.5
v -0.9 0.4 -0.7
v -0.9 0.4 -0.8
v -0.9 0.4 -1
v -0.9 0.4 -1.2
v -0.9 0.4 -1.4
v -0.9 0.5 0.8
v -0.9 0.5 0.7
v -0.9 0.5 -0.7
v -0.9 0.5 -0.8
v -0.9 0.5 -1.2
v -0.9 0.5 -1.3
v -0.9 0.5 -1.4
v -0.9 0.6 1
v -0.9 0.6 0.9
v -0.9 0.6 0.6
v -0.9 0.6 0.5
v -0.9 0.6 -0.5
v -0.9 0.6 -0.6
v -0.9 0.6 -0.9
v -0.9 0.6 -1
v -0.9 0.7 0.9
v -0.9 0.7 0.8
v -0.9 0.7 0.6
v -0.9 0.7 0.4
v -0.9 0.7 0.1
v -0.9 0.7 0
v -0.9 0.7 -0.1
v -0.9 0.7 -0.4
v -0.9 0.7 -0.5
v -0.9 0.7 -0.6
v -0.9 0.7 -0.8
v -0.9 0.7 -0.9
v -0.9 0.8 0.7
v -0.9 0.8 0.6
v -0.9 0.8 0.5
v -0.9 0.8 0.4
v -0.9 0.8 0.3
v -0.9 0.8 0.1
v -0.9 0.8 -0.1
v -0.9 0.8 -0.3
v -0.9 0.8 -0.6
v -0.9 0.8 -0.7
v -0.9 0.9 0.2
v -0.9 0.9 0.1
v -0.9 0.9 -0.5
v -0.9 0.9 -0.6
v -0.9 1 0.7
v -0.9 1 0.6
v -0.9 1 0.5
v -0.9 1 0.4
v -0.9 1 0.2
v -0.9 1 0.1
v -0.9 1 -0.1
v -0.9 1 -0.3
v -0.9 1 -0.5
v -0.9 1 -0.7
v -0.9 1.1 0.8
v -0.9 1.1 0.4
v -0.9 1.1 0.3
v -0.9 1.1 0
v -0.9 1.1 -0.1
v -0.9 1.1 -0.4
v -0.9 1.1 -0.5
v -0.9 1.1 -0.8
v -0.9 1.2 1.4
v -0.9 1.2 0.9
v -0.9 1.2 0.8
v -0.9 1.2 0.7
v -0.9 1.2 0.4
v -0.9 1.2 0.3
v -0.9 1.2 -0.3
v -0.9 1.2 -0.4
v -0.9 1.2 -0.5
v -0.9 1.2 -1.3
v -0.9 1.9 0.7
v -0.9 1.9 0.4
v -0.9 1.9 0.3
v -0.9 1.9 -0.3
v -0.9 2.1 0.8
v -0.9 2.1 -0.4
v -0.9 2.2 0.9
v -0.9 2.2 -0.5
v -0.8 2.2 0.5
v -0.8 2.2 0.2
v -0.8 2.3 0.5
v -0.8 2.3 0.2
v -0.7 0.4 1
v -0.7 0.4 0.5
v -0.7 0.4 -0.5
v -0.7 0.4 -1
v -0.7 0.6 1
v -0.7 0.6 0.9
v -0.7 0.6 0.6
v -0.7 0.6 0.5
v -0.7 0.6 -0.5
v -0.7 0.6 -0.6
v -0.7 0.6 -0.9
v -0.7 0.6 -1
v -0.7 0.7 0.9
v -0.7 0.7 0.6
v -0.7 0.7 -0.6
v -0.7 0.7 -0.9
v -0.2 0.8 -1.2
v -0.2 0.8 -1.3
v -0.2 1 -1.2
v -0.2 1 -1.3
v 0.5 0.8 -1.2
v 0.5 0.8 -1.3
v 0.5 1 -1.2
v 0.5 1 -1.3
v 0.7 0.4 0.9
v 0.7 0.4 0.8
v 0.7 0.4 -0.7
v 0.7 0.4 -0.8
v 0.7 0.5 0.9
v 0.7 0.5 0.8
v 0.7 0.5 -0.7
v 0.7 0.5 -0.8
v -0.8 0.4 0.8
v -0.8 0.4 0.7
v -0.8 0.4 -0.7
v -0.8 0.4 -0.8
v -0.8 0.5 0.8
v -0.8 0.5 0.7
v -0.8 0.5 -0.7
v -0.8 0.5 -0.8
v -0.6 0.8 -1.2
v -0.6 0.8 -1.3
v -0.6 1 -1.2
v -0.6 1 -1.3
v 0.1 0.8 -1.2
v 0.1 0.8 -1.3
v 0.1 1 -1.2
v 0.1 1 -1.3
v 0.6 0.4 1.1
v 0.6 0.4 0.6
v 0.6 0.4 -0.5
v 0.6 0.4 -1
v 0.6 0.6 1.1
v 0.6 0.6 1
v 0.6 0.6 0.7
v 0.6 0.6 0.6
v 0.6 0.6 -0.5
v 0.6 0.6 -0.6
v 0.6 0.6 -0.9
v 0.6 0.6 -1
v 0.6 0.7 1
v 0.6 0.7 0.7
v 0.6 0.7 -0.6
v 0.6 0.7 -0.9
v 0.7 2.2 0.5
v 0.7 2.2 0.2
v 0.7 2.3 0.5
v 0.7 2.3 0.2
v 0.8 0.4 1.4
v 0.8 0.4 1.1
v 0.8 0.4 0.9
v 0.8 0.4 0.8
v 0.8 0.4 0.6
v 0.8 0.4 -0.5
v 0.8 0.4 -0.7
v 0.8 0.4 -0.8
v 0.8 0.4 -1
v 0.8 0.4 -1.2
v 0.8 0.4 -1.4
v 0.8 0.5 0.9
v 0.8 0.5 0.8
v 0.8 0.5 -0.7
v 0.8 0.5 -0.8
v 0.8 0.5 -1.2
v 0.8 0.5 -1.3
v 0.8 0.5 -1.4
v 0.8 0.6 1.1
v 0.8 0.6 1
v 0.8 0.6 0.7
v 0.8 0.6 0.6
v 0.8 0.6 -0.5
v 0.8 0.6 -0.6
v 0.8 0.6 -0.9
v 0.8 0.6 -1
v 0.8 0.7 1
v 0.8 0.7 0.7
v 0.8 0.7 -0.6
v 0.8 0.7 -0.9
v 0.8 1.2 1.4
v 0.8 1.2 0.9
v 0.8 1.2 0.8
v 0.8 1.2 0.7
v 0.8 1.2 0.4
v 0.8 1.2 0.3
v 0.8 1.2 -0.3
v 0.8 1.2 -0.4
v 0.8 1.2 -0.5
v 0.8 1.2 -1.3
v 0.8 1.9 0.7
v 0.8 1.9 0.4
v 0.8 1.9 0.3
v 0.8 1.9 -0.3
v 0.8 2.1 0.8
v 0.8 2.1 -0.4
v 0.8 2.2 0.9
v 0.8 2.2 -0.5
v -0.9 0.4 1.4
v -0.9 1.2 1.4
v -0.6 0.6 1.4
v -0.6 0.7 1.4
v -0.5 0.6 1.4
v -0.5 0.7 1.4
v -0.3 0.6 1.4
v -0.3 0.7 1.4
v 0.2 0.6 1.4
v 0.2 0.7 1.4
v 0.4 0.6 1.4
v 0.4 0.7 1.4
v 0.5 0.6 1.4
v 0.5 0.7 1.4
v 0.8 0.4 1.4
v 0.8 1.2 1.4
v -0.9 1.2 0.9
v -0.9 2.2 0.9
v 0.7 0.4 0.9
v 0.7 0.5 0.9
v 0.8 0.4 0.9
v 0.8 0.5 0.9
v 0.8 1.2 0.9
v 0.8 2.2 0.9
v -0.9 0.4 0.8
v -0.9 0.5 0.8
v -0.8 0.4 0.8
v -0.8 0.5 0.8
v 0.6 0.6 0.7
v 0.6 0.7 0.7
v 0.8 0.6 0.7
v 0.8 0.7 0.7
v -0.9 0.6 0.6
v -0.9 0.7 0.6
v -0.8 0.7 0.6
v -0.7 0.6 0.6
v -0.7 0.7 0.6
v 0.6 0.4 0.6
v 0.6 0.6 0.6
v 0.8 0.4 0.6
v 0.8 0.6 0.6
v -0.9 0.4 0.5
v -0.9 0.6 0.5
v -0.8 2.2 0.5
v -0.8 2.3 0.5
v -0.7 0.4 0.5
v -0.7 0.6 0.5
v -0.5 2.2 0.5
v -0.5 2.3 0.5
v -0.2 2.2 0.5
v -0.2 2.3 0.5
v 0.1 2.2 0.5
v 0.1 2.3 0.5
v 0.4 2.2 0.5
v 0.4 2.3 0.5
v 0.7 2.2 0.5
v 0.7 2.3 0.5
v -0.9 0.4 -0.7
v -0.9 0.5 -0.7
v -0.8 0.4 -0.7
v -0.8 0.5 -0.7
v 0.7 0.4 -0.7
v 0.7 0.5 -0.7
v 0.8 0.4 -0.7
v 0.8 0.5 -0.7
v -0.9 0.6 -0.9
v -0.9 0.7 -0.9
v -0.7 0.6 -0.9
v -0.7 0.7 -0.9
v 0.6 0.6 -0.9
v 0.6 0.7 -0.9
v 0.8 0.6 -0.9
v 0.8 0.7 -0.9
v -0.9 0.4 -1
v -0.9 0.6 -1
v -0.7 0.4 -1
v -0.7 0.6 -1
v 0.6 0.4 -1
v 0.6 0.6 -1
v 0.8 0.4 -1
v 0.8 0.6 -1
v 0.6 0.4 1.1
v 0.6 0.6 1.1
v 0.8 0.4 1.1
v 0.8 0.6 1.1
v -0.9 0.4 1
v -0.9 0.6 1
v -0.7 0.4 1
v -0.7 0.6 1
v 0.6 0.6 1
v 0.6 0.7 1
v 0.8 0.6 1
v 0.8 0.7 1
v -0.9 0.6 0.9
v -0.9 0.7 0.9
v -0.7 0.6 0.9
v -0.7 0.7 0.9
v 0.7 0.4 0.8
v 0.7 0.5 0.8
v 0.8 0.4 0.8
v 0.8 0.5 0.8
v -0.9 0.4 0.7
v -0.9 0.5 0.7
v -0.8 0.4 0.7
v -0.8 0.5 0.7
v -0.8 2.2 0.2
v -0.8 2.3 0.2
v -0.5 2.2 0.2
v -0.5 2.3 0.2
v -0.2 2.2 0.2
v -0.2 2.3 0.2
v 0.1 2.2 0.2
v 0.1 2.3 0.2
v 0.4 2.2 0.2
v 0.4 2.3 0.2
v 0.7 2.2 0.2
v 0.7 2.3 0.2
v -0.9 0.4 -0.5
v -0.9 0.6 -0.5
v -0.9 1.2 -0.5
v -0.9 2.2 -0.5
v -0.8 1.2 -0.5
v -0.8 2.1 -0.5
v -0.7 0.4 -0.5
v -0.7 0.6 -0.5
v -0.6 1.4 -0.5
v -0.6 1.9 -0.5
v 0.5 1.4 -0.5
v 0.5 1.9 -0.5
v 0.6 0.4 -0.5
v 0.6 0.6 -0.5
v 0.7 1.2 -0.5
v 0.7 2.1 -0.5
v 0.8 0.4 -0.5
v 0.8 0.6 -0.5
v 0.8 1.2 -0.5
v 0.8 2.2 -0.5
v -0.9 0.6 -0.6
v -0.9 0.7 -0.6
v -0.8 0.7 -0.6
v -0.7 0.6 -0.6
v -0.7 0.7 -0.6
v 0.6 0.6 -0.6
v 0.6 0.7 -0.6
v 0.8 0.6 -0.6
v 0.8 0.7 -0.6
v -0.9 0.4 -0.8
v -0.9 0.5 -0.8
v -0.8 0.4 -0.8
v -0.8 0.5 -0.8
v 0.7 0.4 -0.8
v 0.7 0.5 -0.8
v 0.8 0.4 -0.8
v 0.8 0.5 -0.8
v -0.6 0.8 -1.2
v -0.6 1 -1.2
v -0.2 0.8 -1.2
v -0.2 1 -1.2
v 0.1 0.8 -1.2
v 0.1 1 -1.2
v 0.5 0.8 -1.2
v 0.5 1 -1.2
v -0.9 0.5 -1.3
v -0.9 1.2 -1.3
v -0.6 0.8 -1.3
v -0.6 1 -1.3
v -0.3 0.5 -1.3
v -0.3 0.6 -1.3
v -0.2 0.8 -1.3
v -0.2 1 -1.3
v 0.1 0.8 -1.3
v 0.1 1 -1.3
v 0.2 0.5 -1.3
v 0.2 0.6 -1.3
v 0.5 0.8 -1.3
v 0.5 1 -1.3
v 0.8 0.5 -1.3
v 0.8 1.2 -1.3
v -0.9 0.4 -1.4
v -0.9 0.5 -1.4
v 0.8 0.4 -1.4
v 0.8 0.5 -1.4
v -0.9 0.4 1.4
v 0.8 0.4 1.4
v 0.6 0.4 1.1
v 0.8 0.4 1.1
v -0.9 0.4 1
v -0.7 0.4 1
v 0.7 0.4 0.9
v 0.8 0.4 0.9
v -0.9 0.4 0.8
v -0.8 0.4 0.8
v 0.7 0.4 0.8
v 0.8 0.4 0.8
v -0.9 0.4 0.7
v -0.8 0.4 0.7
v 0.6 0.4 0.6
v 0.8 0.4 0.6
v -0.9 0.4 0.5
v -0.7 0.4 0.5
v -0.9 0.4 -0.5
v -0.7 0.4 -0.5
v 0.6 0.4 -0.5
v 0.8 0.4 -0.5
v -0.9 0.4 -0.7
v -0.8 0.4 -0.7
v 0.7 0.4 -0.7
v 0.8 0.4 -0.7
v -0.9 0.4 -0.8
v -0.8 0.4 -0.8
v 0.7 0.4 -0.8
v 0.8 0.4 -0.8
v -0.9 0.4 -1
v -0.7 0.4 -1
v 0.6 0.4 -1
v 0.8 0.4 -1
v -0.9 0.4 -1.2
v -0.8 0.4 -1.2
v 0.7 0.4 -1.2
v 0.8 0.4 -1.2
v -0.8 0.4 -1.3
v 0.7 0.4 -1.3
v -0.9 0.4 -1.4
v 0.8 0.4 -1.4
v 0.6 0.6 1.1
v 0.8 0.6 1.1
v -0.9 0.6 1
v -0.7 0.6 1
v 0.6 0.6 1
v 0.8 0.6 1
v -0.9 0.6 0.9
v -0.7 0.6 0.9
v 0.6 0.6 0.7
v 0.8 0.6 0.7
v -0.9 0.6 0.6
v -0.7 0.6 0.6
v 0.6 0.6 0.6
v 0.8 0.6 0.6
v -0.9 0.6 0.5
v -0.7 0.6 0.5
v -0.9 0.6 -0.5
v -0.7 0.6 -0.5
v 0.6 0.6 -0.5
v 0.8 0.6 -0.5
v -0.9 0.6 -0.6
v -0.7 0.6 -0.6
v 0.6 0.6 -0.6
v 0.8 0.6 -0.6
v -0.9 0.6 -0.9
v -0.7 0.6 -0.9
v 0.6 0.6 -0.9
v 0.8 0.6 -0.9
v -0.9 0.6 -1
v -0.7 0.6 -1
v 0.6 0.6 -1
v 0.8 0.6 -1
v 0.6 0.7 1
v 0.8 0.7 1
v -0.9 0.7 0.9
v -0.7 0.7 0.9
v -0.9 0.7 0.8
v -0.8 0.7 0.8
v 0.6 0.7 0.7
v 0.8 0.7 0.7
v -0.9 0.7 0.6
v -0.8 0.7 0.6
v -0.7 0.7 0.6
v -0.9 0.7 -0.6
v -0.8 0.7 -0.6
v -0.7 0.7 -0.6
v 0.6 0.7 -0.6
v 0.8 0.7 -0.6
v -0.9 0.7 -0.8
v -0.8 0.7 -0.8
v -0.9 0.7 -0.9
v -0.7 0.7 -0.9
v 0.6 0.7 -0.9
v 0.8 0.7 -0.9
v -0.6 1 -1.2
v -0.2 1 -1.2
v 0.1 1 -1.2
v 0.5 1 -1.2
v -0.6 1 -1.3
v -0.2 1 -1.3
v 0.1 1 -1.3
v 0.5 1 -1.3
v 0.7 0.5 0.9
v 0.8 0.5 0.9
v -0.9 0.5 0.8
v -0.8 0.5 0.8
v 0.7 0.5 0.8
v 0.8 0.5 0.8
v -0.9 0.5 0.7
v -0.8 0.5 0.7
v -0.9 0.5 -0.7
v -0.8 0.5 -0.7
v 0.7 0.5 -0.7
v 0.8 0.5 -0.7
v -0.9 0.5 -0.8
v -0.8 0.5 -0.8
v 0.7 0.5 -0.8
v 0.8 0.5 -0.8
v -0.9 0.5 -1.3
v -0.3 0.5 -1.3
v 0.2 0.5 -1.3
v 0.8 0.5 -1.3
v -0.9 0.5 -1.4
v 0.8 0.5 -1.4
v -0.6 0.8 -1.2
v -0.2 0.8 -1.2
v 0.1 0.8 -1.2
v 0.5 0.8 -1.2
v -0.6 0.8 -1.3
v -0.2 0.8 -1.3
v 0.1 0.8 -1.3
v 0.5 0.8 -1.3
v -0.9 1.2 1.4
v 0.8 1.2 1.4
v -0.9 1.2 0.9
v 0.8 1.2 0.9
v -0.9 1.2 -0.5
v -0.8 1.2 -0.5
v 0.7 1.2 -0.5
v 0.8 1.2 -0.5
v -0.9 1.2 -1.3
v 0.8 1.2 -1.3
v -0.9 2.2 0.9
v 0.8 2.2 0.9
v -0.8 2.2 0.5
v -0.5 2.2 0.5
v -0.2 2.2 0.5
v 0.1 2.2 0.5
v 0.4 2.2 0.5
v 0.7 2.2 0.5
v -0.8 2.2 0.2
v -0.5 2.2 0.2
v -0.2 2.2 0.2
v 0.1 2.2 0.2
v 0.4 2.2 0.2
v 0.7 2.2 0.2
v -0.9 2.2 -0.5
v 0.8 2.2 -0.5
v -0.8 2.3 0.5
v -0.5 2.3 0.5
v -0.2 2.3 0.5
v 0.1 2.3 0.5
v 0.4 2.3 0.5
v 0.7 2.3 0.5
v -0.8 2.3 0.2
v -0.5 2.3 0.2
v -0.2 2.3 0.2
v 0.1 2.3 0.2
v 0.4 2.3 0.2
v 0.7 2.3 0.2

# faces
f 12/8/1 4/8/1 3/8/1
f 13/8/1 4/8/1 12/8/1
f 14/8/1 8/8/1 7/8/1
f 15/8/1 8/8/1 14/8/1
f 16/8/1 11/8/1 10/8/1
f 16/3/1 10/3/1 9/3/1
f 17/8/1 11/8/1 16/8/1
f 18/8/1 11/8/1 17/8/1
f 19/3/1 2/3/1 1/3/1
f 22/3/1 6/3/1 5/3/1
f 23/3/1 6/3/1 22/3/1
f 26/3/1 17/3/1 16/3/1
f 26/3/1 16/3/1 9/3/1
f 27/3/1 20/3/1 19/3/1
f 29/3/1 24/3/1 23/3/1
f 29/3/1 23/3/1 22/3/1
f 29/3/1 22/3/1 21/3/1
f 30/3/1 24/3/1 29/3/1
f 31/3/1 24/3/1 30/3/1
f 32/3/1 24/3/1 31/3/1
f 33/3/1 24/3/1 32/3/1
f 34/3/1 24/3/1 33/3/1
f 35/3/1 24/3/1 34/3/1
f 36/3/1 24/3/1 35/3/1
f 38/3/1 26/3/1 25/3/1
f 39/5/1 29/5/1 28/5/1
f 39/5/1 30/5/1 29/5/1
f 40/5/1 30/5/1 39/5/1
f 41/5/1 30/5/1 40/5/1
f 42/3/1 31/3/1 30/3/1
f 42/5/1 30/5/1 41/5/1
f 43/3/1 31/3/1 42/3/1
f 44/5/1 32/5/1 31/5/1
f 44/3/1 31/3/1 43/3/1
f 45/3/1 33/3/1 32/3/1
f 45/5/1 34/5/1 33/5/1
f 46/5/1 34/5/1 45/5/1
f 47/5/1 37/5/1 36/5/1
f 47/5/1 36/5/1 35/5/1
f 48/5/1 37/5/1 47/5/1
f 49/5/1 44/5/1 43/5/1
f 50/5/1 32/5/1 44/5/1
f 50/5/1 44/5/1 49/5/1
f 51/3/1 35/3/1 34/3/1
f 51/5/1 47/5/1 35/5/1
f 52/3/1 48/3/1 47/3/1
f 52/5/1 47/5/1 51/5/1
f 53/5/1 39/5/1 28/5/1
f 53/3/1 40/3/1 39/3/1
f 54/5/1 41/5/1 40/5/1
f 54/3/1 40/3/1 53/3/1
f 55/3/1 43/3/1 42/3/1
f 55/5/1 41/5/1 54/5/1
f 55/3/1 42/3/1 41/3/1
f 56/3/1 43/3/1 55/3/1
f 57/5/1 49/5/1 43/5/1
f 57/3/1 50/3/1 49/3/1
f 58/5/1 32/5/1 50/5/1
f 58/3/1 50/3/1 57/3/1
f 59/3/1 46/3/1 45/3/1
f 59/3/1 45/3/1 32/3/1
f 60/5/1 34/5/1 46/5/1
f 60/3/1 46/3/1 59/3/1
f 61/3/1 52/3/1 51/3/1
f 61/3/1 51/3/1 34/3/1
f 62/5/1 37/5/1 48/5/1
f 62/3/1 52/3/1 61/3/1
f 62/3/1 48/3/1 52/3/1
f 63/3/1 28/3/1 27/3/1
f 63/5/1 53/5/1 28/5/1
f 63/5/1 54/5/1 53/5/1
f 63/5/1 56/5/1 55/5/1
f 63/5/1 55/5/1 54/5/1
f 64/3/1 43/3/1 56/3/1
f 64/5/1 56/5/1 63/5/1
f 65/5/1 58/5/1 57/5/1
f 65/3/1 43/3/1 64/3/1
f 65/5/1 57/5/1 43/5/1
f 66/3/1 59/3/1 32/3/1
f 66/5/1 58/5/1 65/5/1
f 66/5/1 32/5/1 58/5/1
f 67/5/1 60/5/1 59/5/1
f 67/3/1 59/3/1 66/3/1
f 68/3/1 61/3/1 34/3/1
f 68/5/1 60/5/1 67/5/1
f 68/5/1 34/5/1 60/5/1
f 69/5/1 62/5/1 61/5/1
f 69/3/1 61/3/1 68/3/1
f 70/5/1 37/5/1 62/5/1
f 70/5/1 62/5/1 69/5/1
f 70/3/1 38/3/1 37/3/1
f 71/3/1 69/3/1 68/3/1
f 71/3/1 65/3/1 64/3/1
f 71/3/1 70/3/1 69/3/1
f 71/3/1 27/3/1 19/3/1
f 71/3/1 67/3/1 66/3/1
f 71/3/1 63/3/1 27/3/1
f 71/3/1 64/3/1 63/3/1
f 71/3/1 68/3/1 67/3/1
f 71/3/1 19/3/1 1/3/1
f 71/3/1 66/3/1 65/3/1
f 72/3/1 70/3/1 71/3/1
f 73/3/1 70/3/1 72/3/1
f 74/3/1 70/3/1 73/3/1
f 75/3/1 70/3/1 74/3/1
f 76/3/1 70/3/1 75/3/1
f 77/3/1 70/3/1 76/3/1
f 78/3/1 70/3/1 77/3/1
f 79/3/1 70/3/1 78/3/1
f 80/3/1 38/3/1 70/3/1
f 80/3/1 70/3/1 79/3/1
f 80/3/1 26/3/1 38/3/1
f 80/3/1 17/3/1 26/3/1
f 81/3/1 74/3/1 73/3/1
f 81/5/1 75/5/1 74/5/1
f 82/3/1 76/3/1 75/3/1
f 82/5/1 75/5/1 81/5/1
f 83/5/1 77/5/1 76/5/1
f 83/3/1 76/3/1 82/3/1
f 84/3/1 78/3/1 77/3/1
f 84/5/1 77/5/1 83/5/1
f 85/3/1 83/3/1 82/3/1
f 85/3/1 82/3/1 81/3/1
f 85/3/1 84/3/1 83/3/1
f 85/3/1 81/3/1 73/3/1
f 85/6/1 73/6/1 72/6/1
f 86/6/1 79/6/1 78/6/1
f 86/3/1 84/3/1 85/3/1
f 86/3/1 78/3/1 84/3/1
f 87/6/1 85/6/1 72/6/1
f 87/6/1 86/6/1 85/6/1
f 88/6/1 79/6/1 86/6/1
f 88/6/1 86/6/1 87/6/1
f 91/2/1 90/2/1 89/2/1
f 92/2/1 90/2/1 91/2/1
f 97/3/1 94/3/1 93/3/1
f 98/3/1 94/3/1 97/3/1
f 99/3/1 94/3/1 98/3/1
f 100/3/1 94/3/1 99/3/1
f 101/3/1 96/3/1 95/3/1
f 102/3/1 96/3/1 101/3/1
f 103/3/1 96/3/1 102/3/1
f 104/3/1 96/3/1 103/3/1
f 105/3/1 99/3/1 98/3/1
f 106/3/1 99/3/1 105/3/1
f 107/3/1 103/3/1 102/3/1
f 108/3/1 103/3/1 107/3/1
f 111/3/1 110/3/1 109/3/1
f 112/3/1 110/3/1 111/3/1
f 115/3/1 114/3/1 113/3/1
f 116/3/1 114/3/1 115/3/1
f 121/8/1 118/8/1 117/8/1
f 122/8/1 118/8/1 121/8/1
f 123/8/1 120/8/1 119/8/1
f 124/8/1 120/8/1 123/8/1
f 125/8/2 126/8/2 129/8/2
f 129/8/2 126/8/2 130/8/2
f 127/8/2 128/8/2 131/8/2
f 131/8/2 128/8/2 132/8/2
f 133/3/2 134/3/2 135/3/2
f 135/3/2 134/3/2 136/3/2
f 137/3/2 138/3/2 139/3/2
f 139/3/2 138/3/2 140/3/2
f 141/3/2 142/3/2 145/3/2
f 145/3/2 142/3/2 146/3/2
f 146/3/2 142/3/2 147/3/2
f 147/3/2 142/3/2 148/3/2
f 143/3/2 144/3/2 149/3/2
f 149/3/2 144/3/2 150/3/2
f 150/3/2 144/3/2 151/3/2
f 151/3/2 144/3/2 152/3/2
f 146/3/2 147/3/2 153/3/2
f 153/3/2 147/3/2 154/3/2
f 150/3/2 151/3/2 155/3/2
f 155/3/2 151/3/2 156/3/2
f 157/2/2 158/2/2 159/2/2
f 159/2/2 158/2/2 160/2/2
f 163/8/2 164/8/2 172/8/2
f 172/8/2 164/8/2 173/8/2
f 167/8/2 168/8/2 174/8/2
f 174/8/2 168/8/2 175/8/2
f 170/8/2 171/8/2 176/8/2
f 169/3/2 170/3/2 176/3/2
f 176/8/2 171/8/2 177/8/2
f 177/8/2 171/8/2 178/8/2
f 161/3/2 162/3/2 179/3/2
f 165/3/2 166/3/2 182/3/2
f 182/3/2 166/3/2 183/3/2
f 176/3/2 177/3/2 186/3/2
f 169/3/2 176/3/2 186/3/2
f 179/3/2 180/3/2 187/3/2
f 183/3/2 184/3/2 188/3/2
f 182/3/2 183/3/2 188/3/2
f 181/3/2 182/3/2 188/3/2
f 188/3/2 184/3/2 189/3/2
f 185/3/2 186/3/2 190/3/2
f 179/3/2 187/3/2 191/3/2
f 189/3/2 190/3/2 191/3/2
f 188/3/2 189/3/2 191/3/2
f 161/3/2 179/3/2 191/3/2
f 187/3/2 188/3/2 191/3/2
f 191/3/2 190/3/2 192/3/2
f 192/3/2 190/3/2 193/3/2
f 193/3/2 190/3/2 194/3/2
f 194/3/2 190/3/2 195/3/2
f 195/3/2 190/3/2 196/3/2
f 196/3/2 190/3/2 197/3/2
f 197/3/2 190/3/2 198/3/2
f 198/3/2 190/3/2 199/3/2
f 190/3/2 186/3/2 200/3/2
f 199/3/2 190/3/2 200/3/2
f 186/3/2 177/3/2 200/3/2
f 193/3/2 194/3/2 201/3/2
f 194/5/2 195/5/2 201/5/2
f 195/3/2 196/3/2 202/3/2
f 201/5/2 195/5/2 202/5/2
f 196/5/2 197/5/2 203/5/2
f 202/3/2 196/3/2 203/3/2
f 197/3/2 198/3/2 204/3/2
f 203/5/2 197/5/2 204/5/2
f 202/3/2 203/3/2 205/3/2
f 192/6/2 193/6/2 205/6/2
f 203/3/2 204/3/2 205/3/2
f 193/3/2 201/3/2 205/3/2
f 201/3/2 202/3/2 205/3/2
f 198/6/2 199/6/2 206/6/2
f 205/3/2 204/3/2 206/3/2
f 204/3/2 198/3/2 206/3/2
f 192/6/2 205/6/2 207/6/2
f 205/6/2 206/6/2 207/6/2
f 206/6/2 199/6/2 208/6/2
f 207/6/2 206/6/2 208/6/2
f 211/3/3 210/3/3 209/3/3
f 212/3/3 210/3/3 211/3/3
f 213/3/3 211/3/3 209/3/3
f 213/2/3 212/2/3 211/2/3
f 214/3/3 210/3/3 212/3/3
f 214/2/3 212/2/3 213/2/3
f 215/3/3 213/3/3 209/3/3
f 215/1/3 214/1/3 213/1/3
f 216/3/3 210/3/3 214/3/3
f 216/1/3 214/1/3 215/1/3
f 217/3/3 215/3/3 209/3/3
f 217/3/3 216/3/3 215/3/3
f 218/3/3 210/3/3 216/3/3
f 218/3/3 216/3/3 217/3/3
f 219/3/3 217/3/3 209/3/3
f 219/1/3 218/1/3 217/1/3
f 220/3/3 210/3/3 218/3/3
f 220/1/3 218/1/3 219/1/3
f 221/3/3 219/3/3 209/3/3
f 221/2/3 220/2/3 219/2/3
f 222/3/3 210/3/3 220/3/3
f 222/2/3 220/2/3 221/2/3
f 223/3/3 221/3/3 209/3/3
f 223/3/3 222/3/3 221/3/3
f 224/3/3 210/3/3 222/3/3
f 224/3/3 222/3/3 223/3/3
f 229/8/3 228/8/3 227/8/3
f 230/8/3 228/8/3 229/8/3
f 231/6/3 226/6/3 225/6/3
f 232/6/3 226/6/3 231/6/3
f 235/8/3 234/8/3 233/8/3
f 236/8/3 234/8/3 235/8/3
f 239/3/3 238/3/3 237/3/3
f 240/3/3 238/3/3 239/3/3
f 243/3/3 242/3/3 241/3/3
f 244/3/3 243/3/3 241/3/3
f 245/3/3 243/3/3 244/3/3
f 248/3/3 247/3/3 246/3/3
f 249/3/3 247/3/3 248/3/3
f 254/3/3 251/3/3 250/3/3
f 255/3/3 251/3/3 254/3/3
f 256/2/3 253/2/3 252/2/3
f 257/2/3 253/2/3 256/2/3
f 258/4/3 257/4/3 256/4/3
f 259/4/3 257/4/3 258/4/3
f 260/7/3 259/7/3 258/7/3
f 261/7/3 259/7/3 260/7/3
f 262/4/3 261/4/3 260/4/3
f 263/4/3 261/4/3 262/4/3
f 264/2/3 263/2/3 262/2/3
f 265/2/3 263/2/3 264/2/3
f 268/8/3 267/8/3 266/8/3
f 269/8/3 267/8/3 268/8/3
f 272/8/3 271/8/3 270/8/3
f 273/8/3 271/8/3 272/8/3
f 276/3/3 275/3/3 274/3/3
f 277/3/3 275/3/3 276/3/3
f 280/3/3 279/3/3 278/3/3
f 281/3/3 279/3/3 280/3/3
f 284/3/3 283/3/3 282/3/3
f 285/3/3 283/3/3 284/3/3
f 288/3/3 287/3/3 286/3/3
f 289/3/3 287/3/3 288/3/3
f 290/3/4 291/3/4 292/3/4
f 292/3/4 291/3/4 293/3/4
f 294/3/4 295/3/4 296/3/4
f 296/3/4 295/3/4 297/3/4
f 298/3/4 299/3/4 300/3/4
f 300/3/4 299/3/4 301/3/4
f 302/3/4 303/3/4 304/3/4
f 304/3/4 303/3/4 305/3/4
f 306/8/4 307/8/4 308/8/4
f 308/8/4 307/8/4 309/8/4
f 310/8/4 311/8/4 312/8/4
f 312/8/4 311/8/4 313/8/4
f 314/2/4 315/2/4 316/2/4
f 316/2/4 315/2/4 317/2/4
f 316/4/4 317/4/4 318/4/4
f 318/4/4 317/4/4 319/4/4
f 318/7/4 319/7/4 320/7/4
f 320/7/4 319/7/4 321/7/4
f 320/4/4 321/4/4 322/4/4
f 322/4/4 321/4/4 323/4/4
f 322/2/4 323/2/4 324/2/4
f 324/2/4 323/2/4 325/2/4
f 328/6/4 329/6/4 330/6/4
f 330/6/4 329/6/4 331/6/4
f 326/3/4 327/3/4 332/3/4
f 332/3/4 327/3/4 333/3/4
f 330/3/4 331/3/4 334/3/4
f 334/3/4 331/3/4 335/3/4
f 330/3/4 334/3/4 336/3/4
f 334/5/4 335/5/4 336/5/4
f 335/3/4 331/3/4 337/3/4
f 336/5/4 335/5/4 337/5/4
f 330/3/4 336/3/4 340/3/4
f 336/3/4 337/3/4 340/3/4
f 331/6/4 329/6/4 341/6/4
f 340/3/4 337/3/4 341/3/4
f 337/3/4 331/3/4 341/3/4
f 338/3/4 339/3/4 342/3/4
f 342/3/4 339/3/4 343/3/4
f 340/6/4 341/6/4 344/6/4
f 341/6/4 329/6/4 345/6/4
f 344/6/4 341/6/4 345/6/4
f 346/3/4 347/3/4 348/3/4
f 346/3/4 348/3/4 349/3/4
f 349/3/4 348/3/4 350/3/4
f 351/3/4 352/3/4 353/3/4
f 353/3/4 352/3/4 354/3/4
f 355/8/4 356/8/4 357/8/4
f 357/8/4 356/8/4 358/8/4
f 359/8/4 360/8/4 361/8/4
f 361/8/4 360/8/4 362/8/4
f 363/1/4 364/1/4 365/1/4
f 365/1/4 364/1/4 366/1/4
f 367/1/4 368/1/4 369/1/4
f 369/1/4 368/1/4 370/1/4
f 371/3/4 372/3/4 373/3/4
f 373/3/4 372/3/4 374/3/4
f 371/3/4 373/3/4 375/3/4
f 375/3/4 373/3/4 376/3/4
f 376/3/4 373/3/4 377/3/4
f 374/3/4 372/3/4 378/3/4
f 376/3/4 377/3/4 379/3/4
f 377/3/4 378/3/4 379/3/4
f 378/3/4 372/3/4 380/3/4
f 379/3/4 378/3/4 380/3/4
f 375/9/4 376/9/4 381/9/4
f 376/3/4 379/3/4 382/3/4
f 381/9/4 376/9/4 382/9/4
f 381/3/4 382/3/4 383/3/4
f 382/3/4 379/3/4 383/3/4
f 380/3/4 372/3/4 384/3/4
f 381/3/4 383/3/4 385/3/4
f 383/3/4 384/3/4 385/3/4
f 384/3/4 372/3/4 386/3/4
f 385/3/4 384/3/4 386/3/4
f 387/8/4 388/8/4 389/8/4
f 389/8/4 388/8/4 390/8/4
f 393/3/5 392/3/5 391/3/5
f 394/3/5 392/3/5 393/3/5
f 395/3/5 393/3/5 391/3/5
f 396/3/5 393/3/5 395/3/5
f 401/8/5 398/8/5 397/8/5
f 402/8/5 398/8/5 401/8/5
f 403/8/5 400/8/5 399/8/5
f 404/8/5 400/8/5 403/8/5
f 405/3/5 393/3/5 396/3/5
f 408/3/5 405/3/5 396/3/5
f 408/3/5 406/3/5 405/3/5
f 409/3/5 408/3/5 407/3/5
f 410/3/5 406/3/5 408/3/5
f 410/3/5 408/3/5 409/3/5
f 411/3/5 406/3/5 410/3/5
f 412/3/5 406/3/5 411/3/5
f 417/8/5 414/8/5 413/8/5
f 418/8/5 414/8/5 417/8/5
f 419/8/5 416/8/5 415/8/5
f 420/8/5 416/8/5 419/8/5
f 422/3/5 411/3/5 410/3/5
f 423/3/5 411/3/5 422/3/5
f 425/3/5 422/3/5 421/3/5
f 425/3/5 424/3/5 423/3/5
f 425/3/5 423/3/5 422/3/5
f 426/3/5 424/3/5 425/3/5
f 427/3/5 424/3/5 426/3/5
f 428/3/5 424/3/5 427/3/5
f 429/8/5 426/8/5 425/8/5
f 429/3/5 427/3/5 426/3/5
f 430/8/5 428/8/5 427/8/5
f 430/3/5 427/3/5 429/3/5
f 431/8/5 429/8/5 425/8/5
f 431/8/5 430/8/5 429/8/5
f 432/8/5 428/8/5 430/8/5
f 432/8/5 430/8/5 431/8/5
f 437/3/5 434/3/5 433/3/5
f 438/3/5 434/3/5 437/3/5
f 439/3/5 436/3/5 435/3/5
f 440/3/5 436/3/5 439/3/5
f 445/3/5 442/3/5 441/3/5
f 446/3/5 442/3/5 445/3/5
f 447/3/5 444/3/5 443/3/5
f 448/3/5 444/3/5 447/3/5
f 453/3/5 450/3/5 449/3/5
f 454/3/5 450/3/5 453/3/5
f 455/3/5 452/3/5 451/3/5
f 456/3/5 452/3/5 455/3/5
f 461/3/5 458/3/5 457/3/5
f 462/3/5 458/3/5 461/3/5
f 463/3/5 460/3/5 459/3/5
f 464/3/5 460/3/5 463/3/5
f 469/3/5 468/3/5 467/3/5
f 470/3/5 468/3/5 469/3/5
f 471/3/5 466/3/5 465/3/5
f 472/3/5 466/3/5 471/3/5
f 473/5/5 470/5/5 469/5/5
f 474/3/5 468/3/5 470/3/5
f 474/5/5 470/5/5 473/5/5
f 475/3/5 468/3/5 474/3/5
f 481/5/5 477/5/5 476/5/5
f 482/3/5 478/3/5 477/3/5
f 482/5/5 477/5/5 481/5/5
f 483/3/5 482/3/5 481/3/5
f 484/3/5 478/3/5 482/3/5
f 484/3/5 482/3/5 483/3/5
f 485/3/5 480/3/5 479/3/5
f 486/3/5 480/3/5 485/3/5
f 491/3/5 488/3/5 487/3/5
f 492/3/5 488/3/5 491/3/5
f 493/3/5 490/3/5 489/3/5
f 494/3/5 490/3/5 493/3/5
f 495/8/6 496/8/6 499/8/6
f 499/8/6 496/8/6 500/8/6
f 497/8/6 498/8/6 501/8/6
f 501/8/6 498/8/6 502/8/6
f 503/8/6 504/8/6 507/8/6
f 507/8/6 504/8/6 508/8/6
f 505/8/6 506/8/6 509/8/6
f 509/8/6 506/8/6 510/8/6
f 511/8/6 512/8/6 515/8/6
f 513/8/6 514/8/6 515/8/6
f 512/8/6 513/8/6 515/8/6
f 515/8/6 514/8/6 516/8/6
f 517/3/6 518/3/6 521/3/6
f 521/3/6 518/3/6 522/3/6
f 519/3/6 520/3/6 523/3/6
f 523/3/6 520/3/6 524/3/6
f 525/3/6 526/3/6 527/3/6
f 527/3/6 526/3/6 528/3/6
f 529/3/6 530/3/6 533/3/6
f 531/3/6 532/3/6 533/3/6
f 530/3/6 531/3/6 533/3/6
f 533/3/6 532/3/6 534/3/6
f 535/6/6 536/6/6 537/6/6
f 537/6/6 536/6/6 538/6/6
f 538/6/6 536/6/6 539/6/6
f 539/6/6 536/6/6 540/6/6
f 540/6/6 536/6/6 541/6/6
f 541/6/6 536/6/6 542/6/6
f 535/6/6 537/6/6 543/6/6
f 542/6/6 536/6/6 548/6/6
f 546/6/6 547/6/6 549/6/6
f 547/6/6 548/6/6 549/6/6
f 535/6/6 543/6/6 549/6/6
f 543/6/6 544/6/6 549/6/6
f 545/6/6 546/6/6 549/6/6
f 544/6/6 545/6/6 549/6/6
f 548/6/6 536/6/6 550/6/6
f 549/6/6 548/6/6 550/6/6
f 551/2/6 552/2/6 557/2/6
f 552/4/6 553/4/6 558/4/6
f 557/2/6 552/2/6 558/2/6
f 553/7/6 554/7/6 559/7/6
f 558/4/6 553/4/6 559/4/6
f 554/4/6 555/4/6 560/4/6
f 559/7/6 554/7/6 560/7/6
f 555/2/6 556/2/6 561/2/6
f 560/4/6 555/4/6 561/4/6
f 561/2/6 556/2/6 562/2/6
