# 3ds Max Wavefront OBJ Exporter v0.99 - (c)2007 guruware
# File Created: 03.05.2022 20:21:21

mtllib Gancho.mtl

#
# object Gancho
#

v  -0.2481 0.7846 0.0534
v  -0.2481 0.4846 -0.0466
v  -0.2481 0.4846 0.0534
v  -0.2481 0.7846 -0.0466
v  -0.0481 0.1846 0.0534
v  -0.0481 -0.0154 -0.0466
v  -0.0481 -0.0154 0.0534
v  -0.0481 0.1846 -0.0466
v  -0.0481 0.6846 0.1534
v  -0.0481 0.4846 0.1534
v  -0.0481 0.4846 0.2534
v  -0.0481 0.6846 0.0534
v  -0.0481 0.6846 -0.0466
v  -0.0481 0.6846 -0.1466
v  -0.0481 0.4846 -0.2466
v  -0.0481 0.4846 -0.1466
v  -0.0481 0.7846 0.2534
v  -0.0481 0.7846 0.0534
v  -0.0481 0.7846 -0.0466
v  -0.0481 0.7846 -0.2466
v  0.1519 0.6846 0.0534
v  0.1519 0.4846 -0.0466
v  0.1519 0.4846 0.0534
v  0.1519 0.6846 -0.0466
v  -0.1481 0.4846 0.0534
v  -0.1481 0.4846 -0.0466
v  -0.1481 0.6846 0.0534
v  -0.1481 0.6846 -0.0466
v  0.0519 -0.0154 0.0534
v  0.0519 -0.0154 -0.0466
v  0.0519 0.1846 0.0534
v  0.0519 0.1846 -0.0466
v  0.0519 0.4846 0.2534
v  0.0519 0.4846 0.1534
v  0.0519 0.6846 0.1534
v  0.0519 0.6846 0.0534
v  0.0519 0.6846 -0.0466
v  0.0519 0.4846 -0.1466
v  0.0519 0.4846 -0.2466
v  0.0519 0.6846 -0.1466
v  0.0519 0.7846 0.2534
v  0.0519 0.7846 0.0534
v  0.0519 0.7846 -0.0466
v  0.0519 0.7846 -0.2466
v  0.2519 0.4846 0.0534
v  0.2519 0.4846 -0.0466
v  0.2519 0.7846 0.0534
v  0.2519 0.7846 -0.0466
# 48 vertices

vn -1.0000 0.0000 -0.0000
vn 1.0000 0.0000 -0.0000
vn 0.0000 0.0000 1.0000
vn 0.0000 0.0000 -1.0000
vn 0.0000 -1.0000 -0.0000
vn 0.0000 1.0000 -0.0000
# 6 vertex normals

vt 0.0176 0.5000 0.0000
vt 0.9473 0.5000 0.0000
# 2 texture coords

o Gancho
g Gancho
usemtl Gancho_palette
s 1
f 1/1/1 2/1/1 3/1/1 
f 4/1/1 2/1/1 1/1/1 
f 5/2/1 6/2/1 7/2/1 
f 8/2/1 6/2/1 5/2/1 
f 9/1/1 10/1/1 11/1/1 
f 12/1/1 8/1/1 5/1/1 
f 13/1/1 8/1/1 12/1/1 
f 14/1/1 15/1/1 16/1/1 
f 17/1/1 9/1/1 11/1/1 
f 17/1/1 12/1/1 9/1/1 
f 18/1/1 12/1/1 17/1/1 
f 19/1/1 14/1/1 13/1/1 
f 20/1/1 15/1/1 14/1/1 
f 20/1/1 14/1/1 19/1/1 
f 21/1/1 22/1/1 23/1/1 
f 24/1/1 22/1/1 21/1/1 
f 25/1/2 26/1/2 27/1/2 
f 27/1/2 26/1/2 28/1/2 
f 29/2/2 30/2/2 31/2/2 
f 31/2/2 30/2/2 32/2/2 
f 33/1/2 34/1/2 35/1/2 
f 31/1/2 32/1/2 36/1/2 
f 36/1/2 32/1/2 37/1/2 
f 38/1/2 39/1/2 40/1/2 
f 33/1/2 35/1/2 41/1/2 
f 35/1/2 36/1/2 41/1/2 
f 41/1/2 36/1/2 42/1/2 
f 37/1/2 40/1/2 43/1/2 
f 40/1/2 39/1/2 44/1/2 
f 43/1/2 40/1/2 44/1/2 
f 45/1/2 46/1/2 47/1/2 
f 47/1/2 46/1/2 48/1/2 
f 33/1/3 17/1/3 11/1/3 
f 41/1/3 17/1/3 33/1/3 
f 25/1/3 1/1/3 3/1/3 
f 27/1/3 1/1/3 25/1/3 
f 12/1/3 1/1/3 27/1/3 
f 18/1/3 1/1/3 12/1/3 
f 29/2/3 5/2/3 7/2/3 
f 31/1/3 12/1/3 5/1/3 
f 31/2/3 5/2/3 29/2/3 
f 36/1/3 12/1/3 31/1/3 
f 21/1/3 42/1/3 36/1/3 
f 45/1/3 21/1/3 23/1/3 
f 47/1/3 42/1/3 21/1/3 
f 47/1/3 21/1/3 45/1/3 
f 38/1/3 14/1/3 16/1/3 
f 40/1/3 14/1/3 38/1/3 
f 10/1/4 9/1/4 34/1/4 
f 34/1/4 9/1/4 35/1/4 
f 2/1/4 4/1/4 26/1/4 
f 26/1/4 4/1/4 28/1/4 
f 28/1/4 4/1/4 13/1/4 
f 13/1/4 4/1/4 19/1/4 
f 6/2/4 8/2/4 30/2/4 
f 8/1/4 13/1/4 32/1/4 
f 30/2/4 8/2/4 32/2/4 
f 32/1/4 13/1/4 37/1/4 
f 37/1/4 43/1/4 24/1/4 
f 22/1/4 24/1/4 46/1/4 
f 24/1/4 43/1/4 48/1/4 
f 46/1/4 24/1/4 48/1/4 
f 15/1/4 20/1/4 39/1/4 
f 39/1/4 20/1/4 44/1/4 
f 6/2/5 29/2/5 7/2/5 
f 30/2/5 29/2/5 6/2/5 
f 10/1/5 33/1/5 11/1/5 
f 34/1/5 33/1/5 10/1/5 
f 2/1/5 25/1/5 3/1/5 
f 26/1/5 25/1/5 2/1/5 
f 22/1/5 45/1/5 23/1/5 
f 46/1/5 45/1/5 22/1/5 
f 15/1/5 38/1/5 16/1/5 
f 39/1/5 38/1/5 15/1/5 
f 12/1/5 35/1/5 9/1/5 
f 36/1/5 35/1/5 12/1/5 
f 28/1/5 12/1/5 27/1/5 
f 13/1/5 12/1/5 28/1/5 
f 37/1/5 21/1/5 36/1/5 
f 24/1/5 21/1/5 37/1/5 
f 14/1/5 37/1/5 13/1/5 
f 40/1/5 37/1/5 14/1/5 
f 17/1/6 41/1/6 18/1/6 
f 18/1/6 41/1/6 42/1/6 
f 1/1/6 18/1/6 4/1/6 
f 42/1/6 47/1/6 4/1/6 
f 18/1/6 42/1/6 4/1/6 
f 4/1/6 47/1/6 19/1/6 
f 19/1/6 47/1/6 43/1/6 
f 43/1/6 47/1/6 48/1/6 
f 19/1/6 43/1/6 20/1/6 
f 20/1/6 43/1/6 44/1/6 
# 92 faces

