# 3ds Max Wavefront OBJ Exporter v0.99 - (c)2007 guruware
# File Created: 01.05.2022 16:17:50

mtllib Jason_Pierna.mtl

#
# object Jason_Pierna
#

v  -0.4949 -0.3178 0.2852
v  -0.4949 -0.4178 -0.5148
v  -0.4949 -0.4178 0.2852
v  -0.4949 -0.3178 -0.5148
v  -0.3949 -1.6178 0.7852
v  -0.3949 -2.1178 -0.5148
v  -0.3949 -2.1178 0.7852
v  -0.3949 -1.6178 0.2852
v  -0.3949 -1.2178 0.2852
v  -0.3949 -1.2178 -0.5148
v  -0.3949 -0.4178 0.2852
v  -0.3949 -0.4178 -0.5148
v  -0.3949 0.2822 0.2852
v  -0.3949 -0.3178 -0.5148
v  -0.3949 -0.3178 0.2852
v  -0.3949 0.2822 -0.5148
v  -0.2949 -0.3178 0.1852
v  -0.2949 -0.4178 -0.4148
v  -0.2949 -0.4178 0.1852
v  -0.2949 -0.3178 -0.4148
v  -0.3949 -0.4178 0.1852
v  -0.3949 -0.4178 -0.4148
v  -0.3949 -0.3178 0.1852
v  -0.3949 -0.3178 -0.4148
v  0.4051 -2.1178 0.7852
v  0.4051 -2.1178 -0.5148
v  0.4051 -1.6178 0.7852
v  0.4051 -1.6178 0.2852
v  0.4051 -1.2178 0.2852
v  0.4051 -1.2178 -0.5148
v  0.4051 -1.0178 0.2852
v  0.4051 -1.0178 -0.5148
v  0.4051 -0.0178 0.2852
v  0.4051 -0.0178 -0.5148
v  0.4051 0.2822 0.2852
v  0.4051 0.2822 -0.5148
v  0.5051 -1.0178 0.2852
v  0.5051 -1.0178 -0.5148
v  0.5051 -0.3178 0.1852
v  0.5051 -0.3178 -0.4148
v  0.5051 -0.2178 0.1852
v  0.5051 -0.2178 -0.4148
v  0.5051 -0.0178 0.2852
v  0.5051 -0.0178 -0.5148
v  0.3051 -1.0178 0.2852
v  0.3051 -0.4178 0.2852
v  0.3051 -0.3178 0.2852
v  0.3051 -0.0178 0.2852
v  0.3051 -1.0178 -0.5148
v  0.3051 -0.4178 -0.5148
v  0.3051 -0.3178 -0.5148
v  0.3051 -0.0178 -0.5148
# 52 vertices

vn -1.0000 0.0000 -0.0000
vn 1.0000 0.0000 -0.0000
vn 0.0000 0.0000 1.0000
vn 0.0000 0.0000 -1.0000
vn 0.0000 -1.0000 -0.0000
vn 0.0000 1.0000 -0.0000
# 6 vertex normals

vt 0.9941 0.5000 0.0000
vt 0.9863 0.5000 0.0000
# 2 texture coords

o Jason_Pierna
g Jason_Pierna
usemtl Jason_Pierna_palette
s 1
f 1/1/1 2/1/1 3/1/1 
f 4/1/1 2/1/1 1/1/1 
f 5/1/1 6/1/1 7/1/1 
f 8/1/1 6/1/1 5/1/1 
f 9/1/1 6/1/1 8/1/1 
f 10/1/1 6/1/1 9/1/1 
f 11/2/1 10/2/1 9/2/1 
f 12/2/1 10/2/1 11/2/1 
f 13/2/1 14/2/1 15/2/1 
f 16/2/1 14/2/1 13/2/1 
f 17/1/1 18/1/1 19/1/1 
f 20/1/1 18/1/1 17/1/1 
f 21/1/2 22/1/2 23/1/2 
f 23/1/2 22/1/2 24/1/2 
f 25/1/2 26/1/2 27/1/2 
f 27/1/2 26/1/2 28/1/2 
f 28/1/2 26/1/2 29/1/2 
f 29/1/2 26/1/2 30/1/2 
f 29/2/2 30/2/2 31/2/2 
f 31/2/2 30/2/2 32/2/2 
f 33/2/2 34/2/2 35/2/2 
f 35/2/2 34/2/2 36/2/2 
f 37/1/2 38/1/2 39/1/2 
f 39/1/2 38/1/2 40/1/2 
f 37/1/2 39/1/2 41/1/2 
f 39/2/2 40/2/2 41/2/2 
f 40/1/2 38/1/2 42/1/2 
f 41/2/2 40/2/2 42/2/2 
f 37/1/2 41/1/2 43/1/2 
f 41/1/2 42/1/2 43/1/2 
f 42/1/2 38/1/2 44/1/2 
f 43/1/2 42/1/2 44/1/2 
f 25/1/3 5/1/3 7/1/3 
f 27/1/3 5/1/3 25/1/3 
f 11/1/3 1/1/3 3/1/3 
f 15/1/3 1/1/3 11/1/3 
f 45/2/3 11/2/3 9/2/3 
f 46/1/3 15/1/3 11/1/3 
f 46/2/3 11/2/3 45/2/3 
f 47/2/3 13/2/3 15/2/3 
f 47/1/3 15/1/3 46/1/3 
f 48/2/3 13/2/3 47/2/3 
f 28/1/3 9/1/3 8/1/3 
f 29/2/3 45/2/3 9/2/3 
f 29/1/3 9/1/3 28/1/3 
f 31/1/3 46/1/3 45/1/3 
f 31/2/3 45/2/3 29/2/3 
f 31/1/3 47/1/3 46/1/3 
f 31/1/3 48/1/3 47/1/3 
f 33/2/3 13/2/3 48/2/3 
f 33/1/3 48/1/3 31/1/3 
f 35/2/3 13/2/3 33/2/3 
f 37/1/3 33/1/3 31/1/3 
f 43/1/3 33/1/3 37/1/3 
f 18/1/3 24/1/3 22/1/3 
f 20/1/3 24/1/3 18/1/3 
f 21/1/4 23/1/4 19/1/4 
f 19/1/4 23/1/4 17/1/4 
f 2/1/4 4/1/4 12/1/4 
f 12/1/4 4/1/4 14/1/4 
f 10/2/4 12/2/4 49/2/4 
f 12/1/4 14/1/4 50/1/4 
f 49/2/4 12/2/4 50/2/4 
f 14/2/4 16/2/4 51/2/4 
f 50/1/4 14/1/4 51/1/4 
f 51/2/4 16/2/4 52/2/4 
f 6/1/4 10/1/4 26/1/4 
f 10/2/4 49/2/4 30/2/4 
f 26/1/4 10/1/4 30/1/4 
f 49/1/4 50/1/4 32/1/4 
f 30/2/4 49/2/4 32/2/4 
f 50/1/4 51/1/4 32/1/4 
f 51/1/4 52/1/4 32/1/4 
f 52/2/4 16/2/4 34/2/4 
f 32/1/4 52/1/4 34/1/4 
f 34/2/4 16/2/4 36/2/4 
f 32/1/4 34/1/4 38/1/4 
f 38/1/4 34/1/4 44/1/4 
f 6/1/5 25/1/5 7/1/5 
f 26/1/5 25/1/5 6/1/5 
f 32/1/5 37/1/5 31/1/5 
f 38/1/5 37/1/5 32/1/5 
f 2/1/5 11/1/5 3/1/5 
f 12/1/5 11/1/5 2/1/5 
f 24/2/5 17/2/5 23/2/5 
f 20/2/5 17/2/5 24/2/5 
f 5/1/6 27/1/6 8/1/6 
f 8/1/6 27/1/6 28/1/6 
f 21/2/6 19/2/6 22/2/6 
f 22/2/6 19/2/6 18/2/6 
f 1/1/6 15/1/6 4/1/6 
f 4/1/6 15/1/6 14/1/6 
f 33/1/6 43/1/6 34/1/6 
f 34/1/6 43/1/6 44/1/6 
f 13/2/6 35/2/6 16/2/6 
f 16/2/6 35/2/6 36/2/6 
# 96 faces

