# 3ds Max Wavefront OBJ Exporter v0.99 - (c)2007 guruware
# File Created: 01.05.2022 16:16:46

mtllib Jason_Brazo.mtl

#
# object Jason_Brazo
#

v  -0.2867 -1.7102 0.3572
v  -0.2867 -2.0102 -0.4428
v  -0.2867 -2.0102 0.3572
v  -0.2867 -1.7102 -0.4428
v  -0.2867 0.3898 0.3572
v  -0.2867 0.3898 -0.4428
v  -0.1867 -2.6102 0.0572
v  -0.1867 -3.2102 0.0572
v  -0.1867 -3.2102 0.5572
v  -0.1867 -2.5102 0.0572
v  -0.1867 -2.6102 -0.2428
v  -0.1867 -2.5102 -0.1428
v  -0.1867 -2.4102 0.0572
v  -0.1867 -2.4102 -0.1428
v  -0.1867 -2.4102 -0.2428
v  -0.1867 -2.0102 0.5572
v  -0.1867 -2.4102 -0.6428
v  -0.1867 -2.0102 0.3572
v  -0.1867 -2.0102 -0.4428
v  -0.1867 -2.0102 -0.6428
v  0.1133 -3.1102 0.4572
v  0.1133 -3.2102 0.1572
v  0.1133 -3.2102 0.4572
v  0.1133 -3.1102 0.1572
v  -0.0867 -3.2102 0.4572
v  -0.0867 -3.2102 0.1572
v  -0.0867 -3.1102 0.4572
v  -0.0867 -3.1102 0.1572
v  0.2133 -3.2102 0.5572
v  0.2133 -3.2102 0.0572
v  0.2133 -2.6102 0.0572
v  0.2133 -2.5102 0.0572
v  0.2133 -2.6102 -0.2428
v  0.2133 -2.5102 -0.1428
v  0.2133 -2.4102 0.0572
v  0.2133 -2.4102 -0.1428
v  0.2133 -2.4102 -0.2428
v  0.2133 -2.0102 0.5572
v  0.2133 -2.4102 -0.6428
v  0.2133 -2.0102 0.3572
v  0.2133 -2.0102 -0.4428
v  0.2133 -2.0102 -0.6428
v  0.4133 -2.0102 0.3572
v  0.4133 -2.0102 -0.4428
v  0.4133 -1.7102 0.3572
v  0.4133 -1.7102 -0.4428
v  0.4133 0.3898 0.3572
v  0.4133 0.3898 -0.4428
v  -0.0867 -2.5102 0.0572
v  -0.0867 -2.4102 0.0572
v  0.1133 -2.5102 0.0572
v  0.1133 -2.4102 0.0572
# 52 vertices

vn -1.0000 0.0000 -0.0000
vn 1.0000 0.0000 -0.0000
vn 0.0000 0.0000 1.0000
vn 0.0000 0.0000 -1.0000
vn 0.0000 -1.0000 -0.0000
vn 0.0000 1.0000 -0.0000
# 6 vertex normals

vt 0.1270 0.5000 0.0000
vt 0.2559 0.5000 0.0000
vt 0.9512 0.5000 0.0000
vt 0.9941 0.5000 0.0000
vt 0.9746 0.5000 0.0000
# 5 texture coords

o Jason_Brazo
g Jason_Brazo
usemtl Jason_Brazo_palette
s 1
f 1/1/1 2/1/1 3/1/1 
f 4/1/1 2/1/1 1/1/1 
f 5/2/1 4/2/1 1/2/1 
f 6/2/1 4/2/1 5/2/1 
f 7/3/1 8/3/1 9/3/1 
f 10/3/1 7/3/1 9/3/1 
f 10/3/1 11/3/1 7/3/1 
f 12/3/1 11/3/1 10/3/1 
f 13/3/1 10/3/1 9/3/1 
f 14/3/1 11/3/1 12/3/1 
f 15/3/1 11/3/1 14/3/1 
f 16/3/1 13/3/1 9/3/1 
f 16/3/1 17/3/1 15/3/1 
f 16/3/1 15/3/1 14/3/1 
f 16/3/1 14/3/1 13/3/1 
f 18/3/1 17/3/1 16/3/1 
f 19/3/1 17/3/1 18/3/1 
f 20/3/1 17/3/1 19/3/1 
f 21/3/1 22/3/1 23/3/1 
f 24/3/1 22/3/1 21/3/1 
f 25/3/2 26/3/2 27/3/2 
f 27/3/2 26/3/2 28/3/2 
f 29/3/2 30/3/2 31/3/2 
f 29/3/2 31/3/2 32/3/2 
f 31/3/2 33/3/2 32/3/2 
f 32/3/2 33/3/2 34/3/2 
f 29/3/2 32/3/2 35/3/2 
f 34/3/2 33/3/2 36/3/2 
f 36/3/2 33/3/2 37/3/2 
f 29/3/2 35/3/2 38/3/2 
f 37/3/2 39/3/2 38/3/2 
f 36/3/2 37/3/2 38/3/2 
f 35/3/2 36/3/2 38/3/2 
f 38/3/2 39/3/2 40/3/2 
f 40/3/2 39/3/2 41/3/2 
f 41/3/2 39/3/2 42/3/2 
f 43/1/2 44/1/2 45/1/2 
f 45/1/2 44/1/2 46/1/2 
f 45/2/2 46/2/2 47/2/2 
f 47/2/2 46/2/2 48/2/2 
f 29/3/3 16/3/3 9/3/3 
f 38/3/3 16/3/3 29/3/3 
f 18/1/3 1/1/3 3/1/3 
f 40/1/3 1/1/3 18/1/3 
f 43/1/3 1/1/3 40/1/3 
f 45/2/3 5/2/3 1/2/3 
f 45/1/3 1/1/3 43/1/3 
f 47/2/3 5/2/3 45/2/3 
f 22/3/3 28/3/3 26/3/3 
f 24/3/3 28/3/3 22/3/3 
f 34/3/3 14/3/3 12/3/3 
f 36/3/3 14/3/3 34/3/3 
f 25/3/4 27/3/4 23/3/4 
f 23/3/4 27/3/4 21/3/4 
f 10/3/4 13/3/4 49/3/4 
f 49/3/4 13/3/4 50/3/4 
f 49/4/4 50/4/4 51/4/4 
f 51/4/4 50/4/4 52/4/4 
f 8/3/4 7/3/4 30/3/4 
f 30/3/4 7/3/4 31/3/4 
f 51/3/4 52/3/4 32/3/4 
f 32/3/4 52/3/4 35/3/4 
f 11/3/4 15/3/4 33/3/4 
f 33/3/4 15/3/4 37/3/4 
f 2/1/4 4/1/4 19/1/4 
f 19/1/4 4/1/4 41/1/4 
f 41/1/4 4/1/4 44/1/4 
f 4/2/4 6/2/4 46/2/4 
f 44/1/4 4/1/4 46/1/4 
f 46/2/4 6/2/4 48/2/4 
f 17/3/4 20/3/4 39/3/4 
f 39/3/4 20/3/4 42/3/4 
f 25/3/5 29/3/5 9/3/5 
f 23/3/5 29/3/5 25/3/5 
f 26/3/5 25/3/5 9/3/5 
f 22/3/5 29/3/5 23/3/5 
f 8/3/5 26/3/5 9/3/5 
f 8/3/5 22/3/5 26/3/5 
f 30/3/5 29/3/5 22/3/5 
f 30/3/5 22/3/5 8/3/5 
f 28/5/5 21/5/5 27/5/5 
f 24/5/5 21/5/5 28/5/5 
f 11/3/5 31/3/5 7/3/5 
f 33/3/5 31/3/5 11/3/5 
f 14/3/5 50/3/5 13/3/5 
f 14/3/5 35/3/5 52/3/5 
f 14/3/5 52/3/5 50/3/5 
f 36/3/5 35/3/5 14/3/5 
f 17/3/5 37/3/5 15/3/5 
f 39/3/5 37/3/5 17/3/5 
f 2/1/5 18/1/5 3/1/5 
f 19/1/5 18/1/5 2/1/5 
f 41/1/5 43/1/5 40/1/5 
f 44/1/5 43/1/5 41/1/5 
f 10/3/6 49/3/6 12/3/6 
f 51/3/6 32/3/6 12/3/6 
f 49/3/6 51/3/6 12/3/6 
f 12/3/6 32/3/6 34/3/6 
f 16/3/6 38/3/6 18/3/6 
f 18/3/6 38/3/6 40/3/6 
f 19/3/6 41/3/6 20/3/6 
f 20/3/6 41/3/6 42/3/6 
f 5/2/6 47/2/6 6/2/6 
f 6/2/6 47/2/6 48/2/6 
# 104 faces

